<svg width="158" height="145" viewBox="0 0 158 145" fill="none" xmlns="http://www.w3.org/2000/svg">
<path d="M142.332 69.2127C147.584 73.4239 151.593 78.0978 154.358 83.2345C156.58 87.3532 157.69 91.0206 157.69 94.2368C157.69 98.4364 156.076 102.717 152.848 107.079C149.736 111.29 145.803 114.697 141.048 117.3C142.124 118.445 142.893 119.359 143.356 120.042C143.981 120.967 144.293 121.777 144.293 122.471C144.293 122.703 144.189 122.992 143.981 123.339L143.477 124.137C142.274 126.532 138.196 128.013 131.243 128.58C125.748 129.031 120.507 128.898 115.521 128.181C111.876 127.648 108.758 126.787 106.167 125.595C105.589 125.34 103.928 124.392 101.186 122.749C99.9833 122.02 99.1156 121.563 98.5834 121.378C97.762 121.077 96.9232 121.019 96.0671 121.204C84.2087 123.738 75.1617 124.594 68.9259 123.773C65.7097 123.345 62.6959 122.466 59.8846 121.135C57.3278 119.92 54.6206 118.168 51.7631 115.877C43.0052 109.826 36.8273 103.313 33.2293 96.3366C29.6197 89.3488 28.9082 82.5288 31.0948 75.8766C32.3096 72.1744 34.3862 68.7384 37.3248 65.5685C40.2633 62.3869 43.8787 59.674 48.1708 57.4296C52.6481 55.081 57.5939 53.3457 63.0083 52.2235C68.4458 51.0897 74.1494 50.6096 80.119 50.7831C94.6846 51.1996 107.515 53.2184 118.61 56.8395C127.981 59.9054 135.888 64.0298 142.332 69.2127Z" fill="#0D131A"/>
<path d="M140.215 117.994C140.863 118.387 141.493 119.232 142.106 120.527C142.777 121.916 142.934 122.968 142.575 123.686C141.545 125.745 137.884 127.006 131.59 127.469C126.453 127.839 121.444 127.671 116.562 126.966C112.906 126.445 109.736 125.652 107.052 124.588C105.49 123.975 103.714 123.067 101.724 121.864C100.417 121.088 99.4683 120.597 98.8783 120.389C97.8949 120.053 96.8884 119.989 95.8587 120.198C85.3539 122.361 76.9663 123.073 70.6958 122.332C64.4138 121.58 58.2937 119.145 52.3356 115.026C43.786 109.114 37.7469 102.775 34.2183 96.0066C30.6782 89.227 29.9609 82.6211 32.0665 76.1886C34.5307 68.6687 40.2343 62.6411 49.1772 58.106C58.1202 53.5709 68.4283 51.4711 80.1016 51.8066C100.776 52.4082 117.007 55.5782 128.796 61.3165C140.585 67.0663 149.21 76.0151 154.67 88.1627C157.181 93.7274 156.082 99.7839 151.373 106.332C149.649 108.727 147.596 110.96 145.213 113.031C143.211 114.766 141.476 115.992 140.007 116.71C137.947 117.728 137.207 118.277 137.785 118.358C138.167 118.416 138.977 118.295 140.215 117.994Z" fill="#5DC1CF"/>
<path d="M52.3357 115.026L50.1144 113.43C56.5237 113.441 63.8933 112.637 72.2231 111.018L94.1408 106.106C95.344 110.908 96.8943 115.663 98.7916 120.371C97.8314 120.047 96.8538 119.989 95.8588 120.198C85.3541 122.361 76.9664 123.073 70.6959 122.332C64.4139 121.58 58.2938 119.145 52.3357 115.026Z" fill="#50A8B4"/>
<path d="M142.002 101.265C142.396 99.4715 141.997 97.5568 140.805 95.5207C139.729 93.6812 138.219 92.0731 136.276 90.6963C134.355 89.3196 132.527 88.5329 130.792 88.3362C128.906 88.1164 127.535 88.666 126.679 89.9848C126.922 89.5799 126.818 88.9205 126.367 88.0065C125.892 87.0463 125.117 86.0051 124.041 84.8828C121.346 82.0947 117.91 79.8792 113.733 78.2364C108.469 76.1539 102.864 75.4077 96.9173 75.9977C89.6403 76.7266 82.2477 79.4453 74.7393 84.154C71.7429 86.0282 68.5903 86.543 65.2815 85.6985C62.6206 85.0043 59.5953 83.321 56.2055 80.6485C55.2453 79.885 52.2778 77.2703 47.3031 72.8047C43.6935 69.5537 40.7144 67.263 38.3659 65.9326C42.7737 61.3281 48.6335 57.7706 55.9452 55.2601C63.3842 52.7148 71.4363 51.5637 80.1016 51.8067C100.776 52.4083 117.007 55.5782 128.796 61.3165C140.585 67.0664 149.21 76.0151 154.671 88.1627C157.181 93.7275 156.082 99.7839 151.373 106.332C149.65 108.727 147.596 110.96 145.213 113.031C143.211 114.766 141.476 115.992 140.007 116.71C137.947 117.728 137.207 118.277 137.785 118.358C138.167 118.416 138.977 118.295 140.215 117.994C140.863 118.387 141.493 119.232 142.106 120.527C142.777 121.916 142.934 122.968 142.575 123.686C142.054 124.739 140.793 125.589 138.792 126.237C137.033 126.815 134.777 127.214 132.024 127.434C131.966 125.491 131.526 123.761 130.705 122.245C130.022 121.008 129.253 120.146 128.397 119.66C136.357 112.441 140.892 106.309 142.002 101.265Z" fill="#50A8B4"/>
<path d="M136.935 124.345C138.08 125.687 138.595 126.648 138.479 127.226C138.306 128.024 138.022 128.875 137.629 129.777C137.109 130.934 136.634 131.507 136.206 131.495C135.061 131.472 133.811 131.171 132.458 130.593C131.243 130.084 130.08 129.413 128.97 128.58C128.796 128.464 128.692 128.331 128.657 128.181C128.588 127.903 128.756 127.492 129.161 126.948C131.879 123.408 133.609 121.777 134.349 122.055C134.986 122.298 135.847 123.061 136.935 124.345Z" fill="#0D131A"/>
<path d="M136.571 125.092C137.473 126.214 137.884 126.989 137.803 127.417C137.699 127.95 137.438 128.545 137.022 129.205C136.582 129.864 136.229 130.194 135.963 130.194C135.419 130.194 134.367 129.957 132.805 129.482C131.104 128.95 130.086 128.488 129.751 128.094C129.808 127.759 130.254 127.059 131.087 125.994C132.012 124.826 132.857 123.987 133.62 123.478C134.014 123.212 134.28 123.096 134.419 123.131C134.963 123.339 135.68 123.993 136.571 125.092Z" fill="white"/>
<path d="M134.436 123.148C134.98 123.368 135.697 124.021 136.588 125.109C137.479 126.231 137.884 127 137.803 127.417C137.699 127.891 137.473 128.418 137.126 128.996C136.617 127.018 135.72 125.068 134.436 123.148Z" fill="#DBDCDC"/>
<path d="M145.595 121.239C147.226 122.858 147.926 123.957 147.694 124.536C147.243 125.647 145.849 126.375 143.512 126.722C142.598 126.861 141.811 126.879 141.152 126.775C140.469 126.67 140.151 126.468 140.198 126.167C140.313 125.392 140.626 124.038 141.135 122.106C141.632 120.186 141.927 119.208 142.02 119.174C142.76 118.896 143.952 119.584 145.595 121.239Z" fill="#0D131A"/>
<path d="M141.273 125.456L141.239 125.143C141.239 124.576 141.441 123.639 141.846 122.332C142.205 121.152 142.5 120.36 142.731 119.955C143.159 120.209 143.853 120.903 144.814 122.037C145.82 123.229 146.323 124.01 146.323 124.38V124.397C146.3 124.629 145.942 124.906 145.247 125.23C144.495 125.589 143.72 125.814 142.922 125.907C141.95 126.023 141.401 125.872 141.273 125.456Z" fill="#DBDCDC"/>
<path d="M127.009 118.931L134.089 118.341C134.772 118.248 135.101 118.318 135.078 118.549C135.055 118.757 134.795 118.971 134.297 119.191C133.661 119.48 131.382 119.683 127.46 119.799C123.145 119.937 120.293 119.729 118.904 119.174L119.061 118.705C120.183 119.076 122.832 119.151 127.009 118.931Z" fill="#0D131A"/>
<path d="M127.564 81.9503C127.691 81.1752 127.853 80.7876 128.05 80.7876C128.258 80.7876 128.351 81.1752 128.328 81.9503C128.108 87.4456 126.876 91.9692 124.631 95.5209C122.236 99.304 118.517 102.248 113.473 104.354L113.178 103.642C117.701 101.757 121.195 98.5925 123.659 94.15C125.464 90.899 126.766 86.8325 127.564 81.9503Z" fill="#0D131A"/>
<path d="M72.3446 46.1493L72.709 46.4791L56.4486 57.8805C56.1709 58.054 53.348 59.0027 47.9799 60.7265C42.554 62.4503 39.7196 63.289 39.4766 63.2428C39.2684 63.1965 38.7362 61.6636 37.8801 58.644L36.1274 52.3793L34.0623 64.7872C29.2032 66.2565 26.6696 66.9102 26.4613 66.7482C26.3456 66.6557 26.2878 65.5797 26.2878 63.5204L26.2531 57.9499L24.0145 68.2233L21.5849 69.0042C19.9306 69.5017 19.0108 69.6752 18.8257 69.5248C18.6406 69.3744 18.3919 68.4257 18.0795 66.6788L17.3506 62.6354L15.112 70.5313C13.0064 71.5841 11.8206 72.0064 11.5545 71.7981C11.4041 71.6824 11.2884 71.0346 11.2074 69.8545L10.9818 66.8697L9.38528 72.5443C6.43515 73.2269 4.90224 73.4641 4.78655 73.2559C4.70556 73.117 5.09313 71.9485 5.94924 69.7504L7.85815 64.8219L1.0555 71.6246C0.627438 72.0295 0.390271 72.0874 0.343994 71.7981L0.413409 71.2255L3.62385 61.9065L9.92325 58.5573L4.66507 59.9803L9.12498 54.1321L16.7085 50.7654L12.561 51.5984C10.976 51.9224 10.1431 52.0265 10.0621 51.9108C9.96952 51.7835 11.3058 50.5572 14.0708 48.2318C16.8242 45.9295 18.3572 44.7263 18.6695 44.6222L21.88 44.3793L26.5481 44.1537C25.2177 43.6909 24.107 43.2224 23.2162 42.748L22.5915 42.4877C22.5683 42.453 22.7881 42.3142 23.2509 42.0712C32.3558 37.3394 41.1831 35.257 49.7327 35.8239C58.6756 36.4139 66.2129 39.8557 72.3446 46.1493Z" fill="#0D131A"/>
<path d="M24.292 42.453C33.5358 38.2418 42.1548 36.4717 50.149 37.1427C58.1549 37.8022 65.2583 40.8853 71.4594 46.3923L55.3205 57.2557C45.3363 60.7033 40.2227 62.375 39.9798 62.2709C39.8062 62.1899 39.1815 60.4256 38.1056 56.978C37.0296 53.5189 36.4512 51.3959 36.3702 50.6092C36.2776 49.7994 36.1504 49.5044 35.9884 49.7242C35.8033 49.944 35.5488 50.7712 35.2248 52.2058C34.7737 54.1609 34.1605 58.1465 33.3854 64.1625L27.2074 65.7764L26.9471 54.722C26.9124 53.7965 26.8546 53.3106 26.7736 53.2643C26.681 53.1949 26.4844 53.6577 26.1836 54.6526C25.7555 56.0525 24.8184 60.3678 23.3723 67.5985L19.3983 68.5877C18.5306 65.0822 17.9868 62.537 17.767 60.952C17.6166 59.8992 17.4836 59.4365 17.3679 59.5637L17.0208 60.9347L14.5045 69.8718L12.2659 70.323L11.9015 68.0844C11.6932 66.7655 11.5486 65.7359 11.4676 64.9954C11.3751 64.1046 11.2941 63.6592 11.2247 63.6592C11.1552 63.6708 10.9875 64.0988 10.7214 64.9434C10.3859 66.054 9.73802 68.3621 8.77778 71.8675L5.94913 72.3014L9.15957 63.451C9.46036 62.6758 9.4488 62.375 9.12486 62.5486L8.53483 63.0518L1.68011 69.9065L4.24846 62.4444C9.02652 59.8067 12.0345 58.2101 13.2724 57.6548C15.2507 56.7524 15.1582 56.5153 12.9947 56.9433C12.0576 57.1284 10.9123 57.4177 9.5587 57.811L6.64328 58.6613L9.61076 54.7568L14.1227 52.7611L19.8321 50.2101C20.7808 49.782 21.2609 49.5333 21.2725 49.4639C21.284 49.3597 20.7345 49.3655 19.6239 49.4812L16.0143 50.0539L12.6997 50.6786L18.9818 45.3684L23.407 45.1254L28.5784 44.8131C29.1915 44.7552 29.5039 44.6858 29.5155 44.6048C29.5155 44.5238 29.2378 44.3445 28.6825 44.0669C28.3354 43.8933 27.6702 43.6504 26.6868 43.338C25.6572 43.0141 24.8589 42.7191 24.292 42.453Z" fill="#00A63C"/>
<path d="M37.4462 46.5141C37.1339 46.5141 36.6711 46.1728 36.0579 45.4902L34.0796 43.321C32.0666 41.2964 30.042 40.4807 28.0058 40.8741C36.486 37.5653 44.3993 36.3795 51.7457 37.3166C59.1037 38.2421 65.6749 41.2675 71.4595 46.3926L55.8412 56.9089C53.886 54.1555 51.2019 51.7954 47.789 49.8286C44.2604 47.7809 40.8128 46.676 37.4462 46.5141Z" fill="#009233"/>
<path d="M63.6851 42.7475L66.9302 45.5935L65.6634 45.9233C64.6916 45.5993 63.3727 45.2985 61.7067 45.0209C58.4095 44.4887 54.9272 44.3383 51.2598 44.5697C39.6097 45.2985 28.3355 49.689 17.4374 57.7411L16.5524 58.3832C16.1243 58.6262 16.3152 58.2849 17.125 57.3594C22.146 51.5864 28.6363 47.3405 36.5959 44.6217C45.2149 41.6832 54.2446 41.0584 63.6851 42.7475Z" fill="#0D131A"/>
<path d="M65.2121 45.1253C58.5599 43.737 52.5844 43.3899 47.2858 44.0841C38.9907 45.1716 30.2618 48.6828 21.099 54.6178C26.12 49.9207 32.2979 46.5772 39.6328 44.5873C47.2337 42.5164 55.2511 42.1347 63.685 43.442L63.98 43.9973C64.2577 44.4138 64.6684 44.7898 65.2121 45.1253Z" fill="#00A63C"/>
<path d="M63.685 43.4421L63.98 43.9974C64.2577 44.4139 64.6684 44.7899 65.2121 45.1254C60.7696 44.1883 56.8418 43.7139 53.4289 43.7024C48.3385 43.6677 43.1787 44.518 37.9494 46.2534L36.8561 45.4204C40.8822 44.0668 45.1339 43.2165 49.6111 42.8694C54.2156 42.5108 58.9069 42.7016 63.685 43.4421Z" fill="#009233"/>
<path d="M102.106 33.082L102.228 33.1341L102.297 33.2556C103.176 34.5513 103.639 35.9223 103.685 37.3684C103.743 38.8261 103.379 40.2318 102.592 41.5853C101.019 44.2925 98.109 46.4097 93.8631 47.9368C88.8074 49.7416 82.589 50.3663 75.2079 49.811C74.2245 49.73 73.6055 49.3077 73.351 48.5442C73.0155 47.5377 73.4204 46.1031 74.5658 44.2405C75.7111 42.3894 77.3366 40.5326 79.4422 38.6699C82.1609 36.2635 85.0648 34.4298 88.1537 33.1688C93.2326 31.0863 97.8834 31.0574 102.106 33.082Z" fill="#00A63C"/>
<path d="M101.533 33.9493C102.297 35.1178 102.679 36.3441 102.679 37.6283C102.679 38.8084 102.355 39.9537 101.707 41.0644C100.226 43.6211 97.4379 45.6168 93.3425 47.0514C88.4719 48.7405 82.4501 49.3189 75.2773 48.7868C74.7451 48.7521 74.4269 48.5612 74.3228 48.2141C74.0683 47.4968 74.4558 46.3225 75.4855 44.6913C76.5961 42.9443 78.1406 41.1916 80.1189 39.4331C82.6989 37.154 85.4523 35.4013 88.3793 34.1749C93.1921 32.1735 97.5768 32.0983 101.533 33.9493Z" fill="#009233"/>
<path d="M87.234 19.6682C88.7958 20.478 89.8255 21.5077 90.323 22.7572C92.1162 27.3154 93.0996 31.4224 93.2731 35.0783C93.4698 39.0465 92.7814 43.4428 91.208 48.2671C90.8378 49.4125 89.9527 50.4768 88.5529 51.4602C87.0952 52.5014 85.302 53.2823 83.1732 53.803C80.2 54.5318 77.3192 54.6822 74.5311 54.2542C71.1529 53.7335 68.5845 52.3799 66.826 50.1934C63.4363 45.9475 62.2736 40.4117 63.3379 33.5859C63.7081 31.2026 64.3329 28.8367 65.2121 26.4882C65.8716 24.6834 66.4963 23.3183 67.0863 22.3927C68.1044 20.7615 70.0943 19.5525 73.056 18.7658C75.7169 18.0601 78.4819 17.8403 81.3511 18.1064C83.7112 18.3377 85.6722 18.8584 87.234 19.6682Z" fill="#0D131A"/>
<path d="M89.3685 23.1383C91.0923 27.4998 92.0294 31.6127 92.1798 35.4768C92.3533 39.5144 91.6939 43.7024 90.2014 48.0409C89.8775 48.978 89.0792 49.8803 87.8066 50.748C86.4646 51.6504 84.8334 52.3388 82.9129 52.8131C80.0322 53.5304 77.2961 53.7039 74.7046 53.3337C71.4652 52.8825 69.0993 51.6157 67.6069 49.5333C64.6915 45.4609 63.6965 40.1565 64.6221 33.6199C64.9576 31.3177 65.5071 29.0501 66.2707 26.8173C66.8723 25.0472 67.4276 23.7514 67.9366 22.93C68.8622 21.4607 70.7016 20.379 73.4551 19.6849C75.954 19.0601 78.5571 18.875 81.2643 19.1296C83.393 19.3262 85.1689 19.7774 86.5919 20.4831C88.0264 21.2004 88.952 22.0855 89.3685 23.1383Z" fill="#C28600"/>
<path d="M89.3685 23.1383C90.8263 26.852 91.7229 30.3632 92.0584 33.672C92.3939 37.1311 92.1509 40.6308 91.3295 44.171C86.7713 40.7118 82.1378 37.7096 77.4292 35.1644C71.2744 31.8556 67.1269 30.6409 64.9866 31.5201C65.3684 29.6343 65.8832 27.818 66.5311 26.071C67.0517 24.6596 67.5202 23.6126 67.9367 22.93C68.8622 21.4607 70.7017 20.379 73.4552 19.6849C75.9541 19.0601 78.5572 18.875 81.2644 19.1296C83.3931 19.3262 85.1689 19.7774 86.592 20.4831C88.0265 21.2004 88.9521 22.0855 89.3685 23.1383Z" fill="#986A00"/>
<path d="M85.1689 28.4139C85.3077 28.3676 85.8631 28.9403 86.8349 30.1319L88.5008 32.197C89.5999 30.6815 90.537 29.4956 91.3121 28.6395L91.6592 28.2577L91.746 28.7783C92.0699 30.5716 92.4112 32.1392 92.7698 33.4812C92.9087 34.291 92.8393 35.5984 92.5616 37.4031L92.6484 39.0517L92.1972 39.7285L91.2774 41.9151L89.8718 45.1255L89.5941 45.6635L87.4596 39.3641L84.4401 45.3858L81.8543 40.7351L78.8348 45.2817L75.7979 41.2383L73.1948 46.4444L70.5744 40.7177L67.7805 43.9802L67.2946 44.4487L66.826 43.8761L63.8065 39.4509V39.3641C63.7486 35.8124 64.2288 32.0871 65.2468 28.1883L65.3857 27.6851L67.6417 30.6873L68.9952 29.2122C69.7704 28.3792 70.2505 27.9859 70.4356 28.0321C70.6207 28.0784 70.9504 29.0849 71.4248 31.0517L72.2577 34.5745L74.2187 31.3293C75.3062 29.5014 75.9194 28.5817 76.0582 28.5701C76.197 28.5585 76.6135 29.2469 77.3077 30.6352L78.5398 33.0994L79.876 30.722C80.6165 29.3799 81.0561 28.6974 81.1949 28.6742C81.3453 28.6511 81.7444 29.432 82.3923 31.017L83.6244 34.0365L84.3706 30.9128C84.7524 29.2932 85.0185 28.4602 85.1689 28.4139Z" fill="#0D131A"/>
<path d="M91.3294 29.4035C91.8153 32.1454 92.0583 34.3204 92.0583 35.9285L92.0062 37.3341L91.7459 38.9827C91.6765 39.0868 91.3873 39.862 90.8782 41.3081L89.6982 44.345L88.5875 40.5445C87.9859 38.4852 87.6504 37.4614 87.581 37.4729C87.5 37.4729 86.9968 38.5142 86.0713 40.5966L84.4226 44.293L83.0517 41.3602C82.3228 39.7521 81.9179 38.9711 81.8369 39.0174C81.7675 39.0637 81.2816 39.9082 80.3792 41.5511L78.8 44.3971L77.082 41.7072C76.0871 40.1801 75.5491 39.4455 75.4681 39.5033C75.3871 39.5612 75.0343 40.4462 74.4096 42.1584L73.2121 45.2648L71.928 41.9155C71.2223 40.0644 70.8231 39.11 70.7306 39.0521C70.638 38.9943 70.129 39.6537 69.2034 41.0305L67.5895 43.4079L64.327 39.2777L64.3097 38.8265C64.3097 35.7029 64.7435 32.3767 65.6112 28.8481L66.4268 30.1497L67.121 31.295L67.4681 31.7462C67.5375 31.7925 67.6705 31.7173 67.8672 31.5206C68.9084 30.4794 69.6315 29.8026 70.0364 29.4902L70.9735 32.7354C71.5404 34.6211 71.9164 35.6045 72.1015 35.6855C72.275 35.7665 72.9461 34.9393 74.1145 33.2039L76.1102 30.167L77.3076 32.3189C77.9786 33.4758 78.3836 34.0485 78.5224 34.0369C78.6612 34.0253 79.0835 33.4816 79.7892 32.4057L81.0734 30.3579L82.5484 33.0651L83.7459 35.3558L85.4118 29.8547L88.5528 32.9783L88.7264 32.7354L89.6288 31.538L91.3294 29.4035Z" fill="#C28600"/>
<path d="M68.2664 31.1388C69.1688 30.248 69.7588 29.6985 70.0364 29.4902L70.6959 31.833L68.2664 31.1388Z" fill="#986A00"/>
<path d="M65.6113 28.8481C65.8658 29.1952 66.265 29.8604 66.8087 30.8438L65.2122 30.6182L65.6113 28.8481Z" fill="#986A00"/>
<path d="M85.4119 29.8545L88.5529 32.9782L88.7264 32.7352L89.6288 31.5378L91.3295 29.4033C91.8154 32.1452 92.0583 34.3202 92.0583 35.9283L92.0063 37.334L91.746 38.9826L91.0692 40.7527L90.0627 43.5119L89.2818 42.9739C88.229 39.2949 87.6621 37.4612 87.5811 37.4728C87.5001 37.4728 86.9853 38.5314 86.0366 40.6485C83.5377 38.8437 81.6114 37.5017 80.2578 36.6225C78.0713 35.211 76.0293 34.0657 74.132 33.1864L76.1103 30.1669L77.3077 32.3187C77.9787 33.4757 78.3836 34.0483 78.5225 34.0368C78.6613 34.0252 79.0836 33.4814 79.7893 32.4055L81.0734 30.3578L82.5485 33.065L83.7459 35.3556L85.4119 29.8545Z" fill="#986A00"/>
<path d="M89.6982 44.3446L89.2817 42.9736L90.0627 43.5116L89.6982 44.3446Z" fill="#C28600"/>
<path d="M118.037 12.6046L118.557 13.2987L80.0842 19.1643L42.7911 9.88005L45.7065 6.65226C47.7658 4.62766 49.2582 3.68477 50.1838 3.8236C50.4614 3.86988 50.9762 4.05499 51.7282 4.37892L53.7066 5.2119L52.5092 3.89302C52.1042 3.41868 52.0233 3.12946 52.2662 3.02533C53.481 2.44688 55.1874 1.8742 57.3856 1.30731C60.9836 0.358645 64.0957 0.0520626 66.7219 0.387568C70.181 0.838764 74.774 4.33843 80.5007 10.8866C82.0047 8.34136 83.0922 6.58863 83.7632 5.62839C85.5911 3.0369 87.1761 1.49242 88.5181 0.994948C90.1262 0.393352 92.3649 0.104124 95.234 0.127262C97.8255 0.1504 99.208 0.300799 99.3815 0.578459C99.4741 0.740427 99.2485 1.28996 98.7048 2.22706L97.5421 4.24009C100.631 2.49315 102.523 1.63704 103.217 1.67174C105.345 1.83371 108.411 3.65585 112.414 7.13816C115.202 9.55612 117.077 11.3783 118.037 12.6046Z" fill="#0D131A"/>
<path d="M110.072 6.65258C113.241 9.11681 115.44 11.0836 116.666 12.5528L80.1363 18.1234L44.3356 9.46388C45.0645 8.52678 45.828 7.69959 46.6263 6.9823C47.8179 5.8948 48.9054 5.218 49.8888 4.95191C50.7912 5.20644 52.4977 5.82538 55.0082 6.80876L56.7088 7.48556L53.5852 3.37273C55.3899 2.74799 57.1832 2.2563 58.9648 1.89766C61.9149 1.2845 64.4544 1.11674 66.5831 1.3944C68.8969 1.6952 71.8181 3.46528 75.3467 6.70464C77.1168 8.32432 78.6671 9.93243 79.9975 11.529L80.4834 12.1016L80.8478 11.4596L83.6244 7.13848C85.73 4.19992 87.4827 2.47033 88.8826 1.94972C90.2709 1.41754 91.9774 1.11096 94.002 1.02997C95.7142 0.960559 97.1256 1.04733 98.2363 1.29028C97.6231 2.03071 97.062 2.90996 96.553 3.92804L95.9456 5.29899L95.4944 6.61787L96.6918 5.92372L99.3816 4.27512C101.233 3.18762 102.366 2.62073 102.783 2.57445C103.998 2.45876 106.427 3.81814 110.072 6.65258Z" fill="#E85382"/>
<path d="M113.334 9.34204C114.954 10.765 116.064 11.8352 116.666 12.5525L80.1364 18.123L46.609 10.0188C51.8498 9.91472 55.9395 9.96099 58.8781 10.1577C63.4016 10.4353 67.4971 11.1006 71.1645 12.1533C70.1233 9.23792 68.7176 6.77369 66.9476 4.76066C65.4089 3.00215 63.876 1.87416 62.3488 1.37669C63.8991 1.22629 65.3105 1.23207 66.5831 1.39404C68.897 1.69484 71.8182 3.46492 75.3468 6.70428C77.1168 8.32396 78.6671 9.93207 79.9976 11.5286L80.4835 12.1013L80.5008 12.0666C81.1255 12.9343 81.7561 13.4722 82.3924 13.6805C84.2087 14.1895 86.0193 14.1317 87.8241 13.5069C88.9463 13.1252 90.6643 12.2285 92.9781 10.8171C95.5349 9.26684 97.6405 8.14464 99.2949 7.45049C102.083 6.28201 105.051 5.54736 108.197 5.24657C109.84 6.41505 111.552 7.78021 113.334 9.34204Z" fill="#C94772"/>
<path d="M86.7133 5.95771C87.3034 6.28165 87.824 6.70971 88.2752 7.24189C88.5875 7.58896 88.8363 7.94182 89.0214 8.30047C89.2181 8.69382 89.2817 8.98305 89.2123 9.16815C89.1197 9.39954 88.5875 9.67141 87.6157 9.98378C86.5167 10.3193 85.435 10.4813 84.3706 10.4697C83.1096 10.4465 82.0915 10.1747 81.3163 9.65406L81.1602 9.54993L81.2643 9.39375C82.051 8.12115 82.9129 6.87746 83.85 5.6627L83.902 5.61064L83.9541 5.59329C84.8912 5.3619 85.811 5.48338 86.7133 5.95771Z" fill="#0D131A"/>
<path d="M87.6852 7.15589C88.0438 7.51453 88.3388 7.89053 88.5702 8.28388C88.7553 8.61938 88.8479 8.85655 88.8479 8.99538V9.01273C88.79 9.10529 88.5586 9.23255 88.1537 9.39452L86.5572 9.84571L84.3706 10.0713C83.2831 10.0482 82.3923 9.83414 81.6981 9.42922C82.5542 8.09877 83.3583 6.94186 84.1103 5.95848C84.8391 5.78494 85.5622 5.86014 86.2795 6.18408C86.7885 6.40389 87.2571 6.72783 87.6852 7.15589Z" fill="#FCEEF4"/>
<path d="M101.204 6.37503C101.4 6.25934 101.823 6.35767 102.471 6.67004C103.732 7.27164 105.01 8.17981 106.306 9.39457C107.96 10.9795 108.99 12.5703 109.395 14.1668L109.447 14.3577L102.87 15.3643L102.8 15.3469C101.424 14.6875 100.359 13.8313 99.6072 12.7785C99.0403 12.0381 98.9073 11.0316 99.2081 9.759C99.4047 9.00701 99.7229 8.27237 100.163 7.55508C100.567 6.90721 100.914 6.51386 101.204 6.37503Z" fill="#0D131A"/>
<path d="M101.36 6.72194C101.499 6.65253 101.904 6.79136 102.575 7.13843C103.847 7.79787 105.068 8.70027 106.236 9.84561C107.648 11.2455 108.556 12.6453 108.961 14.0452L102.922 14.9823C101.614 14.3344 100.608 13.5246 99.9022 12.5528C99.5898 12.1363 99.4337 11.6099 99.4337 10.9736C99.4337 10.6265 99.4857 10.2563 99.5898 9.86297C99.7749 9.13411 100.076 8.42839 100.492 7.74581C100.851 7.15579 101.14 6.8145 101.36 6.72194Z" fill="#D9CED4"/>
<path d="M99.1733 3.77156L99.1213 4.1707C98.994 4.91112 98.7337 5.62262 98.3404 6.3052C97.8776 7.10347 97.3396 7.64722 96.7265 7.93645L94.0366 8.00587C93.1227 7.78605 92.3938 7.47947 91.8501 7.08612C91.5609 6.86631 91.422 6.65806 91.4336 6.46139C91.503 5.94078 91.6187 5.42595 91.7807 4.91691C92.0815 3.89882 92.4401 3.37821 92.8566 3.35507L93.8631 3.2683L97.2991 3.06006H97.6289L97.4553 3.35507C97.0504 4.01451 96.7149 4.67395 96.4488 5.3334L99.1733 3.77156Z" fill="#0D131A"/>
<path d="M92.8739 3.73664L93.8978 3.64988L96.7959 3.45898C96.5761 3.8639 96.3736 4.28618 96.1885 4.72581L95.9456 5.29848L95.4944 6.61736L98.5486 4.76051C98.3751 5.35054 98.1205 5.87694 97.785 6.3397C97.4264 6.86031 97.0157 7.22474 96.5529 7.43299C95.986 7.69908 95.234 7.75114 94.2969 7.58917C93.4408 7.45034 92.7409 7.2016 92.1972 6.84296L91.8154 6.49589C91.8732 5.9637 92.0063 5.39103 92.2145 4.77787C92.4575 4.09529 92.6773 3.74821 92.8739 3.73664Z" fill="#FCEEF4"/>
<path d="M71.8239 3.3204L72.0495 3.47658L71.8412 3.65012C70.9388 4.3327 69.6547 5.13675 67.9887 6.06228C66.0104 7.17292 64.8245 7.64726 64.4312 7.48529C64.0263 7.32332 63.6792 6.83163 63.39 6.01022C63.066 5.08469 63.1007 4.30377 63.4941 3.66747C63.8296 3.13529 64.3155 2.63782 64.9518 2.17505C65.6922 1.64287 66.4847 1.29001 67.3293 1.11647L67.364 1.09912L67.416 1.11647C68.7118 1.47512 70.1811 2.20976 71.8239 3.3204Z" fill="#0D131A"/>
<path d="M64.6394 6.86071C64.3849 6.76816 64.1535 6.42687 63.9453 5.83685C63.818 5.40879 63.7544 5.03279 63.7544 4.70885C63.7544 4.38492 63.818 4.10726 63.9453 3.87588C64.2345 3.40154 64.6799 2.95613 65.2815 2.53964C65.941 2.07687 66.6351 1.76451 67.364 1.60254C68.5093 1.91491 69.8051 2.55121 71.2512 3.51145C70.3372 4.17089 69.082 4.91131 67.4854 5.73272C65.8311 6.58884 64.8824 6.96484 64.6394 6.86071Z" fill="#FCEEF4"/>
<path d="M69.0299 4.89975C67.7342 4.00892 66.4384 3.25693 65.1427 2.64376C65.86 2.11158 66.6004 1.76451 67.364 1.60254C68.5093 1.91491 69.8051 2.55121 71.2512 3.51145C70.6496 3.95108 69.9092 4.41384 69.0299 4.89975Z" fill="#D9CED4"/>
<path d="M56.8823 3.49374C58.2822 3.40119 59.1673 3.51688 59.5375 3.84082C59.8383 4.10691 59.9366 4.60438 59.8325 5.33324C59.7284 6.03895 59.4623 6.75046 59.0342 7.46774C57.9583 9.29567 56.6915 9.96668 55.2337 9.48077C53.8686 9.1337 52.8563 7.78589 52.1968 5.43736L52.3183 5.03822L54.6437 5.92326L53.5331 4.46555L53.6893 4.34407C54.3487 3.85817 55.4131 3.57473 56.8823 3.49374Z" fill="#0D131A"/>
<path d="M57.2815 3.87572C58.3921 3.85259 59.0632 3.93935 59.2945 4.13603C59.4102 4.26329 59.3755 4.67978 59.1904 5.3855C58.9822 6.18377 58.664 6.90684 58.236 7.55471C57.403 8.81575 56.4543 9.26695 55.3899 8.9083H55.3726C54.3429 8.65378 53.562 7.69933 53.0298 6.04494L56.7088 7.4853L54.3834 4.41369C55.1007 4.08975 56.0667 3.91043 57.2815 3.87572Z" fill="#FCEEF4"/>
<path d="M77.4812 15.9021L77.7588 16.0409V22.9998L77.1515 22.8783C71.4594 22.3693 64.8477 22.5081 57.3162 23.2948C42.2994 24.8798 29.8684 28.8711 20.023 35.2688L18.3744 36.3448C18.0389 36.4836 17.9232 36.1944 18.0273 35.4771C18.4554 32.6311 19.2942 29.305 20.5436 25.4987C21.6543 22.1205 22.3773 20.2868 22.7129 19.9976C22.9095 19.8356 23.6615 19.4423 24.9688 18.8175L28.9775 16.8739L24.7779 17.9498C23.274 18.3316 22.5567 18.4357 22.6261 18.2622C22.7881 17.8689 23.5632 16.7062 24.9515 14.7741C26.4902 12.6338 27.5025 11.4422 27.9884 11.1992C35.1612 7.49712 44.5496 6.73355 56.1535 8.90855C60.3993 9.70682 64.6626 10.8522 68.9432 12.3446C72.356 13.5362 75.2021 14.722 77.4812 15.9021Z" fill="#0D131A"/>
<path d="M76.7349 16.6656V21.7676C70.5917 20.7495 63.6907 20.6454 56.032 21.4553C42.4035 22.913 30.1344 27.2572 19.2247 34.4879C19.6065 32.5674 20.3759 29.8718 21.5328 26.4011C22.2616 24.1798 22.9269 22.294 23.5285 20.7438L27.4504 18.6092L32.2921 15.8847L33.6457 14.9997C33.7267 14.8956 33.4259 14.8956 32.7433 14.9997L28.9255 15.7979L24.8126 16.735C26.305 14.4906 27.5603 12.9288 28.5784 12.0495C37.9841 9.01843 47.7774 8.43418 57.9582 10.2968C64.5873 11.5231 70.8462 13.6461 76.7349 16.6656Z" fill="#E85382"/>
<path d="M66.8434 12.5875C70.3373 13.7213 73.6345 15.0806 76.735 16.6656V21.7676C72.4545 21.0735 67.5781 20.8247 62.1059 21.0214C61.296 18.5803 59.9771 16.3417 58.1492 14.3055C56.4023 12.3503 54.3488 10.748 51.9886 9.49854C56.9634 9.94973 61.915 10.9794 66.8434 12.5875Z" fill="#C94772"/>
<path d="M52.5092 8.90854L52.596 8.9259L52.6481 8.97796L54.852 11.7719C55.3842 12.5239 55.6271 13.0272 55.5808 13.2817L55.4594 13.5073C47.5345 16.1797 43.2308 17.3887 42.5482 17.1342C42.0045 16.9491 40.7897 16.1624 38.9039 14.7741C36.7868 13.2354 35.7918 12.2231 35.9191 11.7372C35.9885 11.4942 36.3182 11.2282 36.9082 10.9389L38.7651 10.1407C40.0724 9.62005 41.0037 9.16885 41.559 8.78707L41.5938 8.75236H41.6458C45.2207 8.48627 48.8418 8.53833 52.5092 8.90854Z" fill="#0D131A"/>
<path d="M52.2663 9.51633C54.0132 11.6335 54.8867 12.854 54.8867 13.178C54.4586 13.4209 52.4456 14.0457 48.8476 15.0522C45.1802 16.0934 43.1845 16.5677 42.8605 16.4752C42.2821 16.2554 41.1483 15.5207 39.4592 14.2712C37.7123 12.9755 36.8388 12.1714 36.8388 11.8591V11.8417C36.8735 11.6798 37.128 11.4773 37.6024 11.2343L39.0948 10.5749C40.1592 10.1237 40.9401 9.7535 41.4375 9.46427C44.943 9.16347 48.5526 9.18083 52.2663 9.51633Z" fill="#FCEEF4"/>
<path d="M37.5156 19.2344C38.6841 19.5005 39.5807 19.7319 40.2054 19.9285C40.7839 20.1021 41.1714 20.4954 41.3681 21.1086C41.4491 21.3631 41.4896 21.6639 41.4896 22.011C41.4896 22.52 41.397 23.0464 41.2119 23.5902C41.0384 24.1108 40.807 24.5504 40.5178 24.9091L40.4831 24.9611L40.4137 24.9785C37.799 25.7652 35.2712 26.6618 32.8301 27.6683L32.483 27.8592L30.0535 25.1347C28.4569 23.272 27.7107 22.2424 27.8149 22.0457C28.0231 21.6871 29.0238 21.0334 30.8171 20.0847C32.7144 19.0782 33.987 18.6097 34.6349 18.6791L37.5156 19.2344Z" fill="#0D131A"/>
<path d="M40.1187 24.6826C37.5619 25.4693 35.1613 26.3196 32.9169 27.2336L31.0947 25.2032C29.5098 23.5025 28.7173 22.5191 28.7173 22.253V22.2357C28.8793 21.9465 29.7527 21.3796 31.3377 20.535C33.0037 19.6442 34.1085 19.2277 34.6523 19.2856L37.3941 19.8062C38.5164 20.0723 39.3783 20.2979 39.9798 20.483C40.4195 20.6218 40.7087 20.9226 40.8475 21.3854C40.9285 21.6167 40.969 21.8713 40.969 22.1489C40.969 22.5886 40.888 23.0455 40.7261 23.5199C40.5641 23.9711 40.3616 24.3586 40.1187 24.6826Z" fill="#FCEEF4"/>
<path d="M132.371 21.0039C132.903 24.0003 133.048 25.7762 132.805 26.3315C132.701 26.5744 132.076 26.3951 130.931 25.7935L127.79 24.1449L131.555 27.8412C133.036 29.299 133.834 30.1956 133.95 30.5311C134.089 30.9244 133.933 31.9656 133.482 33.6547C133.054 35.3091 132.724 36.2289 132.492 36.414C132.192 36.6685 130.983 36.0958 128.866 34.696L130.774 37.247C131.422 38.1146 131.752 38.6179 131.764 38.7567C131.764 38.9766 130.844 39.6476 129.004 40.7698C124.839 36.5123 119.737 32.5904 113.698 29.0039C101.655 21.8542 90.6989 19.7139 80.8305 22.5831L80.3966 22.7045L80.2231 22.2881C79.8413 21.4088 79.6678 20.2519 79.7025 18.8173L79.8934 16.839L79.9281 16.6655L80.0669 16.544C81.675 15.1094 84.0467 13.6517 87.1819 12.1708C91.0576 10.3429 95.0779 9.02404 99.2427 8.2142C110.754 5.95821 120.918 7.95389 129.733 14.2012C130.879 15.3119 131.758 17.5794 132.371 21.0039Z" fill="#0D131A"/>
<path d="M126.436 33.0648L130.427 38.6354L129.369 39.6939C124.429 34.8349 118.8 30.6527 112.484 27.1472C101.042 20.7726 90.5602 18.8811 81.0387 21.4725C80.8305 20.7668 80.7264 20.0206 80.7264 19.2339C80.7264 18.4935 80.7727 17.8167 80.8652 17.2035C82.4965 15.8037 84.8797 14.398 88.0149 12.9866C91.8443 11.2512 95.801 10.0191 99.8849 9.29023C111.107 7.2772 120.813 9.377 129.004 15.5896C129.745 16.5267 130.37 18.0712 130.879 20.2231C131.203 21.5882 131.457 23.0807 131.642 24.7003L125.846 22.184C124.886 21.7791 124.388 21.6576 124.354 21.8196C124.33 21.9469 124.637 22.346 125.273 23.017L132.805 30.8262L131.642 35.3034C131.272 35.0605 130.601 34.6961 129.629 34.2102L127.425 33.0995C126.685 32.6368 126.239 32.3707 126.089 32.3013C125.869 32.1971 125.985 32.4517 126.436 33.0648Z" fill="#E85382"/>
<path d="M107.763 8.57871C105.392 9.95543 103.315 11.766 101.533 14.0104C99.775 16.2317 98.4792 18.6612 97.6463 21.299C91.7691 20.0032 86.2333 20.0611 81.0387 21.4725C80.8305 20.7668 80.7264 20.0206 80.7264 19.2339C80.7264 18.4935 80.7727 17.8167 80.8652 17.2035C83.1212 15.2599 86.482 13.4493 90.9477 11.7718C96.6166 9.6315 102.222 8.56714 107.763 8.57871Z" fill="#C94772"/>
<path d="M125.846 22.1838C124.886 21.7788 124.388 21.6574 124.354 21.8193C124.33 21.9466 124.637 22.3457 125.273 23.0167L127.113 24.9257C123.55 22.2185 120.044 19.8352 116.596 17.7759C121.398 17.3826 126.072 17.8627 130.618 19.2163C131.058 20.8013 131.399 22.6292 131.642 24.7001L125.846 22.1838Z" fill="#C94772"/>
<path d="M120.779 10.4181L120.883 10.4528L120.9 10.5569C121.062 11.1932 120.975 12.1997 120.64 13.5764L120.05 15.5374C119.911 15.9308 118.852 16.3646 116.874 16.8389C114.653 17.3711 112.848 17.3885 111.46 16.891C110.939 16.7059 110.141 16.0985 109.065 15.0688C107.977 14.0276 107.387 13.2988 107.295 12.8823C107.26 12.7087 107.243 12.5352 107.243 12.3617C107.243 11.1006 108.215 9.7239 110.158 8.23148L110.21 8.19678H110.297C113.976 8.43973 117.47 9.18015 120.779 10.4181Z" fill="#0D131A"/>
<path d="M116.666 16.2319C114.641 16.66 112.987 16.6484 111.703 16.1972C111.217 16.0237 110.471 15.4857 109.464 14.5833C108.469 13.6925 107.937 13.0967 107.868 12.7959L107.833 12.3794C107.833 11.2803 108.701 10.0598 110.436 8.71777C113.918 8.96073 117.221 9.65487 120.345 10.8002L120.397 11.3382C120.397 11.8819 120.293 12.5819 120.085 13.438L119.512 15.3122C119.188 15.5898 118.239 15.8964 116.666 16.2319Z" fill="#FCEEF4"/>
<path d="M121.681 25.3255C122.942 25.1866 123.735 25.2445 124.059 25.499C124.429 25.7998 124.857 26.7369 125.343 28.3103C125.852 29.9878 126.106 31.4397 126.106 32.6661V32.909L125.863 32.857C124.429 32.5793 122.919 32.8685 121.334 33.7247L121.23 33.7767L118.349 31.6943L118.367 31.5728C118.459 31.1563 118.442 30.4159 118.315 29.3515C118.222 28.6227 118.181 28.102 118.193 27.7897C118.216 27.2691 118.355 26.8699 118.61 26.5923C119.223 25.9097 120.247 25.4874 121.681 25.3255Z" fill="#0D131A"/>
<path d="M118.939 30.7912L118.8 29.3162L118.696 28.032C118.696 27.5345 118.795 27.1701 118.991 26.9387C119.523 26.3487 120.414 26.0074 121.664 25.9148C122.717 25.8338 123.376 25.8917 123.642 26.0884C123.954 26.3313 124.336 27.118 124.787 28.4485C125.285 29.9177 125.551 31.2251 125.586 32.3704C124.209 32.1506 122.78 32.434 121.299 33.2207L118.87 31.468L118.939 30.7912Z" fill="#FCEEF4"/>
<path d="M102.592 13.5766C102.916 13.8543 103.425 14.5022 104.119 15.5203C104.929 16.6887 105.293 17.4639 105.212 17.8457C105.12 18.32 104.322 18.7018 102.818 18.991C101.371 19.2802 99.8849 19.3728 98.3577 19.2687H98.271L96.1538 17.0127C94.7539 15.4624 94.0829 14.5542 94.1408 14.2881C94.1639 14.1262 94.2565 14.0163 94.4184 13.9584L98.4445 13.5419C100.967 13.3684 102.349 13.38 102.592 13.5766Z" fill="#0D131A"/>
<path d="M103.685 15.7804C104.391 16.8332 104.721 17.4869 104.674 17.7414C104.628 17.9959 103.992 18.2389 102.766 18.4702L98.4966 18.7305L97.4206 17.672L95.6505 15.8845C94.9911 15.1673 94.6614 14.6929 94.6614 14.4615L94.6787 14.4268L94.7134 14.3748L98.5139 13.993C100.793 13.8542 102.048 13.8426 102.28 13.9583C102.569 14.2128 103.037 14.8202 103.685 15.7804Z" fill="#FCEEF4"/>
<path d="M101.915 13.9062L100.301 16.3184C99.584 17.3365 99.0634 18.1406 98.7395 18.7306H98.4966L97.4206 17.672L95.6505 15.8846C94.9911 15.1673 94.6614 14.693 94.6614 14.4616L94.6787 14.4269L94.7134 14.3748L97.9239 14.0277L101.915 13.9062Z" fill="#D9CED4"/>
<path d="M94.5052 6.94725L94.1408 8.49173C92.926 12.9458 91.7807 16.8851 90.7047 20.3096C90.3229 21.5359 88.7495 22.4673 85.9845 23.1036C84.0756 23.5316 81.4436 23.8382 78.0886 24.0233L69.7588 23.763C66.774 23.3234 65.0097 22.473 64.4659 21.212C63.471 18.9329 62.5686 16.2893 61.7587 13.2814C60.9605 10.2618 60.7638 8.79252 61.1687 8.87351L64.3791 9.29L67.6763 9.74119C67.8383 8.78096 68.0581 7.65296 68.3358 6.35722C68.7176 4.50616 68.9894 3.43601 69.1514 3.14678C69.3134 2.86912 70.1348 3.48807 71.6156 5.00363L74.3228 7.86699C74.6352 7.4505 75.3756 6.55968 76.5441 5.19452L78.5571 2.92118C78.6844 2.82863 79.0777 3.3666 79.7372 4.53508L81.0734 6.94725L83.312 4.58714C84.469 3.38395 85.0937 2.79392 85.1862 2.81706C85.2904 2.8402 85.5565 3.51699 85.9845 4.84745L86.9043 7.65875L88.7611 5.40276C89.6519 4.34997 90.1841 3.8525 90.3576 3.91035C90.5312 3.97976 90.7626 4.56979 91.0518 5.68042L91.6071 7.93641L92.8219 7.43315C93.4119 7.20177 93.8284 7.01666 94.0713 6.87783C94.3606 6.71586 94.5052 6.739 94.5052 6.94725Z" fill="#0D131A"/>
<path d="M92.5095 8.6656L89.3685 19.3555C89.0793 20.2463 87.8703 21.0388 85.7416 21.733C83.6129 22.4155 81.0445 22.8378 78.0365 22.9998C74.936 23.1733 72.252 23.0171 69.9844 22.5312C67.7169 22.0569 66.3806 21.3627 65.9757 20.4488C64.7494 17.6722 63.4999 14.0568 62.2273 9.6027L68.492 10.9563L68.9605 8.05822C69.2845 6.0799 69.4869 4.98661 69.5679 4.77837C69.6489 4.55856 70.2274 5.00397 71.3033 6.11461L73.5246 8.56148L74.2014 9.41181L74.7914 8.94326C75.2541 8.44579 76.4342 6.92445 78.3315 4.37923C78.4241 4.24041 78.8811 4.84779 79.7025 6.20138L80.8999 8.26647L84.7698 4.6916C84.8508 4.61062 85.1631 5.4031 85.7069 7.06906L86.5051 9.6027L88.0843 7.79792C89.1603 6.58316 89.7676 5.95264 89.9065 5.90636C90.0453 5.86009 90.2651 6.4154 90.5659 7.57232L90.965 9.32504L92.5095 8.6656Z" fill="#D7A400"/>
<path d="M92.8913 8.35303L93.5681 7.71094L93.3078 8.61333L90.0974 19.5809C89.7271 20.7494 88.3041 21.7212 85.8283 22.4963C83.6418 23.1789 81.0619 23.6012 78.0886 23.7631C75.0228 23.9367 72.3272 23.7863 70.0018 23.3119C67.364 22.7798 65.7848 21.9294 65.2642 20.7609C64.0957 18.0885 62.8347 14.4268 61.4811 9.77603L62.2273 9.32483C62.8636 10.0306 63.7776 10.8982 64.9692 11.9279L67.2252 13.75L69.1688 11.4246C70.3488 10.0016 70.9967 9.27277 71.1124 9.23806C71.2281 9.21493 72.1363 10.1231 73.8369 11.9626L76.6829 15.1036L77.9324 11.98C78.6728 10.1867 79.1356 9.27277 79.3207 9.23806C79.5058 9.21493 79.9223 9.83966 80.5702 11.1123L81.9238 13.7674L83.8674 11.1643C85.0127 9.67191 85.6779 8.95462 85.8631 9.01247C86.0482 9.07031 86.4299 9.81074 87.0084 11.2337L88.0496 13.75C90.2709 11.1238 91.8848 9.32483 92.8913 8.35303Z" fill="#0D131A"/>
<path d="M88.2058 14.3577C88.8768 13.7792 90.3808 12.2752 92.7177 9.8457L91.2774 14.375L89.6114 19.4423C89.2643 20.5298 88.0669 21.6057 86.0192 22.6701C83.6938 23.8849 81.0965 24.5674 78.2274 24.7178C75.2425 24.8798 72.4659 24.4749 69.8976 23.5031C67.5953 22.6238 66.207 21.6404 65.7327 20.5529C64.6452 18.0656 63.4883 14.7452 62.262 10.5919C63.4767 11.7257 64.9981 12.9809 66.826 14.3577C67.0805 14.5775 67.2888 14.67 67.4507 14.6353C67.5896 14.6122 67.7573 14.4444 67.954 14.1321C68.116 13.8775 68.6771 13.2239 69.6373 12.1711L71.2859 10.4184L74.0104 13.3338C75.7111 15.1039 76.654 15.9831 76.8391 15.9716C77.0242 15.96 77.458 15.1502 78.1406 13.542L79.3727 10.5919L80.6048 12.8479C81.2643 14.0279 81.6808 14.6238 81.8543 14.6353C82.0163 14.6469 82.6352 13.9932 83.7112 12.6744L85.568 10.3316L86.5398 12.1711L87.4422 14.0627C87.5695 14.3982 87.662 14.5775 87.7199 14.6006C87.8008 14.6469 87.9628 14.5659 88.2058 14.3577Z" fill="#F9BE00"/>
<path d="M113.108 43.7026C118.638 45.2875 122.144 46.404 123.625 47.0518C124.492 47.422 124.851 47.6824 124.701 47.8327L123.451 48.2319L118.037 49.8805L123.417 48.9955L126.61 48.5963C127.026 48.6426 128.166 49.4293 130.028 50.9564C131.845 52.4373 132.741 53.2587 132.718 53.4206C132.707 53.5363 131.874 53.8776 130.219 54.4445L126.089 55.8675L131.278 55.9369L134.835 56.1105C135.055 56.2146 135.564 56.9087 136.362 58.1929C137.149 59.4655 137.525 60.1886 137.49 60.3621C137.456 60.4894 136.842 60.6514 135.651 60.848L132.093 61.4207L135.998 61.4381L138.098 61.5075C138.306 61.5769 138.96 62.2537 140.059 63.5379C141.181 64.8336 141.707 65.5798 141.638 65.7765C141.592 65.9385 141.083 66.0657 140.111 66.1583L137.334 66.4533L140.649 66.7136L142.454 66.9565C142.616 67.0838 142.806 68.206 143.026 70.3232C145.861 75.3905 147.226 78.0224 147.122 78.2191C147.064 78.3348 145.884 77.9357 143.582 77.0217L139.052 75.1996L142.141 80.8048C143.784 83.8128 144.553 85.3573 144.449 85.4383L141.551 85.23C139.712 84.9639 138.688 84.7152 138.48 84.4838C138.306 84.2987 137.895 83.2922 137.247 81.4643L135.772 77.3167L136.276 81.0651C136.449 82.4418 136.49 83.1938 136.397 83.3211C136.293 83.4831 135.171 83.2517 133.03 82.627C130.913 82.0138 129.785 81.6031 129.646 81.3948L128.883 79.4339L127.651 75.9978L128.085 79.1215C128.247 80.209 128.27 80.7875 128.154 80.8569C127.969 80.9841 125.557 79.8099 120.918 77.3341L120.883 77.1605L119.165 70.4099L119.321 74.8525C119.379 76.53 119.327 77.3977 119.165 77.4555C118.98 77.5018 118.297 77.1721 117.117 76.4664L115.26 75.321L112.952 75.3384C111.471 75.2921 110.633 75.1359 110.436 74.8698C110.262 74.6153 109.973 73.3774 109.568 71.1561L108.475 65.2559L108.492 70.8958C108.492 72.9551 108.411 73.9964 108.249 74.0195C108.157 74.0311 106.855 73.6088 104.345 72.7527L97.0909 70.3058L97.0562 69.8546L94.1581 68.7613L91.5551 67.8589C91.1386 67.7664 90.8899 67.5871 90.8089 67.321C90.7048 66.997 90.6932 66.2624 90.7742 65.1171C90.8436 64.1337 90.8609 63.104 90.8262 62.0281L90.7047 59.0433L89.2123 63.5205C88.6223 65.198 88.2058 66.031 87.9629 66.0194C87.5695 66.0079 84.9549 64.7064 80.119 62.1149L81.594 54.8957C79.3959 56.9319 77.5044 58.54 75.9194 59.72C73.594 61.4207 72.1189 62.0512 71.4942 61.6116C69.0531 59.9919 67.4566 58.3433 66.7046 56.6658C66.1377 55.3932 66.0798 54.1495 66.531 52.9347C67.4566 50.4474 70.1232 48.4054 74.5311 46.8089C78.5919 45.3396 82.3345 44.7959 85.7589 45.1776L87.3555 44.2232C88.4083 43.61 89.4553 43.0778 90.4965 42.6266C93.7937 41.1921 96.9521 40.5673 99.9716 40.7524C102.366 40.9028 106.745 41.8862 113.108 43.7026Z" fill="#0D131A"/>
<path d="M126.401 49.4121L131.174 53.1778C127.576 54.4389 125.175 55.3239 123.972 55.833C123.069 56.2147 122.624 56.4288 122.636 56.4751L124.093 56.5792C125.389 56.5907 128.825 56.6891 134.401 56.8742L136.241 59.8243L132.388 60.5011C130.19 60.8829 128.854 61.1721 128.38 61.3688L127.252 61.8721C127.159 61.9877 127.558 62.0745 128.449 62.1324C129.768 62.2249 132.863 62.2712 137.733 62.2712L140.198 65.2213L134.245 66.1758C133.435 66.3493 133.007 66.4881 132.961 66.5923C132.903 66.708 133.343 66.8236 134.28 66.9393L141.794 67.6508L142.297 70.5836L139.278 70.1498C137.276 69.8953 136.339 69.8895 136.466 70.1324C136.582 70.3638 137.647 70.6241 139.66 70.9133L142.696 71.3298L145.525 76.8136L137.438 73.7941L143.061 84.4492L139.052 83.8072C137.433 79.4109 136.374 76.669 135.876 75.5815C135.529 74.8064 135.234 74.4477 134.991 74.5056C134.91 74.5287 134.957 75.6393 135.13 77.8375L135.529 82.28L130.236 80.7703C128.744 76.6169 127.772 73.985 127.321 72.8743C126.951 71.9719 126.714 71.5092 126.61 71.486C126.471 71.4513 126.459 71.9719 126.575 73.0478L127.252 79.5728L121.577 76.7962C119.703 69.2416 118.754 66.1353 118.731 67.4773L118.557 71.7463L118.384 76.1195L115.208 74.28C114.977 69.7911 114.705 67.512 114.393 67.4426C114.207 67.4079 114.15 68.5301 114.219 70.8092L114.288 74.2453L111.078 74.1238L110.158 68.9524C109.522 65.5048 108.99 63.1273 108.562 61.82C108.087 60.3739 107.769 59.7491 107.607 59.9458C107.503 60.0846 107.428 60.8308 107.382 62.1844C107.347 63.0984 107.364 65.0536 107.434 68.05L107.52 72.909L97.5074 69.0391L97.3165 64.961C97.2008 62.1613 97.0678 60.5937 96.9174 60.2582C96.767 59.9227 96.7149 61.2358 96.7612 64.1975L96.7785 68.7615L91.6592 66.7832C91.4625 61.9588 91.37 58.5228 91.3815 56.4751V56.3709H91.3642C91.3063 55.8966 91.2311 55.5842 91.1386 55.4338C90.9882 55.1677 90.8146 55.4859 90.618 56.3883V56.4577C90.618 56.8858 90.2709 58.0427 89.5767 59.9284C89.0214 61.4324 88.3504 63.1157 87.5637 64.9784L80.9867 61.6812L82.8261 52.6746L77.62 57.013C74.103 59.859 72.2057 61.1837 71.928 60.987C67.8904 58.3145 66.3343 55.7231 67.2599 53.2126C68.0119 51.1648 71.3496 49.3427 77.273 47.7461C80.2231 46.9479 83.1038 46.3521 85.9151 45.9587L90.9824 43.6159C94.7886 42.0888 97.7735 41.3889 99.9369 41.5161C102.32 41.6665 105.993 42.459 110.957 43.8936C115.549 45.2241 119.309 46.5198 122.236 47.7808C117.713 49.0882 114.792 50.0195 113.473 50.5748C112.57 50.945 112.16 51.1937 112.241 51.321C112.31 51.4367 112.779 51.4367 113.646 51.321L126.401 49.4121Z" fill="#00A63C"/>
<path d="M122.236 47.7808C117.713 49.0882 114.792 50.0195 113.473 50.5748C112.57 50.945 112.16 51.1937 112.241 51.321C112.31 51.4367 112.779 51.4367 113.646 51.321L126.401 49.4121L128.345 50.9392C125.106 51.159 122.67 51.4136 121.039 51.7028C118.158 52.2003 115.92 53.2878 114.323 54.9653C101.863 50.0947 91.4509 52.6862 83.0865 62.7397L80.9867 61.6812L82.8261 52.6746L77.62 57.013C74.103 59.859 72.2057 61.1837 71.928 60.987C67.8904 58.3146 66.3343 55.7231 67.2599 53.2126C68.0119 51.1648 71.3496 49.3427 77.273 47.7461C80.2231 46.9479 83.1038 46.3521 85.9151 45.9587L90.9824 43.6159C94.7886 42.0888 97.7735 41.3889 99.9369 41.5161C102.32 41.6665 105.993 42.459 110.957 43.8936C115.549 45.2241 119.309 46.5198 122.236 47.7808Z" fill="#009233"/>
<path d="M130.774 67.5984C131.746 68.7669 132.099 69.3858 131.833 69.4552C131.59 69.5247 131.052 69.166 130.219 68.3793C120.154 58.8348 109.152 52.5469 97.2124 49.5158C93.4524 48.5672 89.8255 48.0003 86.3316 47.8152L82.1146 47.8325L81.9932 47.3466L82.8261 46.4442C83.6244 45.8195 84.6136 45.4782 85.7936 45.4203L87.6331 45.2815L87.5637 45.2642C95.3729 45.4724 102.858 47.3466 110.019 50.8868C117.782 54.7162 124.701 60.2867 130.774 67.5984Z" fill="#0D131A"/>
<path d="M82.0626 46.6522C82.9187 46.1085 84.3302 45.8655 86.2969 45.9234C94.1755 46.1779 101.614 47.9191 108.614 51.1469C115.486 54.3168 121.554 58.7304 126.818 64.3877C119.055 57.3653 110.141 52.4079 100.076 49.5156C96.5703 48.5091 93.1343 47.8207 89.7677 47.4505L83.9021 47.2249L81.9932 47.1555C81.7155 47.0398 81.7387 46.8721 82.0626 46.6522Z" fill="#00A63C"/>
<path d="M114.098 54.0449L113.334 54.149C113.033 54.1838 112.825 54.3226 112.709 54.5655C106.844 51.5229 100.724 49.3883 94.349 48.162C89.9643 47.3175 86.482 47.0051 83.9021 47.2249L81.9932 47.1555C81.7155 47.0398 81.7387 46.8721 82.0626 46.6522C82.9187 46.1085 84.3302 45.8655 86.2969 45.9234C91.3179 46.0854 96.1943 46.8663 100.926 48.2661C105.565 49.6313 109.956 51.5576 114.098 54.0449Z" fill="#009233"/>
<path d="M2.9644 101.386C4.26015 99.6621 5.53854 98.3837 6.79957 97.5507C8.69691 96.2781 11.6181 96.3938 15.5632 97.8978C20.2371 99.6794 25.0904 102.739 30.123 107.078C35.1555 111.405 38.0478 115.009 38.7998 117.889L39.5807 118.861L40.6046 123.061C40.8244 124.183 40.8418 125.056 40.6567 125.681C40.4716 126.341 40.003 126.925 39.251 127.434C38.5916 127.885 37.4694 128.44 35.8844 129.1C34.5424 129.655 32.3558 130.008 29.3247 130.158C26.3514 130.297 23.222 130.216 19.9363 129.915C11.9074 129.163 7.12929 127.642 5.60217 125.351C5.32451 124.923 5.18568 124.484 5.18568 124.032C5.42863 123.327 5.60217 122.662 5.70629 122.037C5.91453 120.834 5.67737 119.677 4.99479 118.566C3.39824 116.194 2.30496 114.482 1.71493 113.429C0.731557 111.671 0.239868 109.935 0.239868 108.223C0.239868 106.048 1.14805 103.769 2.9644 101.386Z" fill="#0D131A"/>
<path d="M7.37217 98.4018C8.98028 97.3259 11.5891 97.4763 15.1987 98.853C19.6759 100.565 24.3904 103.533 29.342 107.755C34.282 111.978 37.1049 115.443 37.8106 118.15L38.0015 118.949C38.9039 122.408 39.2394 124.525 39.008 125.3C38.846 125.821 38.4585 126.295 37.8453 126.723C37.4288 127.012 36.5495 127.492 35.2075 128.163C34.1894 128.672 32.2343 128.979 29.342 129.083L20.2833 128.788C12.3469 128.048 7.73659 126.712 6.45242 124.779C5.93181 124.027 6.25574 123.148 7.42423 122.142C7.75973 121.852 7.78287 121.372 7.49364 120.701C7.29697 120.262 6.74743 119.359 5.84504 117.994C4.13281 115.426 2.88912 113.268 2.11399 111.521C1.16532 109.393 1.58759 106.714 3.38081 103.486C4.01711 102.318 4.76911 101.213 5.63679 100.172C6.36565 99.2811 6.94411 98.6911 7.37217 98.4018Z" fill="#5DC1CF"/>
<path d="M9.97528 97.7249C11.3983 97.7133 13.1394 98.0893 15.1987 98.8529C19.676 100.565 24.3904 103.533 29.342 107.755C34.2821 111.978 37.1049 115.443 37.8106 118.15L38.0015 118.948C38.9039 122.408 39.2394 124.525 39.008 125.3C38.8461 125.821 38.4585 126.295 37.8453 126.723C37.4289 127.012 36.5496 127.492 35.2076 128.163C34.3515 128.591 32.7838 128.881 30.5047 129.031C28.3413 129.17 25.8829 129.164 23.1294 129.014C21.1742 128.875 19.6124 128.296 18.4439 127.278C16.7548 125.797 17.2812 123.894 20.0231 121.569C22.7418 119.267 22.4526 115.374 19.1554 109.89C18.0332 108.027 16.4598 105.812 14.4352 103.243L9.97528 97.7249Z" fill="#50A8B4"/>
<path d="M14.574 120.337C14.4583 120.129 14.6434 120.094 15.1293 120.233C16.2631 120.557 18.2588 120.944 21.1164 121.395C24.8185 121.974 27.5257 122.182 29.2379 122.02C29.9089 121.962 30.1345 122.032 29.9147 122.228L29.3767 122.523C27.7918 122.94 25.1482 122.853 21.4461 122.263C18.1952 121.742 16.0144 121.222 14.9037 120.701L14.574 120.337Z" fill="#0D131A"/>
<path d="M9.92314 125.352C9.99255 126.208 9.88843 126.926 9.61077 127.504L6.85153 128.302C5.18557 128.754 3.98817 128.997 3.25931 129.031C2.35692 129.066 1.8016 128.968 1.59335 128.736C1.37354 128.493 1.33883 127.897 1.48923 126.949C1.6512 125.977 2.1776 124.855 3.06842 123.582C3.95924 122.286 4.83271 121.401 5.68883 120.927C5.98963 120.765 6.302 120.673 6.62593 120.649L7.25067 120.771C8.91662 122.113 9.80745 123.64 9.92314 125.352Z" fill="#0D131A"/>
<path d="M2.46106 127.799C2.10242 127.452 2.39743 126.445 3.3461 124.779C4.2832 123.102 5.13932 122.055 5.91445 121.638C6.26152 121.465 6.53918 121.436 6.74743 121.551C7.59198 122.292 8.22249 123.31 8.63898 124.606C8.99763 125.739 9.06704 126.468 8.84723 126.792C8.65055 127.081 7.63247 127.4 5.79297 127.747C3.9072 128.105 2.79657 128.123 2.46106 127.799Z" fill="white"/>
<path d="M7.37219 122.211C8.0085 122.986 8.46548 123.906 8.74314 124.97C8.99766 125.919 9.03237 126.526 8.84726 126.792C8.72 126.977 8.10105 127.209 6.99041 127.486C5.84507 127.776 4.82698 127.943 3.93616 127.99C4.37578 126.902 4.89061 125.849 5.48064 124.831C6.15165 123.686 6.78217 122.813 7.37219 122.211Z" fill="#DBDCDC"/>
<path d="M14.1401 133.109C13.1567 132.507 12.9254 131.2 13.446 129.187C13.9319 127.336 14.7302 125.82 15.8408 124.64C16.6391 123.796 17.3216 123.304 17.8885 123.165C18.467 123.026 19.0281 123.223 19.5718 123.755C21.1452 125.294 22.1865 126.809 22.6955 128.302C22.9616 129.042 23.0657 129.632 23.0079 130.072C22.603 130.523 21.1684 131.206 18.7042 132.12C16.1358 133.08 14.6145 133.41 14.1401 133.109Z" fill="#0D131A"/>
<path d="M18.4439 124.05C18.9182 124.143 19.6239 124.849 20.561 126.167C21.5444 127.544 22.0592 128.637 22.1055 129.447C21.7121 129.818 20.4916 130.413 18.4439 131.235C16.3151 132.079 15.0541 132.432 14.6607 132.293C14.4409 132.212 14.3542 131.75 14.4004 130.905C14.4467 130.037 14.6203 129.118 14.9211 128.146C15.7309 125.531 16.9052 124.166 18.4439 124.05Z" fill="white"/>
<path d="M18.5133 124.068C19.0223 124.241 19.728 124.97 20.6304 126.254C21.5675 127.596 22.0592 128.661 22.1055 129.448C21.8278 129.702 21.0064 130.124 19.6413 130.714C18.2414 131.328 17.0498 131.779 16.0664 132.068C16.1358 130.506 16.3267 129.147 16.6391 127.99C17.0324 126.59 17.6572 125.283 18.5133 124.068Z" fill="#DBDCDC"/>
<path d="M30.6088 124.554C30.8749 124.311 31.1757 124.149 31.5112 124.068C31.7888 123.998 32.0491 123.998 32.2921 124.068C33.0325 124.287 34.0043 124.906 35.2075 125.925C36.457 126.966 37.1396 127.787 37.2553 128.389C37.371 128.979 37.0123 130.003 36.1793 131.46C35.4505 132.768 34.7795 133.722 34.1663 134.324C33.8539 134.636 33.5416 134.804 33.2292 134.827C32.94 134.839 32.5466 134.734 32.0491 134.515C30.5799 133.867 29.3767 132.901 28.4396 131.617L27.4851 129.899C27.4041 129.436 27.7339 128.58 28.4743 127.33C29.2031 126.104 29.9146 125.178 30.6088 124.554Z" fill="#0D131A"/>
<path d="M30.9906 125.352C31.4187 124.958 31.76 124.796 32.0145 124.866C32.6855 125.062 33.5243 125.629 34.5308 126.566C35.5489 127.492 36.1042 128.203 36.1967 128.701C36.2777 129.129 35.8786 130.02 34.9993 131.373C34.1663 132.634 33.5648 133.386 33.1945 133.629C33.0094 133.676 32.5582 133.491 31.841 133.074C31.0543 132.611 30.3254 132.073 29.6544 131.46C28.9255 130.801 28.5264 130.286 28.457 129.916C28.3876 129.569 28.6247 128.88 29.1685 127.851C29.7469 126.775 30.3543 125.942 30.9906 125.352Z" fill="white"/>
<path d="M36.1968 128.701C36.2777 129.106 35.9249 129.921 35.1382 131.148C34.4325 132.258 33.8366 133.045 33.3507 133.508C33.3045 131.865 33.1888 130.425 33.0037 129.187C32.7839 127.637 32.4426 126.196 31.9798 124.866H32.0145C32.6855 125.062 33.5243 125.629 34.5308 126.566C35.5489 127.492 36.1042 128.203 36.1968 128.701Z" fill="#DBDCDC"/>
<path d="M9.33316 110.74C9.33316 110.832 9.18276 111.029 8.88197 111.33C8.32665 111.897 8.01428 112.359 7.94486 112.718C7.79447 113.447 8.33243 114.095 9.55876 114.662C9.9174 114.824 10.0215 114.957 9.87113 115.061C9.80171 115.119 9.69181 115.153 9.54141 115.165C8.1184 115.107 7.31435 114.604 7.12924 113.655C7.03669 113.123 7.15238 112.574 7.47631 112.007C7.80025 111.451 8.19939 111.07 8.67372 110.861C9.11335 110.676 9.33316 110.636 9.33316 110.74Z" fill="#0D131A"/>
<path d="M115.798 122.089C115.902 121.962 116.006 121.916 116.111 121.951C117.048 122.136 117.962 122.645 118.852 123.478C119.963 124.519 120.842 125.93 121.49 127.712C120.518 128.406 119.489 129.031 118.401 129.586C116.226 130.708 114.855 130.946 114.288 130.298C113.953 129.916 114.057 128.51 114.601 126.081C115.11 123.813 115.509 122.483 115.798 122.089Z" fill="#0D131A"/>
<path d="M114.861 129.916C114.826 129.847 115.029 128.73 115.468 126.567C115.931 124.346 116.249 123.038 116.423 122.645L118.401 124.207C119.408 125.19 120.004 126.231 120.189 127.331C120.258 127.666 119.402 128.21 117.62 128.962C115.85 129.702 114.931 130.02 114.861 129.916Z" fill="#DBDCDC"/>
<path d="M118.766 95.5904C119.772 98.4943 120.397 101.317 120.64 104.059C121.299 111.695 119.148 119.978 114.184 128.91C114.057 129.141 113.878 130.003 113.646 131.495C113.438 132.814 112.993 133.89 112.31 134.723C110.124 137.372 104.738 138.871 96.1538 139.218C91.0403 139.426 86.8349 138.599 83.5377 136.736C80.4487 134.989 78.829 132.762 78.6786 130.055C78.6208 129.06 78.2911 127.591 77.6895 125.647C76.8334 122.859 76.3185 121.1 76.145 120.372C75.0344 115.779 75.4046 111.943 77.2556 108.866C78.3778 106.992 80.9057 104.539 84.8392 101.508C88.6802 98.5579 92.8393 95.8276 97.3165 93.3171C102.141 90.5983 106.196 88.8051 109.481 87.9374C113.253 86.9425 115.492 87.33 116.197 89.1001L118.766 95.5904Z" fill="#5DC1CF"/>
<path d="M116.197 89.1003L118.766 95.5906C119.772 98.4944 120.397 101.317 120.64 104.059C121.299 111.695 119.147 119.978 114.184 128.91C114.022 129.211 113.86 129.962 113.698 131.166C113.536 132.346 113.236 133.3 112.796 134.029C111.35 136.447 107.717 138.026 101.898 138.767L100.006 138.715C98.9535 138.992 98.3866 138.986 98.3056 138.697C98.5486 136.916 98.6238 135.279 98.5312 133.786C98.4271 132.201 98.1263 130.68 97.6288 129.222C105.288 128.366 109.95 123.669 111.616 115.131C112.889 108.583 112.368 100.693 110.054 91.4604C109.048 87.4112 109.684 85.6064 111.963 86.046C112.784 86.208 113.658 86.6361 114.583 87.3302C115.451 87.9896 115.989 88.5797 116.197 89.1003Z" fill="#50A8B4"/>
<path d="M115.746 89.3427C115.202 88.1858 115.087 87.5611 115.399 87.4685C115.688 87.3875 116.105 87.8503 116.649 88.8568C119.714 94.572 121.195 100.848 121.091 107.686C120.964 115.321 118.812 122.477 114.635 129.152C114.381 129.569 114.254 130.13 114.254 130.835C114.242 132.073 114.092 133.068 113.803 133.82C113.398 134.896 112.657 135.804 111.581 136.545C108.92 138.361 103.784 139.426 96.1711 139.738C90.4907 139.958 86.0076 139.177 82.722 137.395C79.4826 135.637 77.9671 133.201 78.1753 130.089C78.21 129.488 77.9844 128.579 77.4985 127.365L76.3358 124.415C75.3293 121.187 74.8376 118.439 74.8608 116.172C74.8839 113.673 75.5202 111.179 76.7697 108.692L77.7241 109.039C76.6019 112.047 76.1681 115.009 76.4226 117.924C76.573 119.637 77.0994 121.95 78.0018 124.866L78.7654 127.504C79.0083 128.452 79.1471 129.291 79.1818 130.02C79.3207 132.53 80.8304 134.613 83.7112 136.267C86.8927 138.107 91.0344 138.922 96.1364 138.714C103.205 138.425 108.03 137.372 110.609 135.556C111.581 134.873 112.275 134.052 112.692 133.091C112.923 132.536 113.108 131.738 113.247 130.697C113.363 129.736 113.531 129.06 113.75 128.666C118.378 120.325 120.223 111.602 119.286 102.497C118.789 97.7766 117.609 93.3919 115.746 89.3427Z" fill="#0D131A"/>
<path d="M87.7199 126.931C87.1068 126.573 86.7944 126.336 86.7828 126.22C86.7828 126.081 87.1762 126.168 87.9629 126.48C89.1661 126.954 91.0056 127.446 93.4814 127.955C96.6513 128.603 99.4279 128.91 101.811 128.875C103.963 128.84 104.767 128.956 104.223 129.222C103.68 129.488 102.714 129.61 101.325 129.586C98.0975 129.552 95.0432 129.182 92.1625 128.476C90.0916 127.967 88.6108 127.452 87.7199 126.931Z" fill="#0D131A"/>
<path d="M78.3316 128.475L78.7828 128.423C80.1711 129.303 81.1891 130.783 81.837 132.866C82.2419 134.15 82.4444 135.249 82.4444 136.163C82.4444 136.568 81.9296 136.857 80.8999 137.031L76.8739 137.447C74.1551 137.598 72.6511 137.389 72.3619 136.823C72.0842 136.267 72.6685 134.919 74.1146 132.779C75.5029 130.743 76.6425 129.407 77.5333 128.77C77.73 128.632 77.9961 128.533 78.3316 128.475Z" fill="#0D131A"/>
<path d="M73.5767 136.285C73.5767 135.718 74.1031 134.63 75.1558 133.022C76.2318 131.356 77.1747 130.24 77.9845 129.673C78.239 129.488 78.3952 129.424 78.4531 129.482C79.2282 130.084 79.9628 131.212 80.657 132.866C81.2007 134.15 81.5073 135.116 81.5767 135.764C81.1487 135.972 79.8066 136.157 77.5507 136.319C75.2831 136.481 73.9584 136.487 73.5767 136.337V136.285Z" fill="white"/>
<path d="M79.9108 131.321C80.3504 132.096 80.7437 132.987 81.0908 133.994C81.38 134.815 81.542 135.405 81.5767 135.764C81.1487 135.972 79.8066 136.157 77.5507 136.319C75.2831 136.481 73.9584 136.487 73.5767 136.337V136.284C73.5767 136.122 73.6171 135.937 73.6981 135.729C75.098 134.017 77.1689 132.548 79.9108 131.321Z" fill="#DBDCDC"/>
<path d="M94.4532 136.198C95.9109 134.474 96.848 133.612 97.2645 133.612C97.681 133.612 98.6412 134.312 100.145 135.712C101.672 137.124 102.453 138.072 102.488 138.558C102.523 139.056 102.014 140.074 100.961 141.612C99.8965 143.174 99.1271 143.978 98.6528 144.025C98.3057 144.059 97.4612 143.689 96.1191 142.914C94.8234 142.173 93.8632 141.52 93.2384 140.953C92.6253 140.398 92.3187 139.854 92.3187 139.322C92.3187 138.94 93.0302 137.899 94.4532 136.198Z" fill="#0D131A"/>
<path d="M97.3512 134.931C97.6636 134.954 98.3925 135.492 99.5378 136.545C100.695 137.609 101.285 138.315 101.308 138.662C101.343 139.079 100.938 139.889 100.093 141.092C99.2717 142.272 98.7164 142.873 98.4272 142.897C98.2074 142.92 97.6347 142.642 96.7092 142.064C95.7258 141.462 94.9101 140.866 94.2623 140.276L93.6028 139.565L93.4987 139.339C93.5334 139.027 94.1119 138.228 95.2341 136.944C96.3563 135.66 97.062 134.989 97.3512 134.931Z" fill="white"/>
<path d="M114.375 133.404C115.567 135.22 116.018 136.522 115.729 137.309C115.636 137.552 115.428 137.771 115.104 137.968C114.722 138.188 114.259 138.321 113.716 138.367C112.559 138.46 111.315 138.442 109.985 138.315C108.249 138.142 107.289 137.806 107.104 137.309L106.809 136.545C106.809 135.782 107.468 134.596 108.787 132.988C109.794 131.75 110.575 130.917 111.13 130.489C111.327 130.327 111.506 130.263 111.668 130.298L111.98 130.489C112.57 130.905 113.369 131.877 114.375 133.404Z" fill="#0D131A"/>
<path d="M114.844 137.274L111.217 137.395C109.273 137.222 108.157 136.967 107.868 136.632C107.601 136.319 108.058 135.388 109.239 133.838C110.384 132.31 111.147 131.518 111.529 131.46C111.899 131.402 112.651 132.293 113.785 134.133C114.931 135.984 115.283 137.031 114.844 137.274Z" fill="white"/>
<path d="M112.692 134.55C113.004 134.955 113.565 135.903 114.375 137.396C113.542 137.534 112.322 137.517 110.714 137.344C109.059 137.17 108.111 136.933 107.868 136.632C107.694 136.435 107.862 135.915 108.371 135.07C108.822 134.33 109.389 133.572 110.071 132.797C111.078 133.028 111.951 133.612 112.692 134.55Z" fill="#DBDCDC"/>
<path d="M110.644 111.608C111.188 111.596 111.691 111.81 112.154 112.25C112.628 112.701 112.889 113.228 112.935 113.829C112.97 114.327 112.773 114.818 112.345 115.304C111.79 115.941 111.003 116.218 109.985 116.137L109.62 115.894C109.447 115.732 109.551 115.645 109.933 115.634C110.569 115.611 111.101 115.165 111.529 114.298C111.992 113.361 111.703 112.638 110.662 112.128C110.268 111.932 110.147 111.787 110.297 111.695L110.644 111.608Z" fill="#0D131A"/>
<path d="M132.631 97.4303C132.701 97.3725 132.805 97.3378 132.944 97.3262C133.441 97.3031 133.898 97.546 134.315 98.0551C134.743 98.5757 134.98 99.1889 135.026 99.8946C135.049 100.485 134.87 101.057 134.488 101.613C133.979 102.341 133.268 102.665 132.354 102.584L132.024 102.307C131.862 102.11 131.955 102.006 132.302 101.994C132.869 101.971 133.349 101.456 133.742 100.45C134.17 99.3508 133.91 98.5063 132.961 97.9162C132.602 97.6964 132.493 97.5345 132.631 97.4303Z" fill="#0D131A"/>
<path d="M146.393 85.2644C146.879 85.2413 147.33 85.4553 147.746 85.9065C148.163 86.3577 148.394 86.8899 148.441 87.503C148.475 88.0121 148.302 88.5153 147.92 89.0128C147.422 89.6491 146.717 89.9325 145.803 89.8631L145.473 89.6202C145.323 89.4466 145.415 89.3541 145.751 89.3425C146.318 89.3194 146.792 88.8624 147.174 87.9716C147.59 87.0229 147.336 86.2883 146.41 85.7676C146.063 85.5825 145.959 85.4437 146.098 85.3512C146.156 85.3049 146.254 85.276 146.393 85.2644Z" fill="#0D131A"/>
<path d="M145.768 99.8416C146.312 99.8185 146.815 100.102 147.278 100.692C147.752 101.282 148.013 101.976 148.059 102.774C148.094 103.434 147.897 104.082 147.469 104.718C146.913 105.563 146.127 105.933 145.109 105.829L144.744 105.516C144.571 105.296 144.675 105.175 145.057 105.152C145.3 105.14 145.577 104.967 145.89 104.631C146.214 104.273 146.468 103.856 146.653 103.382C147.116 102.144 146.827 101.189 145.785 100.518C145.392 100.264 145.271 100.073 145.421 99.9458L145.768 99.8416Z" fill="#0D131A"/>
<path d="M99.4336 111.417C99.8501 111.798 100.001 112.429 99.8848 113.308C99.8154 113.875 99.5146 114.349 98.9824 114.731C98.4502 115.113 97.8313 115.304 97.1256 115.304L96.7959 115.148C96.6455 115.02 96.7554 114.905 97.1256 114.801C98.0395 114.558 98.5949 114.06 98.7915 113.308C99.0113 112.475 98.5081 111.822 97.2818 111.347L96.6744 111C96.6744 110.908 96.9173 110.861 97.4032 110.861C98.3635 110.85 99.0403 111.035 99.4336 111.417Z" fill="#0D131A"/>
<path d="M110.54 97.0305C110.852 97.3313 111.037 97.7304 111.095 98.2279C111.142 98.6675 110.956 99.0956 110.54 99.5121C110.1 99.9517 109.597 100.177 109.03 100.189C108.741 100.2 108.573 100.154 108.527 100.05C108.481 99.9459 108.62 99.8244 108.943 99.6856C110.066 99.2228 110.488 98.6791 110.21 98.0543C109.979 97.5453 109.505 97.1924 108.787 96.9958C108.371 96.8916 108.244 96.776 108.405 96.6487L108.77 96.4925C109.545 96.4578 110.135 96.6371 110.54 97.0305Z" fill="#0D131A"/>
<path d="M77.5506 66.8007C83.7286 66.0834 87.8183 66.2396 89.8197 67.2692C90.4329 67.5931 90.8204 68.1832 90.9824 69.0393L91.0692 70.9135C91.0692 73.933 89.9932 78.3409 87.8414 84.137C91.046 87.0524 93.3425 89.4646 94.7308 91.3735C96.3621 93.6179 97.1777 95.7004 97.1777 97.6209C97.1777 98.234 97.1141 98.9629 96.9868 99.8074C96.8364 100.768 96.6629 101.473 96.4662 101.925C95.1473 104.956 93.84 107.125 92.5443 108.432C91.0865 109.913 89.0388 110.983 86.401 111.643C84.1566 112.21 79.3612 114.246 72.0148 117.751L65.0386 121.153C62.5165 122.367 60.5266 123.27 59.0689 123.86C55.9106 125.144 51.0226 125.439 44.405 124.745C37.5677 124.016 32.9632 122.576 30.5915 120.424C29.8048 119.695 26.2935 117.641 20.0578 114.263C15.1409 111.591 11.5892 109.705 9.40259 108.606C8.0143 107.912 6.77061 105.835 5.67154 102.376C4.56091 98.8935 4.39894 96.516 5.18564 95.2434C6.22686 93.5659 7.80027 91.4661 9.90585 88.944C12.1156 86.2947 13.8972 84.4147 15.2508 83.304C14.441 82.1471 13.6195 80.2267 12.7866 77.5426C11.9073 74.7082 11.4677 72.3943 11.4677 70.6011C11.4677 70.2425 11.485 69.9243 11.5197 69.6467C11.6701 68.6054 12.0172 67.9749 12.561 67.7551C14.6434 66.8643 18.4034 66.8643 23.8409 67.7551C26.6638 68.2179 29.7527 68.86 33.1078 69.6814C36.2314 68.5013 41.0326 68.0154 47.5114 68.2237C53.0298 68.3972 58.2533 68.9757 63.1818 69.959C66.907 68.5245 71.6967 67.4717 77.5506 66.8007Z" fill="#0D131A"/>
<path d="M88.9173 68.3449C89.3222 68.5184 89.571 68.7151 89.6635 68.9349C90.5312 71.3413 89.6057 76.1541 86.8869 83.3732C86.644 83.1766 86.1754 83.0262 85.4813 82.922C85.0532 82.8642 85.1169 83.1303 85.6722 83.7203L86.644 84.6053C90.7973 88.3422 93.4929 91.7435 94.7308 94.8093C95.6679 97.1463 95.7431 99.223 94.9564 101.039C93.7532 103.793 92.5153 105.812 91.2427 107.096C89.9701 108.368 88.2116 109.358 85.9672 110.063C84.8566 110.41 82.9708 111.191 80.3099 112.406L72.1883 116.224C65.698 119.347 61.2092 121.413 58.7219 122.419C55.2742 123.831 50.2937 124.091 43.7803 123.2C41.1078 122.83 38.6552 122.315 36.4223 121.656C34.201 120.996 32.6392 120.319 31.7368 119.625C30.8344 118.931 27.3753 116.97 21.3593 113.742C14.8574 110.248 11.2479 108.276 10.5306 107.825C9.35053 107.096 8.3093 105.314 7.40691 102.48C6.55079 99.8188 6.26735 97.8404 6.55658 96.5447C6.78796 95.4919 8.1994 93.2764 10.7909 89.8982C13.3014 86.6242 15.0078 84.6805 15.9102 84.0674C17.1019 83.2691 17.6803 82.6502 17.6456 82.2105C17.6225 81.7709 17.1076 81.9213 16.1011 82.6617C14.9558 80.7644 14.0302 78.6067 13.3245 76.1888C12.561 73.5857 12.2949 71.4512 12.5263 69.7853C12.6304 69.1721 12.8097 68.7903 13.0642 68.6399C13.8625 68.1887 16.5292 68.2408 21.0643 68.7961C24.7433 69.2357 28.7404 69.872 33.0557 70.705L33.1945 70.7224L33.3334 70.6703C36.3529 69.4903 41.0905 69.0101 47.5461 69.23C53.0298 69.4151 58.2186 69.9993 63.1123 70.9827L63.2685 71.0174L63.4074 70.9653C67.0054 69.5539 71.6851 68.5532 77.4465 67.9631C83.2079 67.3731 87.0315 67.5004 88.9173 68.3449Z" fill="#5DC1CF"/>
<path d="M18.5654 109.178C17.0035 108.981 15.7656 108.096 14.8517 106.523L13.6543 104.423C13.2262 103.752 12.7692 103.179 12.2833 102.705C13.1741 103.399 14.6203 103.926 16.6218 104.284L18.5654 104.579C19.2479 104.579 21.1279 105.817 24.2053 108.293L28.6132 112.007L24.9168 110.775C22.1749 109.918 20.0578 109.386 18.5654 109.178Z" fill="#50A8B4"/>
<path d="M33.0557 70.7045L33.1946 70.7219L33.3334 70.6698C36.3529 69.4898 41.0905 69.0096 47.5461 69.2295C53.0299 69.4146 58.2186 69.9988 63.1124 70.9822L63.2686 71.0169L63.4074 70.9648C65.4436 70.1666 68.0061 69.4724 71.0951 68.8824C74.0336 68.3155 76.9491 67.9395 79.8414 67.7544C74.7625 68.5642 70.3315 70.2938 66.5484 72.9432C63.9916 74.7479 62.1232 76.6106 60.9431 78.531C56.3618 80.0697 51.3176 82.3084 45.8107 85.2469C38.499 89.1457 33.8424 92.6975 31.841 95.9021C31.6559 95.9021 30.9097 95.5203 29.6023 94.7568C27.9248 93.7618 26.7968 93.1197 26.2184 92.8305C26.8778 91.9513 27.4389 90.8059 27.9017 89.3945L28.9082 85.6287C29.7065 82.5166 30.8518 80.492 32.3442 79.5549C30.3775 77.1948 27.948 75.0372 25.0557 73.082C22.7071 71.497 19.8611 69.9294 16.5176 68.3791C18.5307 68.4717 21.1916 68.7609 24.5003 69.2468C27.3926 69.6749 30.2444 70.1608 33.0557 70.7045Z" fill="#50A8B4"/>
<path d="M43.9191 111.695C46.6147 110.978 49.455 109.74 52.4398 107.981C55.6676 106.084 57.831 104.95 58.9301 104.58L65.9583 103.296C69.3597 102.636 72.1594 102.249 74.3575 102.133C75.8037 102.133 77.3424 101.473 78.9736 100.155C80.628 98.7894 81.3858 97.4995 81.247 96.2847C80.7032 94.8733 79.205 93.3172 76.7524 91.6166C75.017 90.4018 73.27 88.6317 71.5115 86.3063C69.7877 84.0272 67.8673 82.1819 65.7501 80.7705C67.0343 80.354 68.787 79.4053 71.0083 77.9245C73.9121 76.004 75.5607 74.9339 75.9541 74.714L82.8262 70.9309C85.3019 69.7162 87.5406 68.9931 89.542 68.7617L89.6635 68.9353C90.5312 71.3416 89.6057 76.1544 86.8869 83.3736C86.644 83.1769 86.1754 83.0265 85.4813 82.9224C85.0532 82.8645 85.1168 83.1306 85.6722 83.7206L86.644 84.6057C90.7973 88.3425 93.4929 91.7438 94.7308 94.8096C95.6679 97.1466 95.7431 99.2233 94.9564 101.04C93.7532 103.793 92.5153 105.812 91.2427 107.096C89.9701 108.369 88.2116 109.358 85.9672 110.064C84.8565 110.411 82.9708 111.192 80.3099 112.406L72.1883 116.224C65.698 119.348 61.2092 121.413 58.7218 122.419C55.2742 123.831 50.2937 124.091 43.7803 123.2C41.1078 122.83 38.6552 122.315 36.4223 121.656C34.201 120.996 32.6392 120.32 31.7368 119.625C33.449 119.637 35.8612 118.445 38.9733 116.051C40.6855 114.732 42.3342 113.28 43.9191 111.695Z" fill="#50A8B4"/>
<path d="M87.6504 70.3926C87.9512 70.4967 88.1016 70.7165 88.1016 71.0521C88.1016 71.8966 87.6678 73.5741 86.8001 76.0846L85.2209 80.371C85.0474 80.9032 84.7986 81.1924 84.4747 81.2387C84.1392 81.2965 83.5955 81.1288 82.8435 80.7354C78.9794 78.6645 76.5788 77.4209 75.6417 77.0044C75.1905 76.8077 74.9302 76.6399 74.8608 76.5011C74.7682 76.3507 74.8492 76.1425 75.1037 75.8764C76.0871 74.8352 77.9902 73.5973 80.8131 72.1627C84.064 70.4967 86.3431 69.9067 87.6504 70.3926Z" fill="#0D131A"/>
<path d="M87.5811 71.0516C87.5811 72.2432 86.482 75.3726 84.2839 80.4399L80.7437 78.4963C78.7654 77.4551 77.2845 76.7551 76.3011 76.3965C77.7589 75.0198 79.8297 73.6777 82.5138 72.3704C85.14 71.0863 86.7886 70.583 87.4596 70.8607C87.5406 70.8954 87.5811 70.959 87.5811 71.0516Z" fill="#C6000B"/>
<path d="M87.4596 70.8607C87.5406 70.8954 87.5811 70.959 87.5811 71.0516C87.5811 71.8383 87.072 73.5389 86.0539 76.1535C84.7582 75.7949 83.6186 75.6561 82.6353 75.7371C81.3626 75.8528 79.8644 76.3387 78.1406 77.1948C77.4581 76.8593 76.8449 76.5932 76.3011 76.3965C77.7589 75.0198 79.8297 73.6777 82.5138 72.3704C85.14 71.0863 86.7886 70.583 87.4596 70.8607Z" fill="#A30000"/>
<path d="M25.3854 76.8131C25.4201 76.9057 25.235 77.085 24.8301 77.3511L19.5198 81.1689C18.8257 81.6664 18.386 81.811 18.2009 81.6027L17.3333 79.9368C16.6854 78.8261 16.1474 77.5651 15.7194 76.1537C15.1872 74.3836 15.1467 73.1978 15.5979 72.5962C15.783 72.3648 16.6565 72.4805 18.2183 72.9432C20.2429 73.5448 22.3485 74.615 24.535 76.1537L25.3854 76.8131Z" fill="#0D131A"/>
<path d="M20.804 74.9911C22.47 75.8125 23.6385 76.5009 24.3095 77.0562C23.3492 77.5074 22.3427 78.1032 21.2899 78.8436C20.6652 79.2832 19.8669 79.8964 18.8951 80.6831L18.6001 80.9087C18.1836 80.3303 17.6861 79.3006 17.1077 77.8197C16.4598 76.1769 16.1359 74.9795 16.1359 74.2275C16.1359 73.9614 16.1821 73.7763 16.2747 73.6722C16.3441 73.5912 16.4945 73.5565 16.7259 73.5681C17.5589 73.5912 18.9182 74.0656 20.804 74.9911Z" fill="#C6000B"/>
<path d="M16.7259 73.5681C17.501 73.5797 18.8199 74.0366 20.6825 74.939C19.7917 75.4596 19.1959 76.3273 18.8951 77.5421C18.7331 78.2362 18.5943 79.2948 18.4786 80.7178C18.0274 79.9774 17.5415 78.9304 17.0209 77.5768C16.4309 76.0497 16.1359 74.9332 16.1359 74.2275C16.1359 73.9614 16.1821 73.7763 16.2747 73.6722C16.3441 73.5912 16.4945 73.5565 16.7259 73.5681Z" fill="#A30000"/>
<path d="M16.7953 104.18C19.352 104.03 22.6435 104.394 26.6695 105.274L36.7694 107.825C38.7709 108.334 40.6624 108.739 42.4441 109.039C44.272 109.352 45.4405 109.456 45.9495 109.352L47.1816 109.092C62.9966 105.817 73.7849 104.18 79.5463 104.18H80.171L79.876 104.736C78.5803 107.304 74.641 110.543 68.0581 114.454C65.3394 116.062 62.7363 117.427 60.249 118.549C57.7038 119.695 55.8238 120.337 54.609 120.476C52.1795 120.765 48.6856 120.701 44.1274 120.285C39.5807 119.857 36.7752 119.336 35.7108 118.723L31.8062 116.137L25.2639 111.764C21.0527 109.022 18.2588 107.125 16.882 106.072C15.9449 105.355 15.5053 104.875 15.5632 104.632C15.5863 104.574 15.7425 104.487 16.0317 104.371L16.7953 104.18Z" fill="#0D131A"/>
<path d="M27.381 105.985C29.1858 106.344 32.5235 107.148 37.3941 108.397L42.9299 109.768C44.5033 110.092 45.5619 110.202 46.1057 110.098L47.3378 109.838L67.0342 105.759C73.0271 104.591 77.2787 103.978 79.7892 103.92C78.1001 106.419 73.8369 109.641 66.9995 113.586C60.5092 117.323 56.0551 119.336 53.6372 119.625C51.2655 119.903 47.9625 119.781 43.7282 119.261C39.6906 118.775 37.1801 118.254 36.1967 117.699C34.149 116.53 30.8865 114.442 26.4092 111.434C21.2609 107.986 18.3224 105.811 17.5935 104.909C20.1271 104.805 23.3896 105.164 27.381 105.985Z" fill="#922F00"/>
<path d="M25.3333 108.258C25.0094 107.668 24.8937 107.038 24.9862 106.367C25.0441 105.904 25.1887 105.482 25.4201 105.1C38.4122 108.073 44.8447 109.606 44.7174 109.699L71.3207 105.1C71.8991 105.609 71.9917 106.303 71.5983 107.183C71.2744 107.911 70.6265 108.739 69.6547 109.664C67.3177 111.885 63.9048 113.777 59.416 115.339C54.5454 117.028 49.8888 117.757 45.4463 117.525L44.943 117.491C40.5699 117.259 36.3818 116.12 32.3789 114.072C28.7693 112.232 26.4208 110.295 25.3333 108.258Z" fill="#0D131A"/>
<path d="M26.0101 105.742C28.428 106.205 31.9393 107.032 36.5438 108.224L42.687 109.716C44.4108 110.086 45.5504 110.214 46.1057 110.098L47.9278 109.716C57.6922 107.645 65.2642 106.222 70.6438 105.447C70.4703 106.604 69.6894 107.848 68.3011 109.178C65.9988 111.365 62.8057 113.193 58.7218 114.662C54.1983 116.282 49.7847 116.982 45.4809 116.762C41.316 116.53 37.2321 115.362 33.2292 113.256C29.6428 111.359 27.3347 109.444 26.3051 107.512C26.039 107.026 25.9059 106.587 25.9059 106.193L26.0101 105.742Z" fill="#ED8599"/>
<path d="M31.2856 94.6707C32.1649 95.7004 32.4194 96.1747 32.0492 96.0937L31.2162 95.6772C30.9385 96.7647 30.1345 97.7076 28.804 98.5059C27.462 99.3157 26.1547 99.6339 24.8821 99.4603C23.4707 99.2637 22.2328 98.5521 21.1684 97.3258C19.5487 95.44 18.681 92.6056 18.5653 88.8225C17.5241 88.6143 16.9167 88.3655 16.7432 88.0763C16.5581 87.7639 17.3332 87.7176 19.0686 87.9375C21.4056 88.2498 23.4244 88.8283 25.125 89.6728C27.3 90.7603 29.3536 92.4263 31.2856 94.6707Z" fill="#0D131A"/>
<path d="M28.4916 97.3775C27.3463 98.0832 26.1662 98.3667 24.9515 98.2278C23.3434 98.0659 22.065 97.1866 21.1163 95.5901C20.1445 93.9819 19.5776 91.7722 19.4156 88.9609C23.9855 90.0022 27.6992 92.021 30.5567 95.0174C30.2444 95.9429 29.556 96.7296 28.4916 97.3775Z" fill="white"/>
<path d="M29.1164 92.8137L29.2552 92.9352L29.2899 93.3343C28.9313 94.2599 28.376 94.9714 27.624 95.4688C26.872 95.9663 26.12 96.1225 25.368 95.9374C24.535 95.7523 23.8409 95.1333 23.2855 94.0805C22.6377 92.8426 22.3889 91.3039 22.5393 89.4644L22.7996 89.1694L23.112 89.2909C25.287 90.1702 27.2885 91.3444 29.1164 92.8137Z" fill="#0D131A"/>
<path d="M25.5762 95.1561C24.8011 94.9825 24.1995 94.3347 23.7714 93.2125C23.4012 92.2638 23.2277 91.2457 23.2508 90.1582C25.1829 90.9333 26.9529 91.9514 28.5611 93.2125C28.2256 93.9298 27.7917 94.4677 27.2595 94.8264C26.7158 95.185 26.1547 95.2949 25.5762 95.1561Z" fill="#C6000B"/>
<path d="M27.2769 92.2757C26.9992 93.0046 26.6175 93.3632 26.1315 93.3517C25.53 93.3401 25.1308 92.5245 24.9341 90.9048C25.7324 91.2981 26.5133 91.7551 27.2769 92.2757Z" fill="white"/>
<path d="M20.6651 85.6641C21.1626 85.1666 22.0708 84.5477 23.3896 83.8073C24.8242 83.009 25.8944 82.5694 26.6001 82.4884C28.1503 82.3264 28.2024 82.4942 26.7563 82.9916C26.1431 83.1883 25.2407 83.6858 24.0491 84.4841L21.446 86.2368C20.7982 86.6533 20.3932 86.7747 20.2313 86.6012C20.0577 86.4277 20.2023 86.1153 20.6651 85.6641Z" fill="#0D131A"/>
<path d="M31.1294 85.7504C31.0485 84.686 31.1005 84.2522 31.2856 84.4488C31.4707 84.6339 31.6558 85.1893 31.8409 86.1148C32.026 86.9593 32.1707 87.9543 32.2748 89.0996C32.3789 90.245 32.4078 91.1474 32.3616 91.8068C32.3153 92.4431 32.1417 92.7671 31.8409 92.7786C31.5401 92.7902 31.384 92.5125 31.3724 91.9456L31.303 89.2905L31.1294 85.7504Z" fill="#0D131A"/>
<path d="M65.108 80.6144C65.6171 80.302 66.2534 80.1921 67.0169 80.2847C67.3756 80.3309 67.5665 80.4408 67.5896 80.6144C67.6243 80.7879 67.4623 80.9152 67.1037 80.9962L66.1666 81.1523C65.8311 81.1871 65.5881 81.2507 65.4377 81.3432C64.6742 81.7944 63.8817 83.3852 63.0603 86.1155L61.724 91.4084C61.5158 92.2067 61.3712 92.5422 61.2902 92.4149C61.2439 92.3339 61.215 91.9753 61.2034 91.339C61.2034 90.3093 61.5447 88.5797 62.2273 86.1502C63.0834 83.0844 64.0437 81.2391 65.108 80.6144Z" fill="#0D131A"/>
<path d="M71.5116 80.8222C72.3677 81.1808 73.1949 81.632 73.9931 82.1758C74.8261 82.7427 75.5318 83.3443 76.1103 83.9806C76.6888 84.6169 76.9491 84.9466 76.8912 84.9697L75.6938 84.2582C73.3916 82.7311 71.876 81.8113 71.1471 81.499C70.6381 81.2907 70.3778 81.042 70.3662 80.7528C70.3547 80.4751 70.7364 80.4983 71.5116 80.8222Z" fill="#0D131A"/>
<path d="M76.5441 85.5944C77.2267 85.5597 77.701 85.6754 77.9671 85.9415C78.2216 86.2191 77.8919 86.3869 76.9779 86.4447C77.1746 90.4361 76.5962 93.5713 75.2426 95.8504C74.2823 97.4585 73.0676 98.4882 71.5983 98.9394C70.1637 99.3675 68.6134 99.2055 66.9475 98.4535C65.3394 97.7362 64.1015 96.695 63.2338 95.3298C62.4587 96.2091 62.0422 96.5446 61.9843 96.3363C61.9265 96.1281 62.2562 95.4339 62.9735 94.2539C64.2692 92.1483 66.2013 90.2394 68.7696 88.5272C71.5115 86.6992 74.103 85.7216 76.5441 85.5944Z" fill="#0D131A"/>
<path d="M63.8585 94.6183C65.6402 92.4202 67.9887 90.4419 70.9041 88.6834C73.5419 87.11 75.2715 86.4274 76.0929 86.6356V87.0868C76.0929 90.0948 75.6706 92.5417 74.8261 94.4275C73.9815 96.3248 72.7841 97.5048 71.2339 97.9676C69.9612 98.3378 68.6481 98.2221 67.2946 97.6205C65.9178 96.9958 64.7725 95.9951 63.8585 94.6183Z" fill="white"/>
<path d="M67.9367 93.664C66.9996 93.1434 66.4211 92.374 66.2013 91.356L66.6004 90.6792C68.197 89.395 69.9266 88.3133 71.7892 87.434L72.0321 87.3125L72.3445 87.2778C72.9577 88.7471 73.0907 90.1296 72.7436 91.4254C72.3966 92.6748 71.714 93.502 70.6959 93.907C69.7819 94.2656 68.8622 94.1846 67.9367 93.664Z" fill="#0D131A"/>
<path d="M68.8738 93.1603C68.5383 93.0677 68.2085 92.8537 67.8846 92.5182C67.5722 92.1943 67.3177 91.8125 67.121 91.3728C68.6597 90.1002 70.2563 89.0127 71.9107 88.1104C72.0726 88.7582 72.1536 89.383 72.1536 89.9846C72.1536 90.8985 71.8875 91.6621 71.3553 92.2752C71.0314 92.6455 70.6438 92.9115 70.1926 93.0735L68.8738 93.1603Z" fill="#C6000B"/>
<path d="M70.1232 89.1694C70.2389 90.5462 70.0133 91.3213 69.4464 91.4948C68.9143 91.6568 68.4746 91.3502 68.1276 90.5751L70.1232 89.1694Z" fill="white"/>
<path d="M18.3745 108.866C18.0621 108.762 17.4142 107.946 16.4308 106.419L15.0425 104.163L18.2183 104.18C20.3239 104.227 21.3304 104.348 21.2378 104.545L19.971 107.061C19.2306 108.38 18.6984 108.982 18.3745 108.866Z" fill="#0D131A"/>
<path d="M16.1359 104.666L18.4786 104.735C19.6934 104.77 20.2776 104.834 20.2313 104.926C20.0231 105.401 19.6818 106.02 19.2075 106.783C18.6984 107.605 18.3861 107.992 18.2704 107.946C18.0506 107.876 17.3391 106.783 16.1359 104.666Z" fill="white"/>
<path d="M81.6461 103.903C81.6924 104.354 81.3511 105.262 80.6222 106.627C79.8586 108.027 79.2686 108.721 78.8521 108.71C78.4819 108.698 77.8861 107.935 77.0647 106.419L75.9367 104.163L78.7654 103.729C80.6627 103.509 81.6229 103.567 81.6461 103.903Z" fill="#0D131A"/>
<path d="M81.0907 103.92C80.8825 104.66 80.4949 105.482 79.928 106.384C79.3611 107.298 78.9678 107.72 78.748 107.651C78.5282 107.582 78.1984 107.2 77.7588 106.506C77.3192 105.835 76.9548 105.14 76.6655 104.423L81.0907 103.92Z" fill="white"/>
<path d="M32.4136 110.098C32.564 110.109 32.7087 110.769 32.8475 112.076C32.9863 113.349 33.0152 114.06 32.9343 114.211C32.8533 114.407 32.6045 114.552 32.188 114.645C31.7253 114.737 31.3146 114.685 30.9559 114.488C30.7477 114.361 30.5684 114.095 30.418 113.69C30.2676 113.297 30.2271 113.025 30.2965 112.874C30.4585 112.551 30.8113 112.018 31.3551 111.278C31.9335 110.48 32.2864 110.086 32.4136 110.098Z" fill="#0D131A"/>
<path d="M32.2575 110.758C32.3269 110.839 32.4021 111.359 32.4831 112.319C32.5641 113.303 32.5525 113.818 32.4484 113.864C32.298 113.945 32.1013 114.003 31.8584 114.037L31.1642 113.951C30.9213 113.823 30.7882 113.482 30.7651 112.927L31.5113 111.764C31.9625 111.047 32.2112 110.711 32.2575 110.758Z" fill="white"/>
<path d="M36.7694 112.163C36.9083 112.21 37.0702 112.973 37.2554 114.454C37.4289 115.9 37.4809 116.675 37.4115 116.78C37.3421 116.918 37.0298 117.011 36.4744 117.057C35.8613 117.103 35.3869 117.005 35.0514 116.762C34.7622 116.554 34.5482 116.271 34.4093 115.912C34.2705 115.565 34.2532 115.276 34.3573 115.044C34.4614 114.836 34.8374 114.315 35.4853 113.482C36.2026 112.557 36.6306 112.117 36.7694 112.163Z" fill="#0D131A"/>
<path d="M36.4918 112.944C36.538 113.002 36.6075 113.586 36.7 114.697C36.781 115.819 36.7868 116.409 36.7174 116.467L36.1447 116.554C35.7976 116.542 35.5315 116.473 35.3464 116.346C35.0572 116.126 34.901 115.715 34.8779 115.113L35.6761 113.933C36.1736 113.228 36.4455 112.898 36.4918 112.944Z" fill="white"/>
<path d="M62.0711 114.349C62.0017 114.153 62.0769 113.453 62.2967 112.249C62.505 111.023 62.6843 110.404 62.8347 110.393C63.0198 110.369 63.3958 110.774 63.9627 111.607L64.8824 113.065C65.0328 113.273 65.0213 113.557 64.8477 113.915C64.6742 114.274 64.4081 114.54 64.0495 114.714C63.6792 114.899 63.2628 114.933 62.8 114.818C62.3951 114.702 62.1521 114.546 62.0711 114.349Z" fill="#0D131A"/>
<path d="M64.3444 113.239C64.2981 113.737 64.1419 114.055 63.8759 114.194L63.1817 114.246L62.6264 114.072C62.5223 114.014 62.5396 113.499 62.6784 112.528C62.8057 111.567 62.904 111.053 62.9735 110.983C63.0197 110.937 63.2569 111.284 63.685 112.024L64.3444 113.239Z" fill="white"/>
<path d="M57.8195 116.797C57.5418 116.635 57.4898 115.836 57.6633 114.402C57.8368 112.967 58.074 112.186 58.3748 112.059C58.5252 112.013 58.8838 112.372 59.4507 113.135C60.006 113.91 60.3936 114.564 60.6134 115.096C60.6944 115.293 60.6713 115.553 60.544 115.877C60.3936 116.247 60.1564 116.542 59.8325 116.762C59.4854 116.982 59.0747 117.063 58.6004 117.005C58.2533 116.97 57.993 116.901 57.8195 116.797Z" fill="#0D131A"/>
<path d="M60.0928 115.13C60.0465 115.674 59.8499 116.056 59.5028 116.276L58.7392 116.466L58.1666 116.362C58.0971 116.304 58.1434 115.72 58.3054 114.61C58.4558 113.511 58.5599 112.932 58.6177 112.874C58.6525 112.828 58.9012 113.175 59.364 113.915L60.0928 115.13Z" fill="white"/>
<path d="M11.6239 102.48C11.485 102.121 11.4214 101.757 11.433 101.387C11.4561 100.785 11.5602 100.502 11.7453 100.536C11.9073 100.571 12.0404 100.802 12.1445 101.23C12.2255 101.508 12.3412 101.792 12.4916 102.081L12.8213 102.567C13.4576 103.203 14.2211 103.614 15.112 103.799L19.7454 104.024C22.5798 103.99 25.4606 104.291 28.3876 104.927C30.1576 105.309 32.5293 105.985 35.5026 106.957L40.136 108.38C41.8598 108.843 43.3118 109.092 44.4918 109.126C45.0587 109.138 46.5395 108.901 48.9344 108.415L57.2815 106.68C66.1897 104.886 73.8311 103.753 80.2057 103.278C82.3229 103.128 84.1046 102.746 85.5507 102.133C86.858 101.578 87.743 100.912 88.2058 100.137C88.6107 99.4546 88.952 99.229 89.2297 99.4604C89.5073 99.6918 89.4784 100.05 89.1429 100.536C88.1942 101.878 87.0952 102.804 85.8457 103.313C84.7582 103.741 82.9129 104.071 80.3099 104.302C76.5499 104.626 69.6489 105.731 59.6069 107.617C50.3516 109.34 45.3653 110.185 44.648 110.15C42.5771 110.023 39.4245 109.283 35.1902 107.929C32.2169 106.969 29.8915 106.304 28.214 105.933C25.3449 105.309 22.5278 105.014 19.7628 105.048C17.1366 105.083 15.3086 104.956 14.279 104.667C13.5617 104.47 12.8386 104.013 12.1098 103.296C11.9015 103.087 11.7396 102.815 11.6239 102.48Z" fill="#0D131A"/>
<path d="M38.0189 105.169C37.7181 105.007 37.6024 104.788 37.6718 104.51C37.7528 104.232 37.9957 104.134 38.4007 104.215C38.8056 104.296 39.1237 104.423 39.3551 104.597L40.2749 105.534C40.6104 105.916 40.6451 106.159 40.379 106.263L39.8584 106.297C39.2915 105.858 38.6783 105.482 38.0189 105.169Z" fill="#0D131A"/>
<path d="M46.7825 105.968C47.1527 105.517 47.4998 105.198 47.8237 105.013C48.1129 104.863 48.541 104.736 49.1079 104.632C49.6401 104.539 49.9235 104.66 49.9582 104.996C49.9814 105.332 49.7442 105.546 49.2467 105.638C48.8302 105.731 48.4022 105.887 47.9625 106.107C47.5923 106.292 47.4072 106.402 47.4072 106.436L46.8172 106.558C46.4817 106.558 46.4701 106.361 46.7825 105.968Z" fill="#0D131A"/>
<path d="M76.0929 44.5362C79.7834 44.4552 82.5832 44.9237 84.4921 45.9418L84.7697 46.098L83.0344 51.0091C80.8594 50.6389 78.8001 50.4306 76.8564 50.3844C78.2216 50.905 79.2802 51.4834 80.0322 52.1197C80.2636 52.328 80.5239 52.4957 80.8131 52.623C80.9866 52.7618 81.0329 53.0742 80.9519 53.5601L80.6743 56.8226C80.5239 58.5117 80.3619 59.576 80.1884 60.0157C79.9801 60.5131 79.8297 60.7561 79.7372 60.7445C79.6909 60.733 79.6099 60.5421 79.4942 60.1719C79.3438 59.6744 78.7711 58.986 77.7762 58.1068C76.5152 56.9846 75.1442 56.2094 73.6634 55.7814C75.5029 57.3663 77.4523 59.1885 79.5116 61.2478L75.5896 64.6318C72.9172 66.8646 71.4247 67.9521 71.1124 67.8943C70.8231 67.8364 70.1579 67.31 69.1167 66.3151L66.3401 63.66L68.5093 67.3389C69.3423 68.7619 69.7472 69.5891 69.7241 69.8205C69.6778 70.2023 68.5556 70.8386 66.3574 71.7294L63.7197 73.8466C61.9149 75.2117 60.8737 75.8133 60.596 75.6514C60.3183 75.4894 59.6936 74.7837 58.7218 73.5342L56.2749 70.3932L57.6979 74.6796C58.288 76.4381 58.5656 77.4446 58.5309 77.6991C58.4962 77.9652 57.9814 78.4569 56.9864 79.1742L54.7478 80.6839C54.2156 81.031 53.8396 81.2219 53.6198 81.2566C53.3884 81.2798 53.1975 81.1525 53.0471 80.8748L51.0168 76.9182C51.2713 77.9594 51.682 79.394 52.2489 81.2219C49.669 83.2696 48.3269 84.2299 48.2228 84.1026C48.165 84.0332 47.9162 83.368 47.4766 82.107L46.2445 78.5841L46.5742 84.8315C46.5742 84.9125 45.8569 85.2538 44.4223 85.8554C42.9531 86.4685 42.1374 86.7173 41.9755 86.6016C41.8366 86.4974 41.6978 85.9826 41.559 85.0571L41.1425 82.2978L41.3681 85.7165C41.4375 86.804 41.4202 87.3767 41.316 87.4345C37.4751 88.5452 35.4273 88.979 35.1728 88.7361C35.0224 88.5857 35.2654 87.2379 35.9017 84.6927L37.2553 79.4518C36.7925 79.9146 35.624 81.1756 33.7498 83.2349C32.0491 85.0397 31.0773 85.9016 30.8344 85.8206C30.5914 85.7512 30.1807 84.629 29.6023 82.454L28.8214 79.2089L31.1988 76.7794L29.1511 78.3585C27.7975 79.3651 27.0571 79.7989 26.9298 79.6601C26.8025 79.5212 26.8777 78.6883 27.1554 77.1611L27.6066 74.9052L33.316 70.775L29.2378 72.6145C27.7454 73.2971 26.9298 73.5574 26.791 73.3954C26.6521 73.2334 27.0513 72.0765 27.9884 69.9246L29.4287 66.7489L34.444 62.3758L31.7021 63.8161C30.6146 64.383 30.0419 64.6144 29.9841 64.5103C29.8799 64.3252 31.65 61.8436 35.2943 57.0655L41.7152 55.3822L39.4939 55.0699L37.8279 54.7054C37.585 54.636 37.4866 54.5088 37.5329 54.3236L37.6891 54.0633C39.089 52.7792 40.512 51.6165 41.9581 50.5752L42.0449 50.5058L44.5959 50.2802L48.8475 49.8464L45.1165 49.2043L44.8562 49.0308C44.7868 48.8572 44.9777 48.6258 45.4289 48.3366L49.6285 45.2997C51.9654 43.5991 53.2959 42.6967 53.6198 42.5925C55.2279 42.3264 57.3219 42.5405 59.9019 43.2346C62.4818 43.9288 64.9691 44.9526 67.364 46.3062C69.5042 45.2072 72.4139 44.6171 76.0929 44.5362Z" fill="#0D131A"/>
<path d="M75.902 50.7654C77.3481 51.2166 78.7769 52.038 80.1884 53.2296L79.9628 55.6765L79.581 59.0431C78.8984 58.2101 77.9324 57.3887 76.6829 56.5789C75.1558 55.5724 73.7039 54.965 72.3271 54.7567L71.2859 54.6873C71.2165 54.7683 71.4768 55.017 72.0668 55.4335C72.6106 55.8269 73.6807 56.7813 75.2773 58.2969L78.1927 61.1082L75.5549 63.2774C75.4971 63.3237 74.6872 62.7857 73.1254 61.6635C71.552 60.5413 70.667 60.0265 70.4703 60.119C70.2736 60.2232 70.9099 60.8999 72.3792 62.1494L74.6005 64.0583L71.1297 66.887L65.1947 61.6114C64.4428 60.952 64.0147 60.6396 63.9106 60.6743C63.7833 60.6975 64.0147 61.166 64.6047 62.08C65.4261 63.3526 66.7797 65.8168 68.6655 69.4727L66.0971 70.7221L64.813 68.7959C63.9221 67.5349 63.4015 66.939 63.2511 67.0085C63.1239 67.0663 63.4594 67.7778 64.2576 69.143L65.4203 71.2081L60.7175 74.6094C57.8599 70.9535 56.165 68.8884 55.6329 68.4141L54.7652 67.6852C54.6148 67.6621 54.6842 68.0208 54.9734 68.7612C55.3899 69.8834 56.2749 72.7583 57.6285 77.386L53.5851 80.1626L52.1968 77.1083L50.4094 73.3426C49.9929 72.5443 49.7499 72.1452 49.6805 72.1452C49.5995 72.1567 49.588 72.5559 49.6458 73.3426C49.6921 74.0714 49.9235 75.3325 50.34 77.1257C50.7218 78.7685 51.0573 80.0353 51.3465 80.9261L48.6046 82.8871L47.4766 79.5899C46.8056 77.6926 46.3428 76.4547 46.0883 75.8762C45.7181 75.0664 45.4925 74.6383 45.4115 74.592C45.2727 74.5226 45.2495 75.0027 45.3421 76.0324L45.7759 84.3101L42.5655 85.5422C41.7557 81.0187 41.2293 78.3173 40.9863 77.438C40.8128 76.767 40.6392 76.4257 40.4657 76.4142C40.2922 76.4142 40.217 76.7844 40.2401 77.5248L40.5351 86.809L36.1793 87.7461C37.8916 80.9782 38.6898 77.4207 38.5741 77.0736C38.5047 76.8654 37.3536 77.9239 35.1208 80.2493L31.1988 84.3969L29.689 79.4511L32.1012 77.0736L34.6696 74.3838C35.1439 73.84 35.3406 73.5103 35.2596 73.3946C35.1902 73.2905 34.8778 73.3946 34.3225 73.707C33.9176 73.9384 32.8127 74.7193 31.0079 76.0497L27.9016 78.3057L28.3181 75.3382C32.9226 72.1336 35.5835 70.2131 36.3008 69.5768C36.8214 69.114 37.047 68.8364 36.9776 68.7438C36.9082 68.6513 36.5611 68.7091 35.9364 68.9174C35.4389 69.0793 34.1605 69.5826 32.1012 70.4271L28.1619 72.0237L30.0708 67.1993C33.773 63.9253 36.1041 61.9007 37.0644 61.1255L38.4006 59.9802C38.4585 59.8645 37.8742 60.0323 36.6479 60.4835C35.5604 60.8884 34.6927 61.2644 34.0448 61.6114L32.3268 62.5312L35.7628 57.7416L39.5807 56.7871L44.162 55.5203C44.7983 55.2889 45.1049 55.0922 45.0818 54.9303C45.0702 54.7799 44.7347 54.7278 44.0753 54.7741L41.6631 54.6873L38.7303 54.1667C40.0492 53.0098 41.2466 52.0438 42.3226 51.2686L47.3378 50.8001L51.2944 50.3142C51.9076 50.2332 52.2142 50.1117 52.2142 49.9497C52.2142 49.7878 51.9134 49.6605 51.3118 49.568L48.5178 48.9779L46.5916 48.5094C47.1469 48.1623 48.4889 47.1905 50.6176 45.594C52.515 44.1594 53.5735 43.4074 53.7934 43.338C56.3039 43.0603 59.3465 43.5983 62.9214 44.9519C64.7031 45.6345 66.236 46.3402 67.5201 47.069C69.4869 46.0047 72.2172 45.4146 75.7111 45.2989C79.1934 45.1833 81.9006 45.5824 83.8326 46.4964L82.7914 49.7762L78.7306 49.5506C76.0582 49.4349 74.1666 49.4176 73.056 49.4986C71.8528 49.5911 71.3437 49.7299 71.5289 49.915C71.6793 50.0654 72.1825 50.1811 73.0386 50.2621C74.2997 50.3894 75.2541 50.5571 75.902 50.7654Z" fill="#00A63C"/>
<path d="M73.056 49.4986C71.8528 49.5911 71.3438 49.7299 71.5289 49.915C71.6793 50.0654 72.1826 50.1811 73.0387 50.2621C74.2997 50.3894 75.2542 50.5571 75.902 50.7654C77.3482 51.2166 78.777 52.038 80.1884 53.2296L79.9628 55.6765L79.581 59.0431C78.8985 58.2101 77.9324 57.3887 76.683 56.5789C75.1558 55.5724 73.7039 54.965 72.3272 54.7567L71.286 54.6873C71.2165 54.7683 71.4768 55.017 72.0669 55.4335C72.6106 55.8269 73.6808 56.7813 75.2773 58.2969L78.1927 61.1082L75.555 63.2774C75.4971 63.3237 74.6873 62.7857 73.1254 61.6635C71.552 60.5413 70.667 60.0265 70.4703 60.119C70.2737 60.2232 70.91 60.8999 72.3792 62.1494L74.6005 64.0583L71.9975 66.1928C69.3828 61.9585 65.9179 59.0547 61.6026 57.4813C56.9055 55.7806 52.3878 56.2087 48.0493 58.7654C46.4412 54.7162 44.0406 52.5875 40.8475 52.3793L42.3226 51.2686L47.3378 50.8001L51.2945 50.3142C51.9076 50.2332 52.2142 50.1117 52.2142 49.9497C52.2142 49.7878 51.9134 49.6605 51.3118 49.568L48.5179 48.9779L46.5916 48.5094C47.1469 48.1623 48.489 47.1905 50.6177 45.594C52.515 44.1594 53.5736 43.4074 53.7934 43.338C56.3039 43.0603 59.3466 43.5983 62.9215 44.9519C64.7031 45.6345 66.236 46.3402 67.5202 47.069C69.487 46.0047 72.2173 45.4146 75.7112 45.2989C79.1935 45.1833 81.9006 45.5824 83.8327 46.4964L82.7915 49.7762L78.7307 49.5506C76.0582 49.4349 74.1667 49.4176 73.056 49.4986Z" fill="#009233"/>
<path d="M65.941 46.2012H65.9931L68.1623 46.5309L68.8044 46.3574C69.0357 46.3574 68.6482 46.6466 67.6417 47.225C64.0668 48.6828 60.5556 50.609 57.108 53.0038C50.4326 57.6199 44.8736 63.6879 40.431 71.2079L40.0666 71.8673C40.0203 71.902 39.9798 71.6475 39.9451 71.1038C39.8526 69.6345 40.4021 67.6677 41.5937 65.2035C42.8663 62.5657 44.5901 59.9916 46.7651 57.4811C52.3299 51.0602 58.7218 47.3002 65.941 46.2012Z" fill="#0D131A"/>
<path d="M66.7914 46.9993C62.9736 48.0753 58.9417 50.1924 54.6958 53.3508C48.8418 57.7008 44.1968 63.092 40.7608 69.5245C41.1657 67.7891 42.0276 65.7934 43.3465 63.5374C44.8042 61.0501 46.5627 58.7073 48.622 56.5092C53.8513 50.9676 59.6301 47.7051 65.9584 46.7217L66.6873 46.7911C67.069 46.8374 67.1037 46.9068 66.7914 46.9993Z" fill="#00A63C"/>
<path d="M65.9584 46.7217L66.6872 46.7911C67.069 46.8374 67.1037 46.9068 66.7914 46.9993C64.7899 47.5662 62.5628 48.5207 60.1102 49.8627C57.0096 51.5749 54.0884 53.6516 51.3465 56.0927C50.8838 55.7688 50.369 55.5084 49.8021 55.3118C52.0812 53.0905 54.4991 51.2684 57.0559 49.8453C59.9482 48.2257 62.9157 47.1844 65.9584 46.7217Z" fill="#009233"/>
<path d="M129.473 38.3747C129.531 38.8375 128.767 39.7746 127.182 41.186C125.609 42.5859 124.689 43.1528 124.423 42.8867L121.907 39.9018L122.549 41.8455C122.838 42.8173 122.931 43.4651 122.826 43.7891C122.699 44.1824 121.791 44.6915 120.102 45.3162C118.424 45.9409 117.528 46.1145 117.412 45.8368C117.331 45.6286 117.001 45.16 116.423 44.4312L114.896 42.557L114.861 45.1947C114.85 46.2244 114.792 46.7855 114.688 46.878C114.445 47.0978 112.727 47.202 109.533 47.1904C105.831 47.1788 102.766 46.8607 100.336 46.236C99.7113 46.0856 99.3411 45.9641 99.2254 45.8715C98.9477 45.6517 98.6759 45.108 98.4098 44.2403C97.7735 42.2041 96.605 40.0002 94.9043 37.6285C93.3078 35.4188 91.4625 33.3595 89.3685 31.4506C87.286 29.5417 85.3019 28.1013 83.4162 27.1295C81.4147 26.0999 79.8239 25.7701 78.6439 26.1403L78.0539 26.0536C74.0394 24.11 68.7002 27.1469 62.0364 35.1643C58.7045 39.1672 55.7717 43.3668 53.238 47.7631H46.2098L45.6892 44.3617L44.8041 45.403L44.2315 46.4615L43.7282 47.3813C43.4853 47.497 42.849 47.3524 41.8193 46.9474L37.4462 45.4203L33.9928 44.327C33.4143 44.1535 33.0672 43.9337 32.9515 43.6676C32.8127 43.3437 32.8937 42.7768 33.1945 41.9669L33.8713 39.9365L34.5307 37.7673C34.0795 38.1491 33.2697 39.1325 32.1012 40.7175C31.0253 42.1752 30.3601 42.9677 30.1055 43.0949C29.7238 43.2685 28.4222 42.7016 26.201 41.3943C23.9797 40.0985 22.7765 39.2193 22.5914 38.7565C22.4873 38.502 23.1525 37.6459 24.5871 36.1881C26.172 34.5685 28.0925 32.8678 30.3485 31.0862C36.6074 26.123 42.6465 22.6522 48.4658 20.6739C54.7015 18.5452 60.2027 17.7643 64.9692 18.3312C69.5158 18.8633 73.9352 20.6913 78.2274 23.8149C82.5543 20.7723 87.7315 19.3666 93.759 19.598C99.5204 19.8178 105.519 21.4895 111.755 24.6132C116.105 26.8114 120.287 29.6111 124.302 33.0124C127.657 35.87 129.38 37.6574 129.473 38.3747Z" fill="#0D131A"/>
<path d="M124.371 41.7936L123.33 40.2665C122.67 39.3525 121.936 38.5195 121.126 37.7675C120.235 36.923 119.755 36.6106 119.685 36.8304C119.639 36.9924 119.83 37.4725 120.258 38.2708C120.559 38.8377 120.837 39.5318 121.091 40.3532L121.907 43.1819C121.027 43.7835 119.674 44.2983 117.846 44.7264L115.885 41.863C114.728 40.2202 114.103 39.5087 114.011 39.7285C113.907 39.9483 113.831 40.9606 113.785 42.7654L113.698 45.9758L107.972 46.2361C104.721 46.2014 102.158 45.8428 100.284 45.1602C99.6824 42.9621 98.5544 40.6193 96.9 38.132C95.3035 35.714 93.4235 33.4812 91.26 31.4334C89.0272 29.3278 86.8001 27.7082 84.5789 26.5744C82.184 25.348 80.0438 24.8274 78.158 25.0125C73.5419 23.2078 68.116 25.9381 61.8802 33.2035C58.4673 37.1601 55.3783 41.6779 52.6133 46.7568H47.0775C46.7882 45.4957 46.6089 44.4545 46.5395 43.6331L46.4875 42.4183C46.4296 42.2911 46.1635 42.453 45.6892 42.9042L44.2315 44.414C43.7687 44.9693 43.4563 45.5073 43.2944 46.0279C41.7672 45.7502 38.6378 44.7669 33.906 43.0778C34.8315 40.0119 35.5083 37.8543 35.9364 36.6048C36.2372 35.7256 36.3471 35.2686 36.2661 35.2339L35.2422 35.8933C34.5018 36.4024 33.6283 37.1601 32.6218 38.1667C31.3955 39.4046 30.4468 40.5788 29.7758 41.6895C28.6073 41.3887 27.4504 40.897 26.3051 40.2144C25.4721 39.7285 24.7664 39.2252 24.1879 38.7046C26.7563 36.1131 29.6601 33.5795 32.8995 31.1037C38.5915 26.7653 43.9769 23.7284 49.0558 21.993C55.361 19.8527 60.6944 18.9445 65.0559 19.2685C69.51 19.604 73.7675 21.2757 77.8283 24.2837L78.3662 24.5266C82.2766 22.2475 86.5456 21.0154 91.1733 20.8303C97.2702 20.5758 103.726 22.1607 110.54 25.5852C114.589 27.6214 118.523 30.1608 122.341 33.2035C124.92 35.2628 126.962 37.1139 128.466 38.7567C128.142 39.3004 127.512 39.8905 126.575 40.5268L124.371 41.7936Z" fill="#E85382"/>
<path d="M96.015 21.0042C91.8154 22.1264 88.3446 24.1684 85.6027 27.1301C82.803 25.4988 80.3214 24.7931 78.158 25.0129C76.6309 24.4229 74.988 24.3361 73.2295 24.7526C72.0957 22.7974 70.638 21.1777 68.8564 19.8936C71.8759 20.634 74.8666 22.0975 77.8283 24.284L78.3662 24.527C83.6533 21.4496 89.5362 20.2753 96.015 21.0042Z" fill="#C94772"/>
<path d="M113.334 27.0776C116.77 29.0328 120.079 31.3235 123.26 33.9497C125.458 35.7545 127.194 37.3568 128.466 38.7567C128.142 39.312 127.506 39.9078 126.557 40.5441C123.098 35.9743 118.69 31.4855 113.334 27.0776Z" fill="#C94772"/>
<path d="M55.3379 42.1582C54.2966 43.8126 53.3885 45.3455 52.6133 46.7569H47.7369C51.2424 41.7359 55.5577 37.6983 60.6828 34.644C58.878 36.8769 57.0964 39.3816 55.3379 42.1582Z" fill="#C94772"/>
<path d="M92.6657 24.4577C91.208 23.4743 90.4791 22.8207 90.4791 22.4967C90.4329 22.0687 90.4791 21.6522 90.618 21.2473C90.7568 20.8076 90.9882 20.4895 91.3121 20.2928L91.3468 20.2581H91.3989C95.2283 20.1887 99.237 20.8192 103.425 22.1496L103.633 22.2191L103.39 22.7917C102.823 24.0759 102.355 25.0014 101.985 25.5683C101.163 26.8062 100.255 27.5698 99.2601 27.859C98.4966 28.0788 96.2984 26.9451 92.6657 24.4577Z" fill="#0D131A"/>
<path d="M91.6419 20.7437C95.2052 20.6975 98.9651 21.2875 102.922 22.5138L102.852 22.67C102.378 23.7459 101.938 24.5731 101.533 25.1516C100.793 26.2159 99.9716 26.8812 99.0693 27.1473C98.8726 27.2051 98.4503 27.101 97.8024 26.8349C97.0504 26.5225 96.1423 26.054 95.0779 25.4292C93.9557 24.7698 92.9897 24.1393 92.1798 23.5377C91.4625 22.9939 91.0865 22.6469 91.0518 22.4965L91.0345 22.2362C91.0345 21.5304 91.2369 21.033 91.6419 20.7437Z" fill="#FCEEF4"/>
<path d="M91.6419 20.7437L96.605 21.0734L94.002 21.594C92.9839 21.8254 92.0352 22.184 91.156 22.6699L91.0518 22.4964L91.0345 22.2361C91.0345 21.5304 91.2369 21.0329 91.6419 20.7437Z" fill="#D9CED4"/>
<path d="M100.822 33.1169C102.951 32.2376 104.489 31.9137 105.438 32.1451C106.514 32.3996 107.364 33.7069 107.989 36.067C108.556 38.2189 108.672 39.7518 108.336 40.6657C108.047 41.4756 106.954 42.1177 105.056 42.592L102.28 43.0432C101.366 43.2399 99.7229 42.378 97.3512 40.4575L97.3165 40.4228L95.5291 36.9C96.6397 35.3729 98.404 34.1118 100.822 33.1169Z" fill="#0D131A"/>
<path d="M101.308 33.5163C103.251 32.7296 104.617 32.4288 105.403 32.6139C105.612 32.6718 105.947 33.123 106.41 33.9675C106.826 34.7311 107.156 35.5293 107.399 36.3623C107.677 37.2763 107.816 38.1093 107.816 38.8613C107.816 39.4166 107.74 39.9025 107.59 40.319C107.185 41.4296 105.565 42.1238 102.731 42.4014L102.349 42.4535C101.632 42.6154 100.255 41.8866 98.2189 40.2669L96.7438 37.8895L96.2579 37.0044C97.3339 35.5814 99.0172 34.4187 101.308 33.5163Z" fill="#FCEEF4"/>
<path d="M115.278 30.4267C117.869 31.7918 119.298 32.6884 119.564 33.1165C119.633 33.2437 119.633 33.371 119.564 33.4983C119.333 33.9147 118.245 34.5337 116.301 35.3551C114.439 36.1418 113.282 36.5352 112.831 36.5352C112.368 36.5352 111.523 35.9046 110.297 34.6436C109.094 33.4057 108.417 32.5033 108.267 31.9364C108.116 31.3117 108.255 30.6465 108.683 29.9407C108.868 29.64 109.163 29.3392 109.568 29.0384C109.962 28.7491 110.291 28.5756 110.557 28.5177C111.066 28.4021 112.64 29.0384 115.278 30.4267Z" fill="#0D131A"/>
<path d="M118.748 33.3251C118.656 33.5912 117.765 34.0887 116.076 34.8176C114.41 35.5233 113.357 35.8761 112.917 35.8761C112.605 35.8761 111.888 35.315 110.766 34.1928C109.632 33.0591 108.996 32.2319 108.857 31.7112C108.718 31.2138 108.839 30.6642 109.221 30.0626C109.557 29.5305 109.933 29.2181 110.349 29.1255C110.777 29.033 112.229 29.6288 114.705 30.913C117.123 32.1509 118.471 32.9549 118.748 33.3251Z" fill="#FCEEF4"/>
<path d="M60.9431 18.9212L61.2555 18.9038L61.1514 19.1815L60.3705 22.1663C59.9424 23.7629 59.6242 24.619 59.416 24.7347C59.0458 24.9082 57.7211 24.9429 55.442 24.8388C53.1166 24.7231 51.7399 24.5264 51.3118 24.2488L51.0515 24.0405L50.8953 23.8496C50.8953 23.6529 51.3986 22.953 52.4051 21.7498L53.9149 19.9971L54.4181 19.6674L57.8021 19.1468L60.9431 18.9212Z" fill="#0D131A"/>
<path d="M60.5787 19.3208L60.0234 21.6115L59.6416 23.208C59.4912 23.7171 59.3408 24.0121 59.1904 24.0931C58.8665 24.255 57.6575 24.2724 55.5635 24.1451C53.4695 24.0179 52.2779 23.8559 51.9886 23.6592C52.0465 23.3584 52.625 22.5428 53.724 21.2124L54.3661 20.4141C56.5758 19.8588 58.6467 19.4943 60.5787 19.3208Z" fill="#FCEEF4"/>
<path d="M45.4636 29.2991C48.7145 27.6216 50.5251 26.8117 50.8953 26.8696C51.2887 26.939 52.0465 28.3562 53.1687 31.1213C54.2793 33.8516 54.8288 35.5754 54.8173 36.2927C54.8057 37.1141 53.0935 37.8429 49.6806 38.4792C46.3024 39.104 44.4687 39.1907 44.1794 38.7395L42.0449 35.9629C40.7145 34.1697 40.0897 33.1054 40.1707 32.7699C40.3211 32.1798 42.0854 31.0229 45.4636 29.2991Z" fill="#0D131A"/>
<path d="M40.9343 32.943C41.0384 32.5497 42.5771 31.5721 45.5504 30.0102C48.4658 28.4831 50.178 27.7022 50.6871 27.6675C50.9994 27.8757 51.6473 29.1657 52.6307 31.5374C53.6256 33.9437 54.1231 35.4767 54.1231 36.1361V36.1534L53.8628 36.4832C53.5504 36.7146 53.0356 36.9459 52.3183 37.1773C50.9069 37.6401 49.3103 37.964 47.5287 38.1491C45.8512 38.3342 44.9314 38.3169 44.7694 38.0971L43.6241 36.7435C41.8309 34.7652 40.9343 33.5273 40.9343 33.0298V32.943Z" fill="#FCEEF4"/>
<path d="M59.4854 27.4596C59.9481 26.7886 60.2779 26.401 60.4745 26.2969C61.2728 25.9036 62.5917 25.6548 64.4312 25.5507C66.8376 25.4234 68.3763 25.9209 69.0473 27.0431L69.1514 27.2167L68.9952 27.3208C67.2714 28.443 65.5071 29.947 63.7023 31.8327L63.6329 31.9022L63.5288 31.8848L60.7869 31.5204L58.2706 31.1907C57.8194 31.0981 57.5649 30.9766 57.507 30.8262C57.4608 30.7452 57.4666 30.6585 57.5244 30.5659L58.0624 29.7156L59.4854 27.4596Z" fill="#0D131A"/>
<path d="M60.9778 26.6266C61.5679 26.3258 62.6901 26.1118 64.3444 25.9845C66.45 25.8341 67.8557 26.158 68.5614 26.9563C67.0111 28.0207 65.351 29.4668 63.5809 31.2947L61.134 30.9824L58.3054 30.5485L58.7739 29.8023C59.9771 27.8124 60.7117 26.7538 60.9778 26.6266Z" fill="#FCEEF4"/>
<path d="M97.7677 135.139C98.3693 135.509 99.0924 136.105 99.9369 136.927C100.839 137.794 101.296 138.373 101.308 138.662C101.343 138.997 101.059 139.628 100.458 140.554C99.9022 141.421 99.3816 142.092 98.8957 142.567C98.9651 140.993 98.942 139.715 98.8263 138.731C98.6643 137.355 98.3115 136.157 97.7677 135.139Z" fill="#DBDCDC"/>
</svg>
