<svg width="154" height="153" viewBox="0 0 154 153" fill="none" xmlns="http://www.w3.org/2000/svg">
<path d="M103.179 33.0915L21.6168 96.2333C20.7763 96.3267 19.5272 96.1166 17.8696 95.603C15.7917 94.9492 13.8189 93.9803 11.9511 92.6963C6.62802 89.0541 3.40614 83.8244 2.28549 77.0071C1.18818 70.47 2.1921 63.4542 5.29725 55.9598C6.32451 53.4851 7.58525 50.9286 9.07945 48.2904L11.811 43.7027C14.029 39.7571 15.8617 35.8581 17.3092 32.0059C19.714 25.5621 20.3677 20.7993 19.2704 17.7175L20.391 17.8576C21.2315 18.0211 21.9086 18.3246 22.4222 18.7682C22.3522 18.0211 22.1537 17.1455 21.8269 16.1416C21.1498 14.0871 20.1809 12.3594 18.9202 10.9586L22.7024 10.4333C25.9009 10.4566 29.1462 11.3672 32.4381 13.1649L32.1929 11.2388C32.0995 9.93134 32.2279 9.20758 32.5781 9.0675C33.1151 8.85738 33.8856 9.37101 34.8895 10.6084C34.9128 9.58113 35.1346 8.41379 35.5549 7.10636C36.372 4.53819 37.7495 2.6004 39.6873 1.29297L41.6134 4.83003C43.4111 7.37485 45.6057 9.13754 48.1973 10.1181C50.4619 11.0053 55.5982 11.6824 63.6062 12.1493C71.3574 12.6162 76.8206 13.5735 79.9958 15.021L83.3578 15.3011C86.0893 15.6513 88.6108 16.2934 90.9222 17.2273C98.3698 20.239 102.456 25.5271 103.179 33.0915Z" fill="#68AE28"/>
<path d="M4.70186 83.8714C-0.574546 73.9256 0.686189 62.4973 8.48407 49.5864C4.53843 60.0225 5.86921 68.369 12.4764 74.626C15.3481 77.3343 18.9668 79.3188 23.3327 80.5795C27.6052 81.7935 32.1345 82.1904 36.9206 81.7702L20.6011 96.5138C18.2197 96.3037 15.5699 95.148 12.6515 93.0468C9.31288 90.5953 6.66301 87.5369 4.70186 83.8714Z" fill="#56931F"/>
<path d="M135.188 28.4686C137.266 29.3792 139.075 32.4726 140.616 37.749C141.994 42.5352 142.46 45.9205 142.017 47.905C144.772 51.1035 147.457 57.3488 150.072 66.6409C153.037 77.0536 153.539 84.6297 151.577 89.3691C150.947 90.8867 149.103 92.9529 146.044 95.5677C142.869 98.3227 139.729 100.447 136.624 101.941L138.2 104.498C139.46 106.739 140.593 109.156 141.597 111.747C144.795 120.105 146.126 128.767 145.589 137.732C145.426 140.581 143.068 142.915 138.515 144.736C134.056 146.487 129.304 147.071 124.262 146.487C122.557 146.254 120.304 144.258 117.503 140.499C114.304 136.133 112.401 131.604 111.794 126.911C107.522 129.386 103.915 131.055 100.973 131.919L100.062 133.46C99.2686 134.721 98.3348 135.888 97.2608 136.962C93.8755 140.417 89.8715 142.343 85.2488 142.74C80.6495 143.137 77.0774 142.775 74.5326 141.655C73.7388 141.304 73.085 140.896 72.5714 140.429L72.0811 139.834L44.0998 140.779L41.2281 143.301C38.66 145.005 35.6949 145.904 32.333 145.997C27.7336 146.137 24.1148 145.717 21.4766 144.736C18.1614 143.476 15.8033 141.176 14.4025 137.837C12.3713 133.028 11.2974 127.518 11.1806 121.308C11.0172 113.23 12.8266 106.623 16.6088 101.486C20.2509 96.5367 25.002 91.4937 30.8621 86.3574C32.4964 84.9332 36.944 81.3144 44.2049 75.5011C47.917 72.5593 51.2206 69.711 54.1157 66.9561C57.0574 64.1544 58.8434 62.1466 59.4738 60.9326C60.1508 56.2865 61.038 51.5704 62.1353 46.7843C64.3533 37.2121 66.5012 32.0991 68.5791 31.4454C70.657 30.815 73.7154 31.4804 77.7544 33.4415C79.7623 34.4455 81.56 35.4961 83.1476 36.5934L85.529 35.7529C87.6302 35.1225 89.9299 34.5855 92.428 34.1419C100.413 32.7645 108.888 32.6828 117.853 33.8968C119.207 32.4493 122.195 31.0485 126.818 29.6944C131.277 28.3869 134.067 27.9784 135.188 28.4686Z" fill="#7CBEB3"/>
<path d="M141.527 42.4067L142.227 47.9049L138.62 42.5468C138.994 40.9825 139.157 38.8696 139.11 36.2081L138.9 32.7061C139.974 35.0174 140.85 38.251 141.527 42.4067Z" fill="#68A198"/>
<path d="M61.3298 48.6061C63.2209 39.9211 65.077 34.9015 66.8981 33.5474C66.4545 38.5903 66.3027 43.5749 66.4428 48.5011C66.5362 51.3961 66.8397 55.8087 67.3534 61.7388C67.6569 65.2642 67.295 68.3927 66.2677 71.1243C65.3572 73.5057 64.1665 75.1283 62.6956 75.9921C61.2481 76.8326 60.0574 76.6458 59.1236 75.4318C58.1196 74.101 57.7811 71.813 58.108 68.5678C58.7617 62.1007 59.8356 55.4468 61.3298 48.6061Z" fill="#68A198"/>
<path d="M124.542 137.627C126.339 140.989 128.487 143.091 130.986 143.931L129.655 146.593C126.129 147.293 123.013 146.371 120.304 143.826C117.059 140.721 114.187 135.083 111.689 126.911C107.65 129.363 103.168 131.195 98.2414 132.409C93.3853 133.623 87.5485 134.359 80.7312 134.616C79.6573 134.966 78.8751 135.713 78.3848 136.857C77.8946 137.954 77.8829 138.946 78.3498 139.834L76.3887 142.145L72.1862 139.588C72.303 138.795 72.9567 136.425 74.1474 132.479C75.3147 128.697 76.0501 125.417 76.3537 122.639C77.2408 114.327 74.9295 106.809 69.4196 100.085C74.3225 105.012 82.9142 108.105 95.1946 109.366C108.316 110.697 119.464 109.506 128.639 105.794C125.697 107.685 123.596 110.627 122.335 114.619C121.215 118.214 120.876 122.195 121.32 126.561C121.763 130.763 122.837 134.452 124.542 137.627Z" fill="#68A198"/>
<path d="M10.8305 117.526C11.8344 125.721 16.317 130.985 24.2783 133.32C27.3368 134.207 30.5586 134.534 33.9439 134.301C37.0257 134.091 39.5589 133.484 41.5434 132.48L44.0999 141.095C42.2788 142.869 39.8274 144.258 36.7456 145.262C30.582 147.27 24.3834 146.394 18.1497 142.636C15.138 140.814 12.9784 136.192 11.671 128.767C11.2507 126.269 10.9706 123.736 10.8305 121.168C10.7137 119.02 10.7137 117.806 10.8305 117.526Z" fill="#68A198"/>
<path d="M85.8092 60.4425C86.7197 60.279 87.6886 60.4308 88.7159 60.8977C85.1905 63.606 83.3461 67.7617 83.1827 73.365C83.0192 78.478 84.1866 83.2758 86.6847 87.7584C81.7818 87.2214 78.3265 86.1008 76.3187 84.3964C75.735 83.8828 75.4898 82.447 75.5832 80.0889C75.6766 77.6375 76.1085 75.0693 76.879 72.3844C78.8868 65.2403 81.8636 61.2596 85.8092 60.4425Z" fill="white"/>
<path d="M97.9262 73.785C99.0236 76.7267 99.7006 79.3766 99.9574 81.7346C100.238 84.2561 99.9574 85.9371 99.1169 86.7775C98.5566 87.3379 97.0507 87.7231 94.5993 87.9332C92.1012 88.12 89.463 88.0616 86.6847 87.7581C84.1866 83.2755 83.0192 78.4777 83.1827 73.3647C83.3461 67.7615 85.1905 63.6057 88.7159 60.8975C92.1946 62.5084 95.2647 66.8042 97.9262 73.785Z" fill="#D60040"/>
<path d="M138.935 58.6909C141.853 61.0723 143.593 64.6327 144.153 69.3721C144.503 72.3372 144.363 76.5046 143.733 81.8744C142.706 82.2713 141.713 82.5398 140.756 82.6799C139.776 82.8433 139.04 82.8433 138.55 82.6799C137.172 82.2363 136.484 78.7109 136.484 72.1037C136.46 65.3565 137.277 60.8855 138.935 58.6909Z" fill="#D60040"/>
<path d="M138.935 58.6916C139.355 58.1079 139.799 57.7693 140.266 57.676C142.53 57.1857 144.725 59.9523 146.85 65.9758C148.928 71.9526 149.336 76.2251 148.075 78.7933C147.492 80.0073 146.044 81.0346 143.733 81.8751C144.363 76.5053 144.503 72.3378 144.153 69.3728C143.593 64.6333 141.853 61.0729 138.935 58.6916Z" fill="white"/>
<path d="M118.378 55.1192C117.701 55.3761 115.938 54.664 113.09 52.983C110.102 51.2553 108.666 49.8428 108.783 48.7455C108.946 47.298 111.362 45.3019 116.032 42.757C120.771 40.1889 123.923 39.2433 125.487 39.9204C126.491 40.3406 125.966 42.8154 123.911 47.3447C121.834 51.8974 119.989 54.4889 118.378 55.1192Z" fill="#006359"/>
<path d="M102.794 58.1309C102.724 57.8274 103.074 57.2554 103.845 56.4149C104.638 55.5511 105.351 55.0375 105.981 54.874L106.751 55.9597C107.405 57.057 108.059 58.5979 108.712 60.5824L108.257 61.668C107.814 62.4618 107.265 63.0104 106.611 63.3139L104.93 61.703C103.763 60.4189 103.051 59.2282 102.794 58.1309Z" fill="#006359"/>
<path d="M129.865 65.7652C130.589 69.8976 130.647 72.209 130.04 72.6993C129.503 73.1429 127.869 72.9678 125.137 72.174C122.382 71.3802 120.818 70.6097 120.444 69.8626C120.561 68.135 121.448 65.9754 123.106 63.3839C124.81 60.7923 126.188 59.4966 127.238 59.4966C128.266 59.4966 129.141 61.5861 129.865 65.7652Z" fill="#006359"/>
<path d="M131.966 126.666C131.873 125.335 132.69 123.433 134.417 120.958C136.098 118.53 137.312 117.362 138.06 117.456C139.18 117.573 139.951 119.919 140.371 124.495C140.768 129.094 140.406 131.581 139.285 131.954C138.048 132.375 136.565 132.141 134.838 131.254C132.853 130.203 131.896 128.674 131.966 126.666Z" fill="#006359"/>
<path d="M20.9513 106.984L26.7297 107.23C29.3212 107.743 30.8154 108.315 31.2123 108.946C31.866 109.996 31.4341 112.214 29.9165 115.599C28.4223 118.961 27.1616 120.689 26.1343 120.782C25.2472 120.852 23.4494 119.965 20.7412 118.121C18.0096 116.276 16.6555 114.992 16.6788 114.269C16.7022 113.335 17.1574 112.004 18.0446 110.276C19.0252 108.338 19.9941 107.241 20.9513 106.984Z" fill="#006359"/>
<path d="M54.2558 76.9719C54.8628 78.0225 53.8823 80.9409 51.3141 85.727C48.7459 90.5131 46.7731 93.0579 45.3957 93.3614C44.1349 93.665 42.0804 93.1163 39.2321 91.7155C36.5472 90.4314 34.7611 89.2524 33.8739 88.1784C33.5938 87.8282 33.7805 86.8009 34.4343 85.0966L35.4849 82.6102L40.1776 78.898C43.3528 76.3999 45.1272 75.1041 45.5007 75.0107L49.8783 75.396C52.4464 75.8396 53.9056 76.3649 54.2558 76.9719Z" fill="#006359"/>
<path d="M89.8015 64.4351C90.5486 64.4351 91.2023 65.1705 91.7626 66.6413C92.3229 68.2056 92.5914 70.1551 92.5681 72.4898C92.5214 74.7077 92.2179 76.4587 91.6575 77.7428C91.1439 78.9102 90.5135 79.4938 89.7664 79.4938C89.066 79.4938 88.459 78.8635 87.9454 77.6027C87.3851 76.272 87.0815 74.591 87.0349 72.5598C86.9415 70.1084 87.1983 68.1122 87.8053 66.5713C88.3423 65.1471 89.0077 64.4351 89.8015 64.4351Z" fill="white"/>
<path d="M137.289 65.2056L137.99 62.0537C138.27 61.6802 138.538 61.5051 138.795 61.5284C139.215 61.5518 139.612 62.007 139.986 62.8942C140.523 64.0849 140.815 65.7659 140.861 67.9372C140.885 69.9917 140.698 71.591 140.301 72.735C139.927 73.7622 139.46 74.2759 138.9 74.2759C138.55 74.2759 138.2 74.019 137.849 73.5054C137.476 72.9451 137.219 72.2097 137.079 71.2991C136.799 69.6882 136.869 67.657 137.289 65.2056Z" fill="white"/>
<path d="M122.37 35.5082C115.973 34.2708 109.495 33.7922 102.934 34.0724C95.8834 34.3525 89.4046 35.4965 83.4978 37.5044C83.2877 37.5744 82.9958 37.3409 82.6223 36.8039C82.2254 36.267 82.132 35.9518 82.3421 35.8584C89.0427 33.5937 96.3036 32.3797 104.125 32.2163C110.989 32.0528 117.257 32.6949 122.931 34.1424C125.826 34.8895 127.203 35.4382 127.063 35.7884L122.37 35.5082Z" fill="#0D131A"/>
<path d="M141.281 45.2785C146.021 52.1425 149.476 60.1038 151.648 69.1624C153.539 77.0537 154.006 83.1589 153.048 87.4781C151.998 92.2642 146.768 97.1671 137.359 102.187C128.02 107.183 118.997 109.95 110.288 110.487C100.973 111.047 92.2062 110.276 83.9881 108.175C75.77 106.074 70.4702 103.237 68.0888 99.6652C67.3184 98.4979 67.0732 97.7858 67.3534 97.529C67.6569 97.2722 68.3456 97.7274 69.4196 98.8948C72.5714 102.35 78.1864 104.988 86.2644 106.809C93.9456 108.537 101.965 109.144 110.323 108.63C119.055 108.093 127.869 105.35 136.764 100.401C145.309 95.6379 150.048 91.1319 150.982 86.8828C151.963 82.4702 151.554 76.5167 149.756 69.0223C147.749 60.6408 144.538 53.0997 140.126 46.3992C138.305 43.6209 137.593 42.08 137.99 41.7765C138.363 41.473 139.46 42.6403 141.281 45.2785Z" fill="#0D131A"/>
<path d="M60.1392 61.3176C58.5983 64.2126 55.4815 67.6563 50.7887 71.6486C47.9871 74.0067 43.271 77.7422 36.6405 82.8552C30.5936 87.6646 25.9243 91.9021 22.6323 95.5676C18.103 100.611 15.0913 105.572 13.5971 110.451C11.7994 116.311 11.706 122.895 13.3169 130.203C14.8111 137.09 16.9357 141.339 19.6906 142.95C22.6557 144.678 26.648 145.437 31.6676 145.227C36.8506 145.016 40.4344 143.802 42.4189 141.584C45.4773 138.152 46.668 132.596 45.991 124.915C45.2905 117.07 42.9092 110.813 38.8468 106.144C37.2592 104.299 36.5821 103.179 36.8156 102.782C37.0491 102.385 38.0413 103.12 39.7923 104.988C44.9053 110.475 47.7536 117.187 48.3373 125.125C48.8743 132.666 47.2984 138.503 43.6096 142.635C41.3916 145.133 37.3993 146.534 31.6326 146.837C26.0527 147.141 21.6284 146.336 18.3598 144.421C15.0446 142.483 12.6165 137.907 11.0756 130.693C9.51135 123.269 9.66311 116.405 11.5309 110.101C12.955 105.338 15.7683 100.564 19.9708 95.7777C23.0292 92.2757 27.4535 88.1783 33.2435 83.4855L47.6019 71.8588C52.7849 67.3995 56.6488 63.3021 59.1936 59.5666C59.3104 59.4032 59.5205 59.6016 59.824 60.1619C60.1509 60.7456 60.2559 61.1308 60.1392 61.3176Z" fill="#0D131A"/>
<path d="M68.7192 30.3948C70.1667 29.9279 72.6064 30.3948 76.0385 31.7956C79.4938 33.2198 82.3305 34.9592 84.5484 37.0137C86.2994 38.648 86.9765 39.5702 86.5796 39.7803C86.206 40.0138 85.1321 39.4418 83.3577 38.0643C81.0697 36.3366 78.4198 34.8774 75.4081 33.6867C72.4664 32.4961 70.4936 32.0758 69.4896 32.426C67.8553 32.963 65.9642 37.1071 63.8163 44.8583C61.5517 53.053 60.0808 61.6447 59.4038 70.6333C59.217 73.2248 58.8901 74.4155 58.4232 74.2054C57.9329 73.9952 57.7344 72.7695 57.8278 70.5282C58.1313 62.7537 59.2987 54.6173 61.3299 46.119C63.6412 36.5001 66.1043 31.2587 68.7192 30.3948Z" fill="#0D131A"/>
<path d="M116.732 33.4066C118.763 31.8657 121.88 30.3949 126.083 28.9941C130.822 27.4065 134.114 27.0329 135.958 27.8734C137.779 28.6906 139.437 31.4338 140.931 36.1032C142.309 40.4457 143.079 44.8116 143.243 49.2009C143.243 49.411 142.951 49.1892 142.367 48.5355C141.76 47.8817 141.457 47.4382 141.457 47.2047C141.316 43.656 140.499 39.9204 139.005 35.9982C137.581 32.2626 136.262 30.1147 135.048 29.5544C133.904 29.0408 131.289 29.3676 127.203 30.535C123.071 31.7023 120.129 32.9514 118.378 34.2822C118.215 34.4222 117.853 34.3522 117.292 34.072C116.755 33.7685 116.569 33.5467 116.732 33.4066Z" fill="#0D131A"/>
<path d="M118.028 54.1389C119.172 54.1156 120.771 51.9327 122.826 47.5901C124.857 43.3176 125.616 41.053 125.102 40.7962C123.958 40.2125 121.121 41.0647 116.592 43.3527C112.039 45.6407 109.751 47.4034 109.728 48.6407C109.705 49.4112 110.709 50.4968 112.74 51.8976C114.818 53.2985 116.58 54.0456 118.028 54.1389ZM115.226 42.4071C120.199 39.7222 123.748 38.5782 125.873 38.9751C126.596 39.1152 126.806 40.0724 126.503 41.8468C126.223 43.4811 125.592 45.3955 124.612 47.5901C122.16 53.0533 119.966 55.7382 118.028 55.6448C116.487 55.5514 114.433 54.6643 111.864 52.9833C109.179 51.2323 107.837 49.7497 107.837 48.5357C107.837 47.1115 110.3 45.0687 115.226 42.4071Z" fill="#0D131A"/>
<path d="M108.012 60.7927C108.082 60.6059 107.825 59.7421 107.242 58.2012C106.658 56.637 106.238 55.8432 105.981 55.8198C105.771 55.7965 105.304 56.1117 104.58 56.7654C103.856 57.4191 103.495 57.9094 103.495 58.2362C103.518 58.5397 104.008 59.3335 104.965 60.6176C105.923 61.855 106.483 62.4737 106.646 62.4737C106.786 62.4737 107.032 62.2402 107.382 61.7733L108.012 60.7927ZM108.082 57.1156C108.806 58.8433 109.18 60.0223 109.203 60.6526C109.226 61.1663 108.853 61.8667 108.082 62.7539C107.288 63.6644 106.693 64.0263 106.296 63.8395C105.829 63.6294 105.024 62.7655 103.88 61.248C102.642 59.637 102.07 58.5281 102.164 57.921C102.257 57.2907 102.806 56.4969 103.81 55.5397C104.814 54.6291 105.572 54.1855 106.086 54.2089C106.623 54.2556 107.288 55.2245 108.082 57.1156Z" fill="#0D131A"/>
<path d="M126.993 60.5125C126.269 60.4658 125.079 61.8316 123.421 64.6099C121.81 67.3648 121.098 69.0108 121.285 69.5478C121.472 70.038 122.791 70.6334 125.242 71.3338C127.717 72.0342 129.129 72.221 129.48 71.8941C130.017 71.3805 129.912 69.361 129.164 65.8356C128.417 62.3336 127.694 60.5592 126.993 60.5125ZM122.23 63.4542C124.262 59.9522 125.861 58.2595 127.028 58.3763C128.499 58.5163 129.678 60.9444 130.565 65.6605C131.429 70.3532 131.359 72.9447 130.355 73.435C129.491 73.8786 127.589 73.6101 124.647 72.6296C121.752 71.6723 120.164 70.8552 119.884 70.1781C119.44 69.1742 120.223 66.9329 122.23 63.4542Z" fill="#0D131A"/>
<path d="M77.7195 67.4816C80.4511 61.9484 83.3811 59.3568 86.5096 59.707C90.9222 60.2207 94.7161 63.9445 97.8912 70.8786C99.222 73.8203 100.098 76.727 100.518 79.5986C100.961 82.587 100.81 84.9684 100.063 86.7428C99.6656 87.7234 98.1714 88.3771 95.5799 88.7039C93.1985 88.9841 90.4319 88.9608 87.2801 88.6339C84.1049 88.3071 81.3966 87.7351 79.1553 86.9179C76.6805 86.0541 75.3381 85.0618 75.128 83.9412C74.0774 78.6181 74.9412 73.1315 77.7195 67.4816ZM94.1791 67.9719C91.7276 63.8161 89.1128 61.5865 86.3345 61.283C85.2372 61.1662 84.0465 61.7733 82.7624 63.104C80.8246 65.1119 79.2604 68.0069 78.0697 71.7891C76.809 75.8982 76.4354 79.8321 76.949 83.591C77.1358 85.0385 80.6262 86.1358 87.4201 86.8829C94.2141 87.6533 97.9029 87.3615 98.4866 86.0074C99.0936 84.5365 98.9885 81.9684 98.1714 78.3029C97.3076 74.474 95.9768 71.0303 94.1791 67.9719Z" fill="#0D131A"/>
<path d="M145.764 65.1701C144.013 60.8276 142.25 58.6564 140.476 58.6564C138.912 58.6564 137.955 62.3568 137.604 69.7578C137.254 77.1121 137.698 81.1511 138.935 81.8749C139.752 82.3418 141.293 82.085 143.558 81.1044C145.822 80.1239 147.048 79.2017 147.235 78.3378C148.146 74.2054 147.655 69.8162 145.764 65.1701ZM135.958 69.1625C136.355 61.0844 137.861 57.0454 140.476 57.0454C142.741 57.0454 144.935 59.4618 147.06 64.2946C149.278 69.3843 149.897 74.1354 148.916 78.5479C148.566 80.0421 146.838 81.3729 143.733 82.5403C140.721 83.6843 138.807 83.9061 137.99 83.2057C137.219 82.5753 136.647 80.8476 136.274 78.0226C135.9 75.3144 135.795 72.361 135.958 69.1625Z" fill="#0D131A"/>
<path d="M45.1154 74.3452L51.244 74.7304C53.6254 75.1507 54.9912 75.6993 55.3414 76.3764C55.9718 77.6605 54.8278 80.9524 51.9094 86.2522C48.991 91.5986 46.7614 94.2718 45.2205 94.2718C43.7496 94.2718 41.3449 93.5364 38.0063 92.0655C34.4809 90.5246 32.7182 89.2639 32.7182 88.2833C32.7182 87.723 32.975 86.8825 33.4887 85.7619L35.1696 82.47C35.2864 82.2832 35.6015 82.1664 36.1152 82.1198C36.6522 82.0964 36.8623 82.1781 36.7455 82.3649C36.1152 83.5322 35.6132 84.6646 35.2397 85.7619C34.9128 86.7191 34.7494 87.4078 34.7494 87.8281C34.8428 88.4584 36.3487 89.4273 39.267 90.7348C42.1153 92.0189 44.0882 92.6726 45.1855 92.6959C46.2127 92.3691 47.8937 89.9877 50.2284 85.5517C52.5631 81.1158 53.567 78.4076 53.2402 77.427C53.0534 77.0301 52.0495 76.6566 50.2284 76.3064L44.8002 75.9211C44.5668 75.9445 44.5084 75.6877 44.6251 75.1507C44.7419 74.6371 44.9053 74.3686 45.1154 74.3452Z" fill="#0D131A"/>
<path d="M21.2665 107.614C20.5427 107.964 19.7139 108.933 18.7801 110.521C17.8462 112.085 17.4143 113.171 17.4843 113.778C17.5777 114.408 18.8151 115.564 21.1965 117.245C23.5778 118.926 25.1187 119.72 25.8192 119.626C26.5196 119.533 27.6052 117.922 29.0761 114.793C30.5469 111.665 31.0956 109.902 30.722 109.505C30.3018 109.085 28.7725 108.595 26.1343 108.035C23.4494 107.474 21.8268 107.334 21.2665 107.614ZM17.3792 109.61C18.4765 107.789 19.5155 106.622 20.4961 106.108L26.5546 106.389C29.9165 107.019 31.8777 107.778 32.438 108.665C32.9516 109.482 32.368 111.77 30.687 115.529C29.006 119.264 27.6285 121.331 26.5546 121.728C25.7374 122.054 23.8113 121.156 20.7762 119.031C17.6944 116.883 16.0718 115.202 15.9084 113.988C15.7916 112.937 16.2819 111.478 17.3792 109.61Z" fill="#0D131A"/>
<path d="M132.737 126.596V126.631C132.783 128.568 133.729 129.981 135.573 130.868C137.231 131.662 138.351 131.79 138.935 131.253C139.542 130.693 139.752 128.568 139.566 124.88C139.379 121.121 138.83 119.031 137.92 118.611C137.429 118.401 136.437 119.451 134.943 121.763C133.472 124.074 132.737 125.685 132.737 126.596ZM133.752 120.572C135.55 117.7 136.939 116.276 137.92 116.3C139.507 116.323 140.499 118.856 140.896 123.899C141.293 128.849 140.966 131.709 139.916 132.479C139.052 133.133 137.476 133.016 135.188 132.129C132.573 131.102 131.231 129.386 131.161 126.981C131.137 125.533 132.001 123.397 133.752 120.572Z" fill="#0D131A"/>
<path d="M149.126 85.8326C149.103 86.7432 148.974 87.4903 148.741 88.0739L148.04 89.2296C146.896 90.5837 144.165 92.2881 139.846 94.3426C135.386 96.4672 131.522 97.8563 128.254 98.51C122.3 99.7241 113.16 99.8291 100.833 98.8252C88.5057 97.8446 80.7195 96.3738 77.4743 94.4126C76.9373 94.0624 76.447 93.4904 76.0034 92.6966C75.6065 92.0196 75.3147 91.2725 75.1279 90.4553C74.7777 88.9845 74.7544 88.1557 75.0579 87.9689C75.3614 87.7821 75.84 88.4592 76.4937 90.0001C76.8906 90.9106 77.3108 91.611 77.7544 92.1013L79.1553 93.1519C81.7701 94.5761 88.7625 95.8368 100.132 96.9341C112.436 98.1248 121.705 98.0898 127.939 96.8291C130.74 96.2454 134.067 95.113 137.92 93.4321C141.492 91.8678 144.165 90.4437 145.939 89.1596C146.593 88.6693 147.072 88.1673 147.375 87.6537C147.702 87.1167 147.912 86.463 148.005 85.6926C148.169 84.2917 148.402 83.638 148.706 83.7314C149.009 83.8481 149.149 84.5486 149.126 85.8326Z" fill="#0D131A"/>
<path d="M96.0351 57.0804C96.8523 57.8275 97.6461 58.738 98.4165 59.812C99.2337 60.9326 99.8173 61.9482 100.168 62.8588C100.681 64.1662 100.705 64.9016 100.238 65.065C99.7473 65.2051 99.1987 64.6915 98.5916 63.5241C97.5877 61.5396 96.362 59.7419 94.9145 58.131C93.5604 56.5668 93.0234 55.6562 93.3035 55.3994C93.6071 55.1426 94.5176 55.7029 96.0351 57.0804Z" fill="#0D131A"/>
<path d="M135.503 57.3259C135.06 58.61 134.779 59.9874 134.663 61.4583C134.569 62.7424 134.277 63.3727 133.787 63.3494C133.297 63.3494 133.087 62.719 133.157 61.4583C133.227 59.9174 133.624 58.3998 134.347 56.9056C135.001 55.5749 135.48 54.9445 135.783 55.0145C136.063 55.1079 135.97 55.8784 135.503 57.3259Z" fill="#0D131A"/>
<path d="M120.129 94.0268C119.616 93.7699 119.207 93.4431 118.903 93.0462C118.6 92.6726 118.495 92.4042 118.588 92.2407L119.674 92.2757C120.351 92.4158 120.853 92.6376 121.18 92.9411C121.6 93.3614 121.682 93.7233 121.425 94.0268C121.168 94.3303 120.736 94.3303 120.129 94.0268Z" fill="#0D131A"/>
<path d="M132.071 92.2758C131.581 92.8828 131.137 93.0929 130.74 92.9061C130.343 92.7194 130.32 92.3341 130.67 91.7505C130.927 91.3302 131.336 90.9567 131.896 90.6298C132.41 90.303 132.736 90.1979 132.877 90.3146C132.97 90.408 132.947 90.6532 132.806 91.0501L132.071 92.2758Z" fill="#0D131A"/>
<path d="M89.9767 61.0729C90.1868 61.1429 90.2802 61.4814 90.2568 62.0885C90.2335 62.6955 90.1284 62.9406 89.9416 62.8239C88.7509 62.0768 87.6303 62.6488 86.5797 64.5399C85.5991 66.2676 84.922 68.6606 84.5485 71.7191C84.1516 74.8709 84.1983 77.8126 84.6886 80.5442C85.2722 83.6494 86.3579 85.8673 87.9455 87.1981C88.1322 87.3382 88.0155 87.5483 87.5953 87.8285C87.175 88.0853 86.8715 88.1436 86.6847 88.0036C84.7703 86.5794 83.4512 84.2214 82.7274 80.9294C82.0971 77.9644 82.027 74.7892 82.5173 71.4039C83.0076 68.0653 83.9065 65.4037 85.2139 63.4192C86.638 61.2947 88.2256 60.5125 89.9767 61.0729Z" fill="#0D131A"/>
<path d="M138.34 58.9712C139.157 58.3408 140.102 58.6093 141.176 59.7767C142.25 60.9207 143.173 62.625 143.943 64.8897C145.857 70.563 145.939 76.1429 144.188 81.6294C144.118 81.8395 143.85 81.9913 143.383 82.0847C142.916 82.1547 142.706 82.0847 142.752 81.8746C144.177 77.4386 144.223 72.4074 142.892 66.7808C142.355 64.5161 141.69 62.7301 140.896 61.4226C140.102 60.0919 139.379 59.6016 138.725 59.9518C138.538 60.0685 138.386 59.9634 138.27 59.6366C138.153 59.3331 138.176 59.1113 138.34 58.9712Z" fill="#0D131A"/>
<path d="M135.748 102.467C135.632 102.28 135.877 102 136.484 101.627C137.067 101.23 137.406 101.125 137.499 101.311C144.13 112.028 147.083 124.53 146.359 138.818C146.289 140.149 145.274 141.526 143.313 142.951C141.445 144.305 139.134 145.437 136.379 146.348C129.701 148.542 124.682 148.46 121.32 146.102C119.102 144.538 116.802 141.55 114.421 137.137C112.133 132.911 110.966 129.701 110.919 127.507C110.919 127.296 111.246 127.063 111.899 126.806L112.845 126.701C112.892 128.872 113.977 131.943 116.102 135.912C118.367 140.137 120.643 143.056 122.931 144.667C125.849 146.698 130.25 146.756 136.134 144.842C138.515 144.071 140.523 143.114 142.157 141.97C143.861 140.803 144.737 139.729 144.784 138.748C145.461 125.394 142.449 113.3 135.748 102.467Z" fill="#0D131A"/>
<path d="M116.172 124.67C110.125 129.409 102.911 132.619 94.5293 134.3C86.7548 135.841 79.8091 135.759 73.6922 134.055C73.482 133.985 73.447 133.623 73.5871 132.969C73.7038 132.339 73.8673 132.047 74.0774 132.094C80.0775 133.775 86.7898 133.88 94.2141 132.409C101.755 130.915 108.596 128.078 114.736 123.899C117.071 122.312 118.367 121.681 118.623 122.008C118.857 122.312 118.04 123.199 116.172 124.67Z" fill="#0D131A"/>
<path d="M99.8174 131.744C99.9341 131.557 100.471 131.393 101.428 131.253L102.689 131.358C100.868 134.347 98.615 136.95 95.9301 139.168C92.8483 141.713 89.8249 143.172 86.8598 143.546L76.3537 143.23C73.5987 142.553 71.9761 141.526 71.4858 140.149C71.4158 139.938 71.5909 139.588 72.0111 139.098C72.408 138.584 72.6415 138.433 72.7115 138.643C73.1785 139.95 74.6143 140.931 77.0191 141.584C79.6339 142.308 82.8441 142.437 86.6497 141.97C88.8676 141.69 91.214 140.581 93.6888 138.643C96.1402 136.728 98.1831 134.429 99.8174 131.744Z" fill="#0D131A"/>
<path d="M18.3248 17.0523C18.5116 16.9122 18.9668 16.9122 19.6906 17.0523C20.8112 17.2624 21.7918 17.7644 22.6323 18.5582C22.8191 18.6983 22.8308 18.9201 22.6673 19.2236C22.5272 19.5038 22.3638 19.5738 22.177 19.4337C21.6868 19.0135 21.2081 18.7333 20.7412 18.5932L20.0758 18.5582L20.2159 19.6789L20.426 21.7801C20.4961 24.9553 19.4571 29.111 17.3092 34.2474C15.6282 38.3331 13.4686 42.5589 10.8304 46.9247C2.51891 60.7228 0.686178 72.6297 5.33222 82.6456C7.08324 86.4278 9.59304 89.5212 12.8616 91.926C15.7566 94.0272 18.5349 95.1712 21.1965 95.358C21.4066 95.3813 21.3716 95.6498 21.0914 96.1634C20.8346 96.7004 20.5894 96.9572 20.356 96.9339C17.2508 96.7238 14.1457 95.4981 11.0405 93.2567C7.5852 90.7353 4.95867 87.4667 3.16095 83.451C-1.50844 73.0383 0.511076 60.6294 9.21949 46.2243C13.3285 39.407 16.1185 33.8038 17.5894 29.4145C19.1536 24.7685 19.4104 20.998 18.3598 18.1029C18.1497 17.566 18.138 17.2158 18.3248 17.0523Z" fill="#0D131A"/>
<path d="M36.4654 15.8261C36.6288 15.9895 36.6288 16.2463 36.4654 16.5965C36.3019 16.9701 36.1385 17.0751 35.9751 16.9117C34.2241 15.0906 31.9477 13.6314 29.1461 12.5341C26.5079 11.5302 24.1382 11.0866 22.037 11.2034C21.0564 11.2734 20.5311 11.4018 20.461 11.5886C20.391 11.752 20.6245 12.254 21.1615 13.0945C23.7063 17.1101 23.7763 23.0403 21.3716 30.8848C20.0641 35.0873 18.0213 40.317 15.243 46.574C11.1339 57.3836 10.8071 67.0259 14.2624 75.5008C15.6866 79.0029 17.6594 81.9679 20.1809 84.396C22.5156 86.6607 25.037 88.1899 27.7453 88.9837C27.9321 89.0304 27.792 89.2639 27.325 89.6841C26.8581 90.081 26.5196 90.2561 26.3095 90.2094C19.1419 88.1082 14.2274 82.7617 11.5659 74.1701C8.78758 65.2749 9.46464 55.796 13.597 45.7335L16.6788 38.7644C18.1497 35.3558 19.2587 32.379 20.0058 29.8342C22.2938 22.1764 22.0253 16.5381 19.2003 12.9194C18.2431 11.682 17.7995 10.8882 17.8695 10.538C17.9396 10.1411 18.64 9.86091 19.9708 9.69749C22.4689 9.37063 25.2705 9.75585 28.3757 10.8532C31.6676 12.0205 34.3642 13.6781 36.4654 15.8261Z" fill="#0D131A"/>
<path d="M34.0139 9.06745L35.3097 10.1181C35.4498 10.2815 35.4148 10.62 35.2046 11.1337C34.9945 11.6239 34.8194 11.7874 34.6793 11.6239L33.9439 10.7484C33.5237 10.3282 33.2085 10.1648 32.9984 10.2581C32.8116 10.3515 32.7415 10.655 32.7882 11.1687L33.1034 13.1648C33.1501 13.3516 32.9633 13.445 32.5431 13.445C32.1228 13.4217 31.901 13.3049 31.8777 13.0948L31.5275 10.9235C31.4341 9.73283 31.6209 8.95071 32.0878 8.57716C32.4847 8.27365 33.1268 8.43708 34.0139 9.06745Z" fill="#0D131A"/>
<path d="M87.7353 18.9431C92.7549 22.9821 95.3931 27.8616 95.6499 33.5816C95.6732 33.8151 95.3697 33.9902 94.7394 34.1069C94.109 34.247 93.7938 34.2003 93.7938 33.9668C93.5603 28.7371 91.2023 24.2195 86.7197 20.4139C81.3265 15.8379 73.7855 13.3748 64.0965 13.0246C55.8083 12.7211 49.8782 11.7989 46.3061 10.258C43.4111 9.02064 41.3215 6.93109 40.0375 3.98938C39.7573 3.35901 39.5238 3.02048 39.3371 2.97378C39.1269 2.90374 38.7884 3.13721 38.3215 3.67419C36.7572 5.40187 35.835 7.51476 35.5548 10.0129C35.2747 12.581 35.8117 14.5772 37.1658 16.0014C39.8974 18.803 42.057 22.1066 43.6446 25.9122C44.6251 28.2702 45.8158 32.2042 47.2166 37.714C48.921 44.4146 50.8004 49.3992 52.8549 52.6678C54.5126 55.306 56.9406 57.6873 60.1392 59.8119C60.2793 59.882 60.1859 60.2205 59.859 60.8275C59.5555 61.4112 59.3104 61.6447 59.1236 61.5279C55.0145 58.8197 52.0611 55.948 50.2634 52.9129C48.6058 50.1113 47.0065 45.5586 45.4656 39.2549C43.808 32.4143 42.5706 27.9667 41.7535 25.9122C40.4927 22.6669 38.59 19.7252 36.0451 17.087C34.2241 15.1959 33.6404 12.4059 34.2941 8.71713C34.9245 5.23844 36.1969 2.75199 38.1113 1.25778C38.9752 0.580721 39.5822 0.277211 39.9324 0.347252C40.2826 0.417293 40.6211 0.907579 40.948 1.81811C42.3488 5.46023 44.3566 7.86497 46.9715 9.03231C49.9132 10.3164 55.6332 11.1219 64.1315 11.4487C74.124 11.7989 81.9919 14.297 87.7353 18.9431Z" fill="#0D131A"/>
<path d="M97.9613 20.6943C102.421 24.5232 104.347 28.6672 103.74 33.1265C103.716 33.3366 103.366 33.43 102.689 33.4067C102.012 33.3833 101.685 33.2666 101.708 33.0565C102.222 29.2276 100.705 25.6321 97.1558 22.2702C93.0701 18.4179 87.3851 16.2233 80.1008 15.6864C79.8674 15.663 79.1903 15.3828 78.0697 14.8459C76.9257 14.2855 76.4587 14.0054 76.6688 14.0054C85.6808 14.0054 92.7782 16.235 97.9613 20.6943Z" fill="#0D131A"/>
<path d="M42.664 110.942C43.9248 106.016 45.6875 102.327 47.9521 99.8755L73.9022 107.44C76.1669 116.078 76.3887 124.308 74.5676 132.129C73.4703 136.775 71.7543 140.919 69.4196 144.562C68.1589 146.546 65.5907 147.853 61.7151 148.484C57.6294 149.161 53.6955 148.752 49.9133 147.258C47.1583 146.184 44.9987 143.558 43.4345 139.379C41.987 135.573 41.2049 131.009 41.0881 125.686C40.9714 120.479 41.4967 115.565 42.664 110.942Z" fill="#7CBEB3"/>
<path d="M48.2322 120.572C48.3723 119.148 50.0883 117.222 53.3802 114.794C56.6722 112.366 58.7617 111.49 59.6489 112.167C60.5594 112.844 60.7345 116.533 60.1742 123.234C59.6139 129.934 58.7617 133.331 57.6177 133.425C56.9406 133.471 55.1896 131.604 52.3646 127.821C49.5163 123.992 48.1388 121.576 48.2322 120.572Z" fill="#006359"/>
<path d="M41.9987 112.413C42.1154 122.428 44.3684 130.775 48.7576 137.452C52.9601 143.919 58.2131 147.48 64.5168 148.133C61.9486 148.787 59.1703 148.997 56.1819 148.764C50.2051 148.297 46.1778 145.822 44.0999 141.339C42.022 136.88 41.0531 130.717 41.1932 122.849L41.9987 112.413Z" fill="#68A198"/>
<path d="M46.4463 103.728C43.4112 108.934 42.0337 116.393 42.3138 126.106C42.6174 136.215 44.7419 142.717 48.6876 145.612C51.3725 147.573 54.9679 148.355 59.4738 147.959C63.8164 147.562 66.6881 146.371 68.0889 144.386C71.2641 139.88 73.3419 134.441 74.3225 128.067C75.2097 122.324 75.0929 116.86 73.9723 111.677C73.412 109.086 73.3419 107.697 73.7622 107.51C74.1824 107.323 74.7427 108.491 75.4432 111.012C76.8907 116.265 77.1825 121.95 76.3187 128.067C75.3848 134.721 73.2485 140.429 69.9099 145.192C68.1823 147.643 64.6102 149.079 59.1937 149.499C53.8939 149.896 49.9016 149.114 47.2167 147.153C45.2789 145.729 43.6796 143.207 42.4189 139.589C41.2049 136.133 40.4694 132.164 40.2126 127.682C39.5823 117.502 41.1932 109.273 45.0454 102.992C46.3996 100.774 47.3334 99.7121 47.8471 99.8055C48.3841 99.8755 47.9171 101.183 46.4463 103.728Z" fill="#0D131A"/>
<path d="M49.0727 120.222C49.026 121.039 50.2284 123.327 52.6798 127.086C55.178 130.915 56.7772 132.783 57.4776 132.689C58.2481 132.573 58.8784 129.409 59.3687 123.199C59.859 116.965 59.7423 113.592 59.0185 113.078C58.3415 112.611 56.5204 113.487 53.5553 115.705C50.6136 117.923 49.1194 119.428 49.0727 120.222ZM47.4618 119.872C47.5318 118.168 49.4813 116.02 53.3102 113.428C57.0691 110.907 59.322 109.996 60.0691 110.697C61.3065 111.887 61.6567 115.938 61.1198 122.849C60.5594 129.759 59.5672 133.623 58.143 134.44C57.1624 135.024 55.1196 133.18 52.0144 128.907C48.9093 124.658 47.3917 121.646 47.4618 119.872Z" fill="#0D131A"/>
<path d="M21.0564 144.631C20.9397 144.281 21.3832 143.686 22.3872 142.845C23.4144 142.005 24.1849 141.62 24.6985 141.69C25.6324 141.806 26.2744 142.822 26.6246 144.736C26.9515 146.511 26.9748 147.526 26.6947 147.783C26.3678 148.087 25.4573 147.9 23.9631 147.223C22.3521 146.499 21.3832 145.635 21.0564 144.631Z" fill="white"/>
<path d="M31.4925 147.258C29.8582 146.511 29.0411 145.764 29.0411 145.017C29.0411 144.363 29.5197 143.569 30.4769 142.635C31.4108 141.701 32.1229 141.351 32.6132 141.585C33.3836 141.958 34.014 143.056 34.5043 144.877C34.9712 146.628 34.9945 147.643 34.5743 147.923C34.1307 148.227 33.1034 148.005 31.4925 147.258Z" fill="white"/>
<path d="M36.9906 145.122C36.8272 143.908 37.2708 142.787 38.3214 141.76L39.9674 140.569C40.8312 140.943 41.5083 142.064 41.9986 143.931C42.4422 145.612 42.5472 146.593 42.3137 146.873L39.5471 146.803C37.9128 146.406 37.0607 145.846 36.9906 145.122Z" fill="white"/>
<path d="M50.7537 148.063C50.707 147.456 50.9172 146.803 51.3841 146.102C51.9444 145.262 52.6565 144.853 53.5204 144.876C54.3842 144.9 55.0496 145.227 55.5165 145.857C55.8901 146.441 56.0535 147.153 56.0068 147.993C55.9601 148.764 55.6916 149.628 55.2013 150.585C54.7344 151.542 54.3608 152.021 54.0807 152.021C53.7772 152.021 53.1701 151.519 52.2596 150.515C51.3024 149.464 50.8004 148.647 50.7537 148.063Z" fill="white"/>
<path d="M57.7228 148.833C57.6528 147.689 57.9679 146.744 58.6684 145.997C59.2287 145.366 59.789 145.051 60.3493 145.051C60.7696 145.051 61.2599 145.366 61.8202 145.997C62.3805 146.651 62.7307 147.304 62.8708 147.958C62.9642 148.378 62.8591 149.102 62.5556 150.129C62.2521 151.227 61.8902 151.88 61.47 152.09C61.0497 152.324 60.3493 152.067 59.3688 151.32C58.3182 150.549 57.7695 149.721 57.7228 148.833Z" fill="white"/>
<path d="M64.6218 148.624C63.9681 147.923 64.0264 146.861 64.7969 145.437C65.5673 144.013 66.3261 143.406 67.0732 143.616C67.7736 143.849 68.4507 144.83 69.1044 146.557C69.7114 148.215 69.8632 149.277 69.5597 149.744C69.2795 150.165 68.5558 150.258 67.3884 150.024C66.1977 149.768 65.2755 149.301 64.6218 148.624Z" fill="white"/>
<path d="M76.5288 142.25C76.4354 141.76 76.8906 141.153 77.8946 140.429C78.8751 139.729 79.5872 139.472 80.0308 139.659C80.8013 140.009 81.3032 140.989 81.5367 142.6C81.7702 144.165 81.6768 145.04 81.2565 145.227C80.8363 145.414 80.0075 145.192 78.7701 144.561C77.4393 143.861 76.6922 143.091 76.5288 142.25Z" fill="white"/>
<path d="M86.0193 144.632C84.5952 144.141 83.7663 143.581 83.5329 142.951C83.3227 142.414 83.6846 141.643 84.6185 140.639C85.5524 139.659 86.2294 139.262 86.6497 139.449C87.4668 139.799 88.0388 140.698 88.3657 142.145C88.6458 143.406 88.6692 144.27 88.4357 144.737L86.0193 144.632Z" fill="white"/>
<path d="M89.8365 141.725C89.5564 141.164 89.9533 140.359 91.0272 139.308C92.0778 138.281 92.8366 137.861 93.3035 138.047C93.8405 138.281 94.3658 139.133 94.8795 140.604C95.3697 142.052 95.4982 142.939 95.2647 143.266L92.6031 143.196C91.0622 142.822 90.14 142.332 89.8365 141.725Z" fill="white"/>
<path d="M129.55 147.118C129.223 146.791 129.48 145.951 130.32 144.597C131.161 143.219 131.873 142.542 132.456 142.566C133.227 142.612 134.091 143.453 135.048 145.087C135.958 146.628 136.309 147.538 136.098 147.819C135.842 148.145 134.849 148.251 133.122 148.134C131.324 148.017 130.133 147.679 129.55 147.118Z" fill="white"/>
<path d="M137.184 145.192C136.857 144.842 137.067 143.966 137.814 142.565C138.538 141.164 139.169 140.487 139.706 140.534C140.219 140.581 140.943 141.398 141.877 142.985C142.764 144.55 143.126 145.507 142.962 145.857C142.752 146.207 141.9 146.336 140.406 146.242C138.818 146.149 137.744 145.799 137.184 145.192Z" fill="white"/>
<path d="M143.033 141.97C142.659 141.503 142.776 140.616 143.383 139.308C143.966 138.048 144.433 137.441 144.784 137.487C145.391 137.557 146.138 138.328 147.025 139.799C147.889 141.246 148.216 142.157 148.005 142.53C147.842 142.927 147.107 143.079 145.799 142.986C144.422 142.892 143.499 142.554 143.033 141.97Z" fill="white"/>
<path d="M22.5623 142.636L24.1032 144.562C25.1304 145.986 25.7024 147.095 25.8192 147.889L23.3677 146.628C21.7568 145.718 20.998 145.064 21.0914 144.667C21.1848 144.27 21.465 143.815 21.9319 143.301L22.5623 142.636Z" fill="#DBDCDC"/>
<path d="M30.4419 142.775L31.7727 144.421C32.7065 145.728 33.3252 146.907 33.6287 147.958C30.7571 146.954 29.2862 145.962 29.2162 144.981C29.1695 144.374 29.3563 143.826 29.7765 143.335L30.4419 142.775Z" fill="#DBDCDC"/>
<path d="M41.4383 147.118C39.9441 146.791 38.8701 146.464 38.2164 146.138C37.4693 145.787 37.0491 145.355 36.9557 144.842C36.8623 144.398 36.9557 143.885 37.2358 143.301L37.6911 142.565C38.3215 142.869 39.0919 143.616 40.0025 144.807C40.7729 145.834 41.2515 146.604 41.4383 147.118Z" fill="#DBDCDC"/>
<path d="M52.1545 145.612L52.5047 147.748C52.8082 149.359 53.1818 150.62 53.6254 151.53L52.2946 150.375C51.4308 149.417 51.0222 148.437 51.0689 147.433C51.1156 146.733 51.2907 146.219 51.5942 145.892C51.8277 145.635 52.0145 145.542 52.1545 145.612Z" fill="#DBDCDC"/>
<path d="M58.4583 146.732L59.7891 148.904L61.5401 152.126C60.8864 151.915 60.2326 151.612 59.5789 151.215C58.2715 150.421 57.6645 149.569 57.7579 148.659C57.8513 147.771 57.9913 147.188 58.1781 146.908L58.4583 146.732Z" fill="#DBDCDC"/>
<path d="M64.7969 145.472L66.4429 147.048C67.6102 148.239 68.3223 149.231 68.5791 150.025L66.4079 149.324C64.9603 148.764 64.2599 148.215 64.3066 147.678L64.5868 146.103L64.7969 145.472Z" fill="#DBDCDC"/>
<path d="M77.6844 140.674C77.8945 140.814 78.3381 141.339 79.0152 142.25C79.8557 143.394 80.3226 144.316 80.416 145.016L77.8945 143.826C77.2408 143.429 76.9023 142.927 76.8789 142.32C76.8556 141.876 76.984 141.468 77.2641 141.094L77.6844 140.674Z" fill="#DBDCDC"/>
<path d="M84.2332 140.884L85.3889 141.69C86.2761 142.507 87.0465 143.581 87.7003 144.912L85.8092 144.386C84.5251 143.919 83.813 143.382 83.6729 142.775C83.5328 142.168 83.5795 141.678 83.813 141.305L84.2332 140.884Z" fill="#DBDCDC"/>
<path d="M90.8171 139.484L92.2529 140.534C93.2802 141.445 93.9806 142.391 94.3541 143.371L92.358 143.091C90.9572 142.741 90.1283 142.215 89.8715 141.515C89.7314 141.188 89.7898 140.78 90.0466 140.289C90.2801 139.822 90.5369 139.554 90.8171 139.484Z" fill="#DBDCDC"/>
<path d="M130.46 144.421C132.421 145.355 133.997 146.523 135.188 147.923L132.561 147.958C130.81 147.865 129.9 147.515 129.83 146.908C129.76 146.301 129.841 145.705 130.075 145.122L130.46 144.421Z" fill="#DBDCDC"/>
<path d="M137.779 142.915C138.176 143.032 138.842 143.382 139.776 143.966C141.036 144.736 141.818 145.472 142.122 146.172L139.671 146.067C138.013 145.88 137.172 145.518 137.149 144.981C137.102 144.468 137.196 143.966 137.429 143.475L137.779 142.915Z" fill="#DBDCDC"/>
<path d="M143.313 139.484L144.854 140.429C145.998 141.223 146.791 142.064 147.235 142.951L145.414 142.811C144.153 142.624 143.371 142.309 143.068 141.865C142.764 141.422 142.717 140.885 142.928 140.254L143.313 139.484Z" fill="#DBDCDC"/>
<path d="M128.884 147.328C128.697 146.651 129.071 145.565 130.005 144.071C130.939 142.554 131.744 141.783 132.421 141.76C133.098 141.736 134.044 142.624 135.258 144.421C136.449 146.172 136.962 147.363 136.799 147.993C136.659 148.554 135.351 148.729 132.877 148.519C130.402 148.309 129.071 147.912 128.884 147.328ZM131.161 144.596C130.577 145.53 130.343 146.207 130.46 146.628C130.694 146.954 131.522 147.223 132.947 147.433C134.324 147.643 135.071 147.631 135.188 147.398C135.305 147.141 134.989 146.394 134.242 145.157C133.449 143.896 132.83 143.254 132.386 143.231C132.129 143.207 131.721 143.663 131.161 144.596Z" fill="#0D131A"/>
<path d="M142.227 145.577C142.367 145.367 142.064 144.62 141.316 143.336C140.593 142.052 140.044 141.375 139.671 141.305C139.39 141.281 138.993 141.772 138.48 142.775C137.943 143.779 137.721 144.48 137.814 144.877C137.884 145.227 138.62 145.484 140.021 145.647L142.227 145.577ZM139.846 139.729C140.593 139.822 141.48 140.861 142.507 142.845C143.488 144.737 143.873 145.904 143.663 146.348C143.453 146.814 142.344 146.955 140.336 146.768C138.281 146.558 137.044 146.161 136.624 145.577C136.25 145.063 136.495 143.954 137.359 142.25C138.223 140.476 139.052 139.635 139.846 139.729Z" fill="#0D131A"/>
<path d="M143.838 139.694C143.488 140.488 143.418 141.141 143.628 141.655C143.721 141.935 144.34 142.157 145.484 142.32L147.34 142.215C147.48 141.982 147.235 141.305 146.605 140.184C145.974 138.994 145.426 138.41 144.959 138.433C144.562 138.48 144.188 138.9 143.838 139.694ZM143.068 138.818C143.791 137.488 144.41 136.822 144.924 136.822C145.787 136.822 146.698 137.791 147.655 139.729C148.589 141.597 148.916 142.764 148.636 143.231L145.519 143.336C143.605 143.103 142.566 142.776 142.402 142.355C142.052 141.445 142.274 140.266 143.068 138.818Z" fill="#0D131A"/>
<path d="M61.4699 146.487C61.073 146.02 60.6878 145.81 60.3142 145.857C59.7773 145.88 59.2987 146.219 58.8784 146.872C58.4582 147.503 58.2831 148.11 58.3531 148.693C58.4231 149.23 58.8784 149.837 59.7189 150.514C60.536 151.145 61.0847 151.402 61.3649 151.285C61.5516 151.215 61.7501 150.876 61.9602 150.269C62.2404 149.569 62.3338 148.915 62.2404 148.308C62.1703 147.584 61.9135 146.977 61.4699 146.487ZM57.8278 146.032C58.6216 144.864 59.4854 144.316 60.4193 144.386C61.0964 144.433 61.7034 144.783 62.2404 145.436C62.7773 146.09 63.1159 146.896 63.256 147.853C63.4194 148.787 63.3493 149.802 63.0458 150.9C62.7423 151.974 62.3688 152.592 61.9252 152.756C61.3649 152.966 60.466 152.662 59.2286 151.845C57.8978 150.935 57.1391 149.942 56.9523 148.868C56.8122 148.051 57.104 147.106 57.8278 146.032Z" fill="#0D131A"/>
<path d="M54.7811 146.418C54.4776 145.997 54.139 145.764 53.7655 145.717C53.3219 145.67 52.8549 145.857 52.3647 146.277C51.851 146.698 51.5942 147.153 51.5942 147.643C51.6176 148.25 51.9561 148.974 52.6098 149.815C53.1935 150.608 53.6254 151.005 53.9056 151.005C54.1624 150.982 54.4425 150.643 54.746 149.99C55.0729 149.336 55.248 148.682 55.2714 148.029C55.2947 147.421 55.1313 146.885 54.7811 146.418ZM51.174 145.262C52.0378 144.491 52.9367 144.165 53.8705 144.281C54.641 144.375 55.3064 144.795 55.8667 145.542C56.4037 146.289 56.6488 147.118 56.6021 148.029C56.5788 148.776 56.2869 149.733 55.7266 150.9C55.1196 152.114 54.5943 152.745 54.1507 152.791C53.6371 152.861 52.8316 152.266 51.7343 151.005C50.5669 149.698 49.9599 148.589 49.9132 147.678C49.8665 146.814 50.2868 146.009 51.174 145.262Z" fill="#0D131A"/>
<path d="M68.2639 145.717C67.7269 144.97 67.2366 144.597 66.793 144.597C66.3494 144.55 65.9059 144.877 65.4623 145.577C64.9953 146.301 64.8202 146.978 64.937 147.608C65.0537 148.169 65.7074 148.659 66.8981 149.079C68.0421 149.453 68.7075 149.558 68.8943 149.394C69.0577 149.254 69.0927 148.764 68.9993 147.923C68.9059 147.013 68.6608 146.278 68.2639 145.717ZM67.0382 143.056C68.1822 143.219 69.081 144.421 69.7347 146.663C70.3418 148.764 70.4585 150.025 70.085 150.445L66.793 150.235C64.8319 149.698 63.7696 148.997 63.6062 148.134C63.4194 147.176 63.6879 146.079 64.4116 144.842C65.2054 143.511 66.081 142.916 67.0382 143.056Z" fill="#0D131A"/>
<path d="M42.629 143.651C43.2127 145.892 43.271 147.153 42.8041 147.433C42.1971 147.783 41.0064 147.713 39.232 147.223C37.3876 146.709 36.3603 146.09 36.1502 145.367C35.87 144.503 36.1969 143.394 37.1308 142.04C38.088 140.639 39.0452 139.974 40.0024 140.044C41.1231 140.114 41.9986 141.316 42.629 143.651ZM37.6211 144.806C37.6911 145.297 38.3331 145.74 39.5472 146.137C40.7145 146.511 41.4266 146.581 41.6834 146.347C41.8702 146.184 41.7651 145.402 41.3682 144.001C40.948 142.507 40.4577 141.713 39.8974 141.619C39.4304 141.549 38.9168 141.865 38.3565 142.565C37.7261 143.312 37.481 144.059 37.6211 144.806Z" fill="#0D131A"/>
<path d="M29.8816 145.017C29.8816 145.554 30.5237 146.114 31.8077 146.698C33.0685 147.258 33.7922 147.41 33.979 147.153C34.1891 146.896 34.1308 146.138 33.8039 144.877C33.4537 143.523 32.9984 142.787 32.4381 142.671C31.9011 142.554 31.3408 142.799 30.7571 143.406C30.2202 143.966 29.9283 144.48 29.8816 144.947V145.017ZM29.8466 142.25C30.8505 141.316 31.7377 140.92 32.5082 141.06C33.6755 141.27 34.516 142.495 35.0296 144.737C35.5199 146.861 35.5316 148.122 35.0646 148.519C34.6211 148.939 33.3837 148.706 31.3525 147.819C29.2279 146.931 28.2123 145.927 28.3057 144.807C28.3757 144.013 28.8894 143.161 29.8466 142.25Z" fill="#0D131A"/>
<path d="M90.5369 141.234C90.607 141.701 91.284 142.145 92.5681 142.565C93.8055 142.962 94.5059 143.055 94.6693 142.845C94.8328 142.635 94.7277 141.911 94.3542 140.674C93.9573 139.366 93.5253 138.689 93.0584 138.643C92.6615 138.596 92.1245 138.9 91.4475 139.553C90.7704 140.23 90.4669 140.791 90.5369 141.234ZM90.572 138.888C91.786 137.721 92.7432 137.254 93.4436 137.487C94.3308 137.814 95.0546 138.923 95.6149 140.814C96.1519 142.612 96.2453 143.674 95.8951 144.001C95.5449 144.304 94.4009 144.199 92.4631 143.686C90.4786 143.149 89.3696 142.553 89.1361 141.9C88.856 141.082 89.3346 140.079 90.572 138.888Z" fill="#0D131A"/>
<path d="M86.0894 144.036C87.1167 144.387 87.712 144.48 87.8754 144.317C88.0389 144.153 88.0038 143.488 87.7704 142.32C87.5136 141.083 87.1517 140.406 86.6847 140.289C86.2178 140.172 85.6692 140.429 85.0388 141.06C84.4084 141.713 84.1516 142.285 84.2683 142.776C84.4084 143.266 85.0154 143.686 86.0894 144.036ZM86.9649 138.993C87.7354 139.18 88.3774 140.196 88.891 142.04C89.358 143.838 89.4047 145.017 89.0311 145.577C88.7976 145.928 87.7587 145.776 85.9143 145.122C83.9998 144.445 82.9726 143.733 82.8325 142.986C82.6691 142.239 83.1127 141.34 84.1633 140.289C85.2372 139.215 86.1711 138.783 86.9649 138.993Z" fill="#0D131A"/>
<path d="M79.0152 143.966C80.0425 144.526 80.6612 144.737 80.8713 144.597C81.0581 144.48 81.0814 143.803 80.9413 142.565C80.7779 141.258 80.451 140.522 79.9607 140.359C79.4938 140.196 78.9335 140.359 78.2798 140.849C77.6494 141.316 77.3459 141.783 77.3692 142.25C77.3926 142.81 77.9412 143.382 79.0152 143.966ZM80.346 139.063C81.3265 139.273 81.9102 140.429 82.097 142.53C82.2604 144.515 82.1437 145.647 81.7468 145.927C81.3032 146.207 80.2059 145.881 78.4549 144.947C76.6805 143.966 75.7583 143.114 75.6883 142.39C75.6182 141.713 76.1202 140.943 77.1941 140.079C78.3381 139.192 79.3887 138.853 80.346 139.063Z" fill="#0D131A"/>
<path d="M23.823 146.173C25.0604 146.803 25.7725 147.001 25.9593 146.768C26.1694 146.535 26.1344 145.799 25.8542 144.562C25.5507 143.278 25.1888 142.577 24.7686 142.461C24.2783 142.297 23.683 142.484 22.9825 143.021C22.2821 143.558 21.9319 144.083 21.9319 144.597C21.9553 144.994 22.5856 145.519 23.823 146.173ZM25.0838 140.885C26.0877 141.095 26.7998 142.32 27.22 144.562C27.6169 146.71 27.6052 147.912 27.185 148.169C26.4612 148.659 25.1538 148.402 23.2627 147.398C21.395 146.418 20.4261 145.542 20.356 144.772C20.2626 143.885 20.8113 142.962 22.002 142.005C23.1693 141.071 24.1966 140.698 25.0838 140.885Z" fill="#0D131A"/>
</svg>
