<svg width="258" height="252" viewBox="0 0 258 252" fill="none" xmlns="http://www.w3.org/2000/svg">
<path d="M76.9709 96.7239L77.4328 96.4038L76.8288 97.6844C76.6393 98.0639 76.2129 98.5145 75.5497 99.0362L74.5548 99.9255L74.5903 98.9295C74.6377 98.4552 75.4313 97.72 76.9709 96.7239ZM56.0075 85.9452C55.7232 84.8543 55.1666 83.5144 54.3375 81.9254L53.1294 79.7554C52.8452 79.3286 52.4543 79.1863 51.9569 79.3286C51.4831 79.4946 51.27 79.8385 51.3173 80.3602L51.6726 85.2693C51.8858 88.7318 51.9332 91.0796 51.8148 92.3128C51.7437 92.9057 51.5897 93.3563 51.3529 93.6646L50.3224 94.4473L48.8301 95.3366C48.1432 95.8109 47.6339 96.3208 47.3023 96.8662C46.4495 98.218 45.881 100.305 45.5968 103.127C45.3125 105.736 45.3717 107.681 45.7744 108.961C45.9166 109.412 45.9403 109.803 45.8455 110.135C45.7744 110.443 45.5613 110.799 45.2059 111.202L44.3887 111.665L43.6781 112.198L43.3938 113.443C43.4175 113.752 43.5833 114.084 43.8913 114.439L44.673 115.507C44.9572 116.028 45.0994 116.503 45.0994 116.93L44.8862 118.388C44.7914 119.171 44.8269 119.787 44.9927 120.238C45.2059 120.902 45.6442 121.246 46.3074 121.27C47.0654 121.198 47.5865 121.198 47.8708 121.27C48.4393 121.436 48.8775 121.649 49.1855 121.91C49.6355 122.384 49.9316 123.013 50.0737 123.795C50.2396 124.554 50.2159 125.171 50.0027 125.645L49.3276 125.859L48.5104 126.072L47.4089 126.321C46.9825 126.534 46.7338 126.89 46.6627 127.388L47.1957 128.135L48.1906 129.345L49.5052 130.732C50.0737 131.372 50.204 131.823 49.8961 132.084C49.6829 132.25 49.2802 131.906 48.688 131.052C47.8353 129.819 47.1602 128.965 46.6627 128.491C45.1941 127.068 43.6426 126.084 42.0081 125.538C40.0421 124.779 39.059 124.483 39.059 124.649L39.592 125.361L40.1605 126.036C38.5971 125.278 36.4179 124.376 33.6227 123.333L31.9528 123.048C31.1 122.93 30.6618 122.93 30.6381 123.048C30.5907 123.262 30.9105 123.617 31.5975 124.115L32.9476 125.04L42.0792 132.191C43.0267 132.949 43.9623 134.052 44.8862 135.499C45.6678 136.661 46.189 137.645 46.4495 138.452C46.6154 138.997 46.9114 139.412 47.3378 139.697L48.6169 140.444L49.292 140.942L49.2565 141.155C49.0907 141.867 49.1144 142.803 49.3276 143.965L50.0737 144.748L50.891 145.424C45.3244 154.554 41.712 163.614 40.0539 172.602C37.543 186.072 39.8052 198.001 46.8404 208.389C55.7706 221.551 66.5366 229.804 79.1384 233.148C84.5154 234.571 90.6742 235.258 97.6146 235.211L117.796 233.753C129.261 232.448 139.921 228.12 149.775 220.768C152.901 218.42 155.779 215.883 158.409 213.156L161.713 209.456L161.109 206.503L103.406 190.958L102.411 195.155L100.777 193.661C100.658 193.258 100.658 192.867 100.777 192.487C100.895 192.155 101.049 191.906 101.239 191.74L93.1377 195.76C87.7369 198.416 82.1704 198.867 76.438 197.112C69.5212 195.001 63.623 189.855 58.7434 181.673C55.5219 176.266 54.1954 169.958 54.7639 162.748C55.1902 157.27 56.5996 151.803 58.9921 146.349C60.745 146.42 61.7399 146.586 61.9767 146.847C62.6637 147.629 63.3151 148.104 63.931 148.27C65.2338 148.673 66.88 148.199 68.8698 146.847L69.0119 146.74C69.6515 146.313 69.9239 145.412 69.8291 144.037L69.9357 142.969L70.2555 142.187C70.445 141.973 70.7411 141.784 71.1438 141.618L72.6006 141.013L74.0574 141.155L75.7984 141.902C77.1486 142.708 77.9777 143.147 78.2856 143.218C79.3278 143.479 80.1688 142.756 80.8083 141.048L81.59 138.025L81.7677 137.491L82.5849 135.748C82.8455 135.084 82.7744 134.432 82.3717 133.791C82.1348 133.388 81.8861 132.404 81.6255 130.839C81.365 129.274 81.2465 128.064 81.2702 127.21L81.3058 125.752C81.3058 125.064 81.1636 124.412 80.8794 123.795C80.7136 123.44 80.3938 122.93 79.92 122.266L78.7475 120.38L78.3922 118.993L78.5698 117.748C78.8067 116.823 78.9015 116.017 78.8541 115.329L78.7475 113.586C78.7001 112.898 78.5698 112.293 78.3567 111.771C78.2619 111.534 77.9421 110.953 77.3973 110.028C77.0183 109.364 76.8407 108.89 76.8643 108.605C76.9117 108.131 77.3262 106.791 78.1079 104.586C78.8896 102.499 79.3515 101.005 79.4937 100.103C79.6358 99.1785 79.7068 98.1706 79.7068 97.0797L79.6713 95.6212C79.6476 95.3603 79.5173 95.135 79.2805 94.9453L82.4428 92.1706C82.6323 92.0045 82.7389 91.803 82.7625 91.5658C82.8099 91.3049 82.7507 91.0678 82.5849 90.8543C82.4664 90.6646 82.2769 90.5342 82.0164 90.463L81.3413 90.5698C79.1383 91.6844 77.7289 92.3128 77.1131 92.4551L75.2299 92.4196L74.3772 92.2773C73.1217 92.0875 71.7597 92.7279 70.291 94.1982L70.0068 94.5184L70.4687 90.6765C70.5398 89.6567 70.1726 88.0559 69.3672 85.8741C68.7514 84.3088 67.9934 82.625 67.0932 80.8227C66.7142 80.0638 66.4063 78.5697 66.1694 76.3404L65.8852 71.7159C65.8852 71.1941 65.6364 70.8858 65.139 70.791C64.6416 70.6724 64.2744 70.8384 64.0375 71.289L63.5756 72.4985C63.2677 73.4471 63.1137 74.3483 63.1137 75.2021C63.1137 75.8187 62.9479 76.9333 62.6163 78.546L62.9361 75.6645C62.9597 75.4036 62.9005 75.1665 62.7584 74.953C62.5926 74.7159 62.3794 74.5736 62.1188 74.5262C61.8583 74.5024 61.6096 74.5617 61.3727 74.704C61.1595 74.8463 61.0292 75.0479 60.9818 75.3088L60.6621 76.7317C60.3778 77.7752 60.0699 78.6527 59.7382 79.3641C59.4303 80.0519 59.2882 80.8582 59.3119 81.7831L59.5961 84.1666L59.8448 85.7674C59.8922 86.5262 59.2408 87.795 57.8906 89.5737L57.0379 90.712L56.647 91.3879L56.5404 89.8939C56.422 88.1152 56.2443 86.799 56.0075 85.9452Z" fill="#0D131A"/>
<path d="M57.713 105.724L57.0734 105.369C56.9076 105.44 56.9076 105.807 57.0734 106.471C57.3103 107.444 57.4169 108.606 57.3932 109.958C57.3695 111.215 57.2392 112.282 57.0024 113.159C56.7892 113.894 56.4457 114.57 55.972 115.187C55.5693 115.756 55.3561 116.302 55.3324 116.823C55.3087 118.056 55.4035 119.219 55.6166 120.309C55.6166 120.547 55.5337 120.713 55.3679 120.807C55.2258 120.902 55.0008 120.819 54.6928 120.558C54.3849 120.179 54.1125 119.657 53.8756 118.993C53.7572 118.638 53.7453 118.211 53.8401 117.713C53.8875 117.096 53.7927 116.551 53.5558 116.076L52.9873 114.902C52.7741 114.475 52.5609 114.298 52.3478 114.369L52.2412 114.973L52.4188 116.788L51.9924 117.428L51.8148 118.495C51.8622 118.875 52.1938 119.776 52.8097 121.199L53.6269 123.582C53.8875 124.389 53.994 124.993 53.9467 125.396C53.8282 126.511 53.6032 127.068 53.2716 127.068L52.9873 126.606L52.7031 125.645L51.5661 123.475C51.3292 123.072 50.8791 122.539 50.2159 121.875C50.737 122.823 50.9976 123.808 50.9976 124.827C50.9976 125.278 50.8791 125.8 50.6423 126.392C50.4764 126.772 50.0027 127.045 49.221 127.211C48.463 127.329 48.0603 127.555 48.0129 127.887C47.9656 128.266 48.2261 128.693 48.7946 129.167L50.1448 130.341C50.5001 130.792 50.6896 131.254 50.7133 131.729C50.7607 132.274 50.5712 132.689 50.1448 132.974C49.6711 133.306 48.9841 132.843 48.084 131.586L46.0587 128.847C45.3007 128.207 43.6663 127.282 41.1554 126.072L43.4294 128.029C43.761 128.313 44.0808 128.728 44.3888 129.274L44.7441 130.021L43.3228 129.061C42.1858 128.325 41.1791 127.709 40.3026 127.211C38.8814 126.452 36.5363 125.468 33.2674 124.258L42.6122 130.981C43.7255 131.859 44.8033 132.938 45.8455 134.219C46.8167 135.452 47.4326 136.46 47.6932 137.242C47.9063 137.835 48.4038 138.452 49.1855 139.092L50.8199 140.337C51.0331 140.574 51.0923 140.918 50.9976 141.369L50.962 143.148C51.0568 143.551 51.2937 143.918 51.6727 144.25L56.9313 138.559L59.2053 136.531L60.4489 135.642L57.8551 139.163L59.8449 139.377L60.3068 139.982L61.7636 137.314L61.6214 138.523C61.4083 139.614 61.0411 140.918 60.52 142.436L62.0478 142.578L62.9716 142.863L63.5757 142.827C64.2626 142.235 64.6298 141.819 64.6771 141.582C64.7008 141.44 64.6534 141.298 64.535 141.155L64.2863 140.835C64.002 140.29 63.9073 139.531 64.002 138.559C64.0968 137.586 64.3455 136.851 64.7482 136.353C65.1272 135.855 65.826 135.298 66.8445 134.681C67.9342 134.041 68.7988 133.721 69.4383 133.721C69.6752 133.721 70.0542 133.851 70.5753 134.112L71.8189 134.681C72.269 134.8 72.648 134.598 72.9559 134.076C73.4771 133.08 73.8797 131.954 74.164 130.697C74.4482 129.369 74.4364 128.551 74.1285 128.242C73.7731 127.887 72.7309 127.317 71.0017 126.535L69.1896 125.503C68.6685 125.147 68.3487 124.78 68.2303 124.4C67.946 123.618 68.2539 122.669 69.1541 121.555C70.3384 120.108 70.599 118.721 69.9358 117.392C69.6515 116.776 68.9646 116.266 67.8749 115.863C67.2117 115.602 66.5248 115.092 65.8141 114.333L64.7127 112.305L63.7888 109.495C63.552 108.641 63.3269 108.215 63.1137 108.215C62.9716 108.215 62.8769 108.547 62.8295 109.211C62.7821 110.088 62.8295 110.954 62.9716 111.807L63.2559 113.515C63.3033 113.847 63.2796 114.06 63.1848 114.155C63.019 114.321 62.8176 114.381 62.5808 114.333C61.9175 114.167 61.3727 113.8 60.9463 113.23C60.4489 112.519 60.0818 111.428 59.8449 109.958C59.6554 108.819 59.2408 107.764 58.6013 106.792L57.713 105.724Z" fill="#EFE908"/>
<path d="M55.0837 86.1947C54.7994 85.1513 54.2428 83.8588 53.4137 82.3172L52.2767 80.2896L52.632 85.1987C52.8689 88.7086 52.9163 91.1157 52.7741 92.4201C52.6557 93.5821 52.1346 94.4715 51.2107 95.0881C49.9553 95.9181 49.1144 96.6652 48.688 97.3292C47.8827 98.6098 47.2668 100.566 46.8404 103.199C46.414 105.76 46.3667 107.586 46.6983 108.677C46.9588 109.531 46.8049 110.361 46.2364 111.167L44.9217 112.946C44.7085 113.397 44.673 113.729 44.8151 113.942C45.0994 114.274 45.3481 114.653 45.5613 115.08C45.7745 115.531 45.881 116.1 45.881 116.788C45.881 117.618 45.9995 118.353 46.2364 118.993C46.4732 119.729 47.0062 120.227 47.8353 120.487C48.9012 120.819 49.6 121.152 49.9316 121.484L50.5001 122.231C51.2581 123.037 51.9095 124.069 52.4543 125.325L52.8807 126.677L53.2005 127.318C53.3426 127.365 53.4848 127.235 53.6269 126.926L53.9822 125.646C54.0533 125.148 53.994 124.555 53.8045 123.867L53.1294 121.839L52.3833 119.989L51.9569 118.567L51.9924 117.713L52.2767 117.321C52.4662 117.037 52.5609 116.752 52.5609 116.468L52.3833 115.151C52.3122 114.772 52.3241 114.57 52.4188 114.547C52.632 114.499 52.9281 114.914 53.3071 115.792C53.6624 116.551 53.8045 117.167 53.7335 117.642V118.887C54.2546 120.357 54.7876 121.045 55.3324 120.95C55.7351 120.879 55.8298 120.428 55.6166 119.598L55.439 117.108C55.439 116.444 55.6048 115.875 55.9364 115.4C56.4576 114.713 56.7892 114.12 56.9313 113.622C57.4524 111.796 57.6656 110.053 57.5709 108.393C57.5472 107.847 57.405 107.147 57.1445 106.294C56.8129 105.179 57.1445 105.215 58.1393 106.4C58.8737 107.373 59.3711 108.44 59.6317 109.602C60.058 111.594 60.5437 112.922 61.0885 113.586C61.2543 113.776 61.5148 113.966 61.8701 114.155C62.2728 114.369 62.6045 114.464 62.865 114.44L63.2914 114.155L63.398 113.764L62.9006 110.029C62.8295 108.962 62.9005 108.428 63.1137 108.428C63.2322 108.428 63.3625 108.653 63.5046 109.104L64.002 110.705C64.5705 112.507 65.0443 113.634 65.4233 114.084L66.7735 115.329L68.1237 116.148C68.55 116.314 68.8698 116.48 69.083 116.646C69.3673 116.883 69.6041 117.238 69.7936 117.713C70.149 118.519 70.1845 119.314 69.9002 120.096L68.9054 121.733L68.0881 123.12C67.9223 123.547 67.9105 123.997 68.0526 124.472C68.1473 124.733 68.479 125.088 69.0475 125.539L71.4281 126.891C72.5177 127.294 73.3586 127.78 73.9508 128.349C74.543 128.966 74.1758 130.851 72.8493 134.005C72.6124 134.48 72.2808 134.658 71.8545 134.539L70.7174 134.005C70.1253 133.721 69.616 133.578 69.1896 133.578C68.7159 133.578 67.9105 133.934 66.7735 134.646C65.7075 135.286 65.0087 135.796 64.6771 136.175C64.3455 136.531 64.1086 137.207 63.9665 138.203C63.8244 139.128 63.8244 139.828 63.9665 140.302L64.4639 141.191C64.6061 141.428 64.5824 141.63 64.3929 141.796L63.6822 142.472C63.4454 142.685 63.1966 142.768 62.9361 142.721L61.9767 142.401L60.591 142.258L59.8093 144.357L60.1646 144.286C60.7095 144.167 61.3964 144.547 62.2255 145.424L64.0731 147.096C64.8074 147.286 66.2287 146.681 68.3368 145.282C68.7158 145.021 68.8935 144.677 68.8698 144.25C68.8224 143.563 68.8698 143.029 69.0119 142.65C69.2251 142.033 69.6515 141.559 70.2911 141.227C71.1201 140.918 71.7834 140.622 72.2808 140.337L74.9812 140.48L77.5395 141.511C78.1317 141.654 78.7594 141.25 79.4226 140.302C79.9201 139.567 80.3346 138.713 80.6662 137.741L81.1992 135.855C81.2939 135.262 81.1637 134.681 80.8083 134.112C80.4767 133.567 80.2872 132.25 80.2398 130.163L80.3109 125.752C80.3109 124.97 80.0385 124.187 79.4937 123.404L77.8592 120.808C77.4329 119.93 77.3144 119.017 77.5039 118.068C77.7645 116.717 77.8829 115.827 77.8592 115.4C77.8119 114.76 77.4447 113.574 76.7578 111.843C76.1182 110.254 75.834 109.14 75.905 108.499C75.9524 107.859 76.3669 106.472 77.1486 104.337C77.954 102.084 78.4159 100.626 78.5343 99.9616C78.6765 99.0842 78.7357 98.1118 78.712 97.0446L78.6765 95.6928L78.4988 96.3687C78.3093 96.9379 78.0369 97.5308 77.6816 98.1474C77.3973 98.6691 76.9117 99.2146 76.2248 99.7838C75.4668 100.4 74.922 100.958 74.5904 101.456C74.2587 101.954 74.0337 102.558 73.9153 103.27C73.5836 101.278 73.477 99.7956 73.5955 98.8233C73.6665 98.183 74.1403 97.5189 75.0167 96.8312L77.2197 95.3727C77.6934 95.0407 78.5936 94.2818 79.9201 93.096L81.8032 91.424L80.0622 92.2778C78.8067 92.8944 77.9066 93.2738 77.3618 93.4161L75.7629 93.5229L74.2706 93.2383C73.2994 93.096 72.1979 93.6414 70.9662 94.8746C70.7293 95.1118 70.5516 95.598 70.4332 96.3331C70.2911 97.1158 69.9831 97.8391 69.5094 98.5031C68.6329 99.6889 68.1355 100.614 68.0171 101.278C68.8935 95.5861 69.3909 92.0288 69.5094 90.6058C69.5804 89.6572 69.1896 88.1157 68.3368 85.9813C67.7683 84.4872 67.0577 82.9101 66.205 81.25C65.7312 80.3014 65.3759 78.4397 65.139 75.665L64.9258 71.752L64.4995 72.7836C64.2152 73.6373 64.0731 74.4437 64.0731 75.2026C64.0731 75.8429 63.931 76.9101 63.6467 78.4042L63.1137 81.7481C62.9953 83.0524 62.8887 83.5979 62.794 83.3844C62.4623 82.9576 62.1307 82.2461 61.7991 81.25C61.4675 80.2777 61.5267 78.3686 61.9767 75.5227L61.6214 76.9812L60.6621 79.7915C60.3305 80.5267 60.2357 81.4872 60.3778 82.673L60.8042 85.6967C60.8753 86.503 60.5318 87.4872 59.7738 88.6493L57.8551 91.2817C57.1919 92.2541 56.8128 93.345 56.7181 94.5545C56.268 93.7956 55.9364 92.9181 55.7232 91.9221L55.51 89.4319C55.4627 88.1987 55.3205 87.1196 55.0837 86.1947Z" fill="#E50020"/>
<path d="M148.886 219.025C152.013 216.749 154.891 214.33 157.52 211.768L160.541 208.567L132.897 201.132C130.292 206.041 126.975 210.44 122.948 214.33C116.624 220.401 109.375 224.243 101.203 225.855C85.6879 228.891 70.9542 225.5 57.0023 215.681C54.0887 213.618 51.3646 211.057 48.8301 207.997C57.5708 220.543 68.0288 228.345 80.2042 231.405C85.3444 232.709 91.2426 233.314 97.8988 233.219L117.05 231.76C128.254 230.48 138.866 226.235 148.886 219.025Z" fill="#DDD583"/>
<path d="M129.984 200.42L117.441 197.005C114.22 202.863 109.293 207.571 102.66 211.128C95.8617 214.756 88.3646 216.571 80.1687 216.571C73.0388 216.571 66.3826 215.172 60.2001 212.373C54.2072 209.646 49.3749 205.934 45.7033 201.239C48.759 206.788 52.7741 211.247 57.7485 214.614C71.4636 223.887 85.8774 227.041 100.99 224.077C108.783 222.535 115.487 218.883 121.101 213.12C124.228 209.895 127.189 205.662 129.984 200.42Z" fill="#D18200"/>
<path d="M59.9515 139.092L60.4489 136.282L58.9921 137.562L57.713 139.377L53.4137 145.175C49.6948 150.487 46.6154 156.701 44.1756 163.816C41.8305 170.646 40.658 176.563 40.658 181.567C40.658 188.539 42.3398 195.096 45.7034 201.239C49.375 205.934 54.2073 209.646 60.2002 212.373C66.3827 215.172 73.0389 216.571 80.1688 216.571C88.3647 216.571 95.8618 214.757 102.66 211.128C109.293 207.571 114.22 202.863 117.441 197.005L102.838 193.057L102.056 193.804C100.73 194.705 98.0766 196.128 94.0971 198.073C88.341 200.895 82.3007 201.357 75.9761 199.46C68.3487 197.183 61.9294 191.693 56.7181 182.99C53.3545 177.369 52.0754 170.705 52.8807 162.997C53.4729 157.448 55.0718 151.673 57.6775 145.673C58.9803 142.685 60.0936 140.408 61.0174 138.843L61.3727 137.171L59.9515 139.092Z" fill="#F29600"/>
<path d="M123.304 210.666C125.578 207.939 127.804 204.524 129.984 200.421L102.873 193.093L102.767 193.271C102.553 193.508 102.044 193.864 101.239 194.338C100.765 196.425 100.528 198.535 100.528 200.67C100.528 204.678 101.322 208.496 102.909 212.125C104.448 215.634 106.616 218.717 109.411 221.374C114.693 218.978 119.324 215.409 123.304 210.666Z" fill="#D18200"/>
<path d="M153.612 215.361C155.033 212.942 156.099 210.345 156.81 207.571L132.897 201.132C130.978 204.808 128.562 208.258 125.649 211.484C121.314 216.369 116.387 220.104 110.868 222.689C113.378 224.753 116.126 226.341 119.111 227.456C122.238 228.618 125.471 229.211 128.811 229.235C137.67 226.413 145.937 221.788 153.612 215.361Z" fill="#DDD583"/>
<path d="M186.692 32.3365L197.031 43.7911C197.458 44.384 197.671 46.0559 197.671 48.8069C197.671 51.89 197.363 55.1034 196.747 58.4473C196.368 60.6292 195.515 63.4395 194.189 66.8782C192.839 70.4356 191.678 72.8071 190.707 73.9929L185.448 79.9336L180.58 85.4475C179.846 86.5147 179.325 88.2815 179.017 90.748C178.354 95.0879 177.809 97.8863 177.382 99.1433C176.79 100.851 176.056 102.499 175.179 104.088C174.54 105.226 173.581 106.756 172.301 108.677C170.572 111.214 168.571 113.645 166.297 115.969L164.733 115.329L162.85 115.222C162.211 115.436 161.76 116.029 161.5 117.001L161.038 119.42L158.8 120.914C158.349 121.222 158.065 121.673 157.947 122.266C157.876 122.811 158.006 123.309 158.338 123.76L163.525 130.483L166.794 138.772C167.055 139.46 167.552 139.863 168.286 139.981C168.618 140.053 169.104 139.934 169.743 139.626L171.022 138.772C173.533 135.736 176.115 132.985 178.768 130.519C182.748 126.843 185.922 124.78 188.291 124.329C190.02 123.997 191.796 124.139 193.62 124.756C194.165 124.97 195.586 125.645 197.884 126.784C199.305 127.495 200.336 127.934 200.975 128.1C202.041 128.385 202.989 128.313 203.818 127.887C204.505 127.531 204.896 126.926 204.99 126.072L204.919 124.436L204.742 123.653C204.528 122.278 204.86 120.772 205.736 119.135C206.305 118.139 207.406 117.132 209.041 116.112C211.457 114.57 214.169 113.799 217.177 113.799C224.118 113.799 231.437 116.693 239.136 122.479C243.518 125.752 247.308 129.321 250.506 133.187C250.624 134.183 250.624 135.404 250.506 136.851L250.293 139.163C250.293 140.349 250.577 141.393 251.145 142.294C251.738 143.219 252.448 143.681 253.277 143.681C254.059 143.681 254.758 143.385 255.374 142.792C256.155 142.057 256.605 140.989 256.724 139.59L256.759 139.377C257.257 133.732 257.577 129.274 257.719 126.001C257.813 123.796 257.813 122.468 257.719 122.017C257.292 119.1 256.345 114.487 254.876 108.179C253.502 102.25 252.259 97.3409 251.145 93.4515C250.174 90.0365 248.611 85.4001 246.455 79.5423C244.442 74.064 243.127 70.7794 242.511 69.6885C241.706 68.2419 238.484 64.2339 232.847 57.6647C227.28 51.1904 223.798 47.384 222.401 46.2457C221.24 45.297 219.392 44.2536 216.858 43.1152L214.584 42.0836C213.613 41.633 213.02 41.3247 212.807 41.1587L203.995 34.3286L194.899 27.3918C193.123 26.1111 191.429 25.3404 189.818 25.0795C188.137 24.8186 186.881 25.1625 186.052 26.1111C185.436 26.8226 185.152 27.7475 185.199 28.8859C185.27 30.1665 185.768 31.3167 186.692 32.3365Z" fill="#0D131A"/>
<path d="M222.649 61.6844C217.462 57.2733 214.43 54.878 213.553 54.4985C212.369 54.3325 210.711 54.5223 208.579 55.0677C206.423 55.6369 205.144 56.2416 204.741 56.8819C204.481 57.38 202.977 61.9571 200.229 70.6133L198.275 76.4473C197.777 77.7517 194.307 81.2141 187.864 86.8347C187.035 87.5699 185.969 90.1668 184.666 94.6253L183.813 97.4712L182.143 103.91L179.869 113.266C179.372 115.187 178.922 116.278 178.519 116.538C176.932 117.629 175.132 119.325 173.119 121.625C172.74 122.076 171.934 123.807 170.702 126.819L167.362 135.25L168.606 138.06C170.548 135.902 172.799 133.673 175.357 131.373C180.474 126.795 184.571 124.222 187.651 123.653C190.588 123.108 193.81 123.629 197.315 125.218L200.584 126.748C201.603 127.151 202.361 127.222 202.858 126.961C203.119 126.819 203.296 126.333 203.391 125.503L203.462 124.329C203.296 123.95 203.214 123.428 203.214 122.764C203.214 121.459 203.604 120.084 204.386 118.637C205.049 117.38 206.376 116.206 208.366 115.116C210.971 113.669 213.944 112.946 217.284 112.946C224.011 112.946 230.952 115.376 238.105 120.238C242.535 123.25 246.657 126.878 250.47 131.124C250.21 121.542 249.925 116.171 249.617 115.009C248.599 110.859 246.42 104.04 243.08 94.5541C238.626 81.9612 235.061 73.969 232.385 70.5777C231.248 69.1548 228.003 66.1903 222.649 61.6844Z" fill="#008086"/>
<g filter="url(#filter0_d_1_38131)">
<path d="M188.539 31.4115C194.509 37.7673 198.073 41.6685 199.234 43.1152C199.992 44.0875 200.241 46.3879 199.98 50.0164C199.815 52.4354 199.436 55.2457 198.843 58.4473C198.464 60.6054 197.505 63.5224 195.965 67.1983C194.402 70.898 193.052 73.4474 191.915 74.8466L182.179 86.2301C181.516 87.1076 180.936 89.0522 180.438 92.0641C179.822 95.7637 179.348 98.0879 179.017 99.0365C178.401 100.839 177.773 102.44 177.134 103.839L174.753 108.463C173.877 110.1 172.408 112.163 170.347 114.653C168.429 116.954 167.28 118.175 166.901 118.317L165.622 117.926C165.006 117.618 164.52 117.523 164.165 117.641C163.502 117.855 163.063 118.839 162.85 120.594L159.901 122.55L165.231 129.523L165.977 131.373C168.843 124.898 170.691 121.199 171.52 120.274C174.054 117.357 176.139 115.353 177.773 114.262C178.223 113.74 179.372 109.851 181.22 102.594L182.925 96.0483L183.778 93.238L185.093 89.076C185.614 87.819 186.218 86.8823 186.905 86.2657L192.377 80.9297C195.03 78.2024 196.475 76.5186 196.711 75.8782L198.666 70.1154C201.792 60.724 203.498 55.8149 203.782 55.388C204.398 54.3682 205.997 53.5382 208.579 52.8978C210.924 52.3287 212.807 52.1508 214.228 52.3642C215.105 52.5065 218.409 55.0915 224.142 60.1192C229.685 64.9572 232.965 68.0284 233.984 69.3327C236.897 73.0324 240.593 81.5937 245.07 95.0167C247.32 101.728 249.286 108.143 250.968 114.262C251.347 115.827 251.667 122.029 251.927 132.867L252.247 139.163C252.247 139.709 252.354 140.183 252.567 140.586C252.78 140.966 253.017 141.155 253.277 141.155C253.609 141.155 253.846 141.06 253.988 140.871C254.249 140.586 254.414 140.041 254.485 139.234L254.947 131.977L255.338 125.041C255.314 122.527 254.628 118.033 253.277 111.558C252.093 105.772 250.944 101.029 249.831 97.329C248.173 91.7795 246.183 85.8388 243.862 79.5067C241.919 74.2893 240.687 71.2063 240.166 70.2576C239.432 68.9296 236.412 65.1232 231.106 58.8386C225.776 52.5065 222.46 48.8188 221.157 47.7753C220.067 46.8978 217.912 45.7357 214.69 44.2891C213.08 43.5539 211.575 42.9136 210.178 42.3681L194.437 29.3838C193.135 28.2929 191.832 27.5459 190.529 27.1427C189.179 26.7396 188.291 26.8344 187.864 27.4273C187.011 28.6605 187.236 29.9886 188.539 31.4115Z" fill="#F29600"/>
</g>
<path d="M205.523 65.4551C206.068 65.1943 206.873 64.9452 207.939 64.7081L210.569 64.3168C212.227 65.4551 215.235 67.886 219.593 71.6093C224.189 75.5224 226.937 78.0481 227.837 79.1864C230.324 82.3406 233.77 90.0956 238.176 102.451C241.54 111.795 243.755 118.542 244.821 122.693L245.034 125.681C246.834 127.317 248.646 129.131 250.47 131.124C250.21 121.542 249.925 116.171 249.617 115.009C248.599 110.859 246.42 104.04 243.08 94.5541C238.626 81.9612 235.061 73.969 232.385 70.5777C231.248 69.1548 228.003 66.1903 222.649 61.6844C217.462 57.2733 214.43 54.878 213.553 54.4985C212.369 54.3325 210.711 54.5223 208.579 55.0677C206.423 55.6369 205.144 56.2416 204.741 56.8819C204.481 57.38 202.977 61.9571 200.229 70.6133L198.275 76.4473C197.777 77.7517 194.307 81.2141 187.864 86.8347C187.035 87.5699 185.969 90.1668 184.666 94.6253L183.813 97.4712L182.143 103.91L179.869 113.266C179.372 115.187 178.922 116.278 178.519 116.538C176.932 117.629 175.132 119.325 173.119 121.625C172.74 122.076 171.934 123.807 170.702 126.819L167.362 135.25L168.606 138.06L171.697 134.859C172.74 132.25 173.415 130.72 173.723 130.27C175.57 128.135 177.122 126.665 178.377 125.859C179.206 125.29 179.846 124.4 180.296 123.191C180.627 122.337 181.16 120.369 181.895 117.286L183.352 111.274L184.986 105.048L185.874 102.06C186.443 100.115 186.999 97.732 187.544 94.9099L188.184 91.2814L198.097 82.7438C199.779 81.2023 200.868 79.6963 201.366 78.226L205.523 65.4551Z" fill="#00666C"/>
<path d="M5.5528 94.7325C4.74742 96.7958 3.74071 101.788 2.53264 109.709C1.37195 117.298 0.791611 122.314 0.791611 124.756V125.539L0.898209 141.085C1.20615 144.002 2.4379 145.436 4.59348 145.389C5.54097 145.365 6.21605 144.927 6.61874 144.073C6.99774 143.266 7.18726 141.938 7.18726 140.089C7.18726 138.927 7.30569 137.859 7.54257 136.887C12.3038 132.191 17.3018 127.507 22.5368 122.835C29.6431 116.527 34.4042 112.851 36.8204 111.808C39.7339 110.551 43.3463 110.005 47.6574 110.171C51.1869 110.337 53.6978 110.788 55.1901 111.523C55.877 111.855 57.5588 113.61 60.2355 116.788L63.3268 120.167C64.0374 120.855 64.7006 121.235 65.3165 121.306L66.6667 121.128L68.763 120.239C72.3635 118.673 74.9929 117.666 76.651 117.215C80.5121 116.195 83.7809 116.231 86.4576 117.322C90.2476 118.863 94.4759 121.235 99.1423 124.436C102.695 126.879 105.076 128.705 106.284 129.915C106.687 130.365 107.907 132.583 109.944 136.567L116.055 148.626C116.363 149.195 117.05 149.504 118.116 149.551C118.874 149.551 119.466 149.231 119.893 148.591L135.988 121.484C136.367 120.867 136.391 120.239 136.059 119.598C135.704 118.934 135.171 118.579 134.46 118.531L127.603 118.353C126.608 115.436 125.755 113.705 125.045 113.16C124.642 112.875 123.872 112.638 122.735 112.448L119.431 112.519L113.746 108.748L105.112 102.488C100.398 98.8828 96.3709 94.9816 93.0309 90.7839C92.4387 89.3847 91.4794 86.2424 90.1529 81.357C88.7553 76.187 87.4407 70.851 86.2089 65.3489C85.0719 60.2501 84.1244 55.1394 83.3664 50.0168C82.6795 45.3449 82.3715 42.3567 82.4426 41.0523C82.49 40.3409 83.1888 38.9298 84.5389 36.8191C86.0076 34.495 87.9855 31.7677 90.4727 28.6372C91.4676 27.404 92.119 26.0997 92.4269 24.7242C92.8059 23.0641 92.569 21.6174 91.7163 20.3842C91.0767 19.4593 90.2832 18.9138 89.3357 18.7478C88.2934 18.5818 87.1446 18.7953 85.8891 19.3882C84.8232 19.8862 83.8402 20.5502 82.94 21.3803L77.1484 26.9653L71.6055 32.3369C71.416 32.5029 70.587 32.7282 69.1184 33.0128L66.2048 33.6175C65.5178 33.8309 62.7582 35.1827 57.926 37.6729L50.038 41.5859C47.7166 42.3211 45.3479 42.831 42.9318 43.1156L40.0892 43.5069C38.9996 43.6966 38.3127 43.9338 38.0284 44.2184C36.3703 45.7836 33.0541 50.8706 28.0797 59.4793L17.7045 77.7996C15.5726 81.4755 12.9433 85.2819 9.81656 89.2187L5.5528 94.7325Z" fill="#0D131A"/>
<path d="M13.9382 87.8311L10.5983 92.3489L7.86238 96.511C7.08069 98.4793 6.03844 103.139 4.73563 110.491C3.43282 117.772 2.7814 122.527 2.7814 124.756V132.547L2.888 140.444C2.98274 141.274 3.13673 141.879 3.34991 142.258C3.63417 142.756 4.04871 142.993 4.59352 142.97C4.94882 142.946 5.20937 142.472 5.37518 141.547C5.49362 140.907 5.55284 140.195 5.55284 139.412L5.62392 136.246L8.04004 110.029V109.887C10.3851 101.207 15.2766 90.333 22.7145 77.2658C29.4654 65.4317 34.8544 57.5107 38.8812 53.5028C39.9946 52.3644 44.9808 50.313 53.8399 47.3486C62.0358 44.5738 66.3943 43.1865 66.9154 43.1865C68.3841 43.0679 69.8764 43.3881 71.3924 44.147C72.9084 44.9296 74.0691 45.9731 74.8745 47.2774C75.6798 48.5581 77.8354 55.8625 81.3412 69.1906C82.3834 73.246 83.5086 79.2579 84.7166 87.2263C85.4036 91.7323 85.8536 94.1987 86.0668 94.6256C86.4458 95.337 89.4068 97.6849 94.9497 101.669L99.0002 104.657C99.8056 105.321 100.658 106.377 101.558 107.823C102.032 108.558 102.707 109.756 103.584 111.416L104.365 112.875C104.484 113.017 105.112 113.219 106.249 113.479C108.475 114.025 110.276 114.535 111.649 115.009C113.45 115.626 115.807 118.543 118.72 123.76C120.662 127.246 122.7 131.468 124.831 136.424L134.318 120.487L126.111 119.847L125.293 117.535C124.678 115.946 124.156 114.997 123.73 114.689C123.138 114.286 122.143 114.096 120.745 114.12L118.862 114.262L112.147 109.709L103.939 104.088C102.968 103.353 100.658 101.218 97.0105 97.6849C93.3863 94.1513 91.4794 92.1829 91.2899 91.7797C90.0819 89.171 87.8434 80.7045 84.5745 66.3803C81.2109 51.5818 79.6593 42.8663 79.9199 40.2339C80.0147 39.309 81.3412 37.056 83.8994 33.475L88.7317 27.1429C89.4186 26.2891 89.8924 25.3049 90.1529 24.1903C90.4609 23.0045 90.4135 22.0559 90.0108 21.3444C89.6081 20.6567 88.8027 20.55 87.5947 21.0243C86.5287 21.4274 85.4391 22.1389 84.3258 23.1587L78.5697 29.0283L73.2756 34.3999L70.2554 34.8979L66.0982 35.7872C65.127 36.1192 60.0816 38.4789 50.9619 42.8663L44.7794 44.6094C41.629 45.4158 39.9235 45.9375 39.6629 46.1747C37.4126 48.3328 32.5803 55.7439 25.1661 68.408L13.9382 87.8311Z" fill="#F29600"/>
<path d="M9.24811 110.313L7.04516 134.859C11.9722 130.211 16.6978 125.918 21.2222 121.981C28.5416 115.625 33.516 111.878 36.1453 110.74C39.3431 109.365 43.2042 108.831 47.7285 109.139C51.329 109.376 54.0294 109.946 55.8297 110.847C56.6114 111.226 58.2695 112.815 60.804 115.614C63.1491 118.175 64.7717 119.539 65.6718 119.705C66.2167 119.823 67.2826 119.562 68.8697 118.922L73.8085 116.93C78.7829 115.175 83.1059 115.044 86.7775 116.539C90.8517 118.222 95.2931 120.511 100.102 123.404C104.152 125.847 106.687 127.554 107.705 128.527C108.321 129.143 110.252 132.499 113.497 138.594L118.187 147.558L123.055 139.732C119.597 131.124 117.678 126.392 117.299 125.539C115.025 120.463 113.189 117.689 111.792 117.214C110.797 116.859 108.831 116.373 105.893 115.756L104.117 115.293L103.051 114.511L102.127 112.839L100.493 109.068C99.7109 107.384 99.0002 106.27 98.3607 105.724L96.5486 104.586L93.9903 102.985L87.6302 98.2894C85.901 96.9376 84.8943 95.9653 84.61 95.3724L83.9705 92.8467L83.1177 87.4751L81.9097 79.0086C81.3648 75.4039 80.7845 72.4275 80.1686 70.0797L76.3668 55.5658C75.2298 51.3444 74.531 49.0203 74.2704 48.5934C73.6309 47.5973 72.5175 46.8029 70.9305 46.21C69.4855 45.6408 68.1354 45.4155 66.8799 45.5341C65.6955 45.7238 61.3844 47.0993 53.9465 49.6606C45.8217 52.4353 41.3092 54.2733 40.4091 55.1745C36.2874 59.3247 30.863 67.056 24.1357 78.3683C16.4847 91.2221 11.5221 101.87 9.24811 110.313Z" fill="#008086"/>
<path d="M12.8368 129.487L13.7961 118.851C16.0227 110.669 20.8669 100.317 28.3284 87.7952C34.8662 76.8624 40.0775 69.4157 43.9622 65.4552C45.1229 64.6488 49.1972 63.048 56.185 60.6528C62.4385 58.5184 66.5957 57.1903 68.6565 56.6685C69.3671 56.6448 70.1488 56.799 71.0015 57.131C71.8543 57.4393 72.4346 57.7713 72.7426 58.1271C73.0979 59.0757 74.5665 64.4828 77.1485 74.3485L78.2855 78.7952C79.0435 81.6648 79.8133 85.9691 80.595 91.7083L81.1635 95.8348L82.1939 101.918C82.4308 103.199 82.7032 104.123 83.0111 104.693C83.4375 105.57 84.385 106.625 85.8536 107.859L93.3863 113.55L96.4064 115.436L97.579 116.147C106.059 123.784 110.82 127.78 111.863 128.135C113.189 129.226 115.83 134.835 119.786 144.962V144.997L123.055 139.732C119.597 131.124 117.678 126.392 117.299 125.539C115.025 120.463 113.189 117.689 111.792 117.214C110.797 116.859 108.831 116.373 105.893 115.756L104.117 115.293L103.051 114.511L102.127 112.839L100.493 109.068C99.7109 107.384 99.0002 106.27 98.3607 105.724L96.5486 104.586L93.9903 102.985L87.6302 98.2894C85.901 96.9376 84.8943 95.9653 84.61 95.3724L83.9705 92.8467L83.1177 87.4751L81.9097 79.0086C81.3648 75.4039 80.7845 72.4275 80.1686 70.0797L76.3668 55.5658C75.2298 51.3444 74.531 49.0203 74.2704 48.5934C73.6309 47.5973 72.5175 46.8029 70.9305 46.21C69.4855 45.6408 68.1354 45.4155 66.8799 45.5341C65.6955 45.7238 61.3844 47.0993 53.9465 49.6606C45.8217 52.4353 41.3092 54.2733 40.4091 55.1745C36.2874 59.3247 30.863 67.056 24.1357 78.3683C16.4847 91.2221 11.5221 101.87 9.24811 110.313L7.04516 134.859L12.8368 129.487Z" fill="#00666C"/>
<path d="M229.436 136.78L230.146 136.638L231.39 135.748C232.219 134.8 232.574 133.626 232.456 132.227C232.385 131.278 231.52 129.725 229.862 127.567C228.488 125.764 227.458 124.578 226.771 124.009L226.487 123.76L227.908 119.883L228.121 119.456C228.453 118.768 228.642 118.163 228.69 117.642C228.737 116.978 228.607 116.23 228.299 115.4C227.73 114.001 226.759 113.017 225.385 112.448C224.438 112.068 223.087 111.902 221.335 111.95L218.599 112.27C217.793 112.602 216.479 114.06 214.655 116.645L214.051 116.894L213.269 117.108L210.64 115.863C209.432 114.962 208.543 114.404 207.975 114.191C207.217 113.906 206.364 113.894 205.416 114.155C204.114 114.487 203 115.732 202.077 117.891C201.271 119.812 200.987 121.329 201.224 122.444C201.319 122.942 201.638 123.76 202.183 124.899L203.782 128.029L204.173 128.74L204.066 129.559C199.305 133.851 196.202 135.808 194.757 135.428L191.986 134.752C190.114 134.278 188.338 133.685 186.656 132.974C183.885 131.812 181.516 130.65 179.55 129.487C178.981 127.993 178.507 126.962 178.128 126.393C177.157 125.017 175.736 123.926 173.865 123.12C172.278 122.432 169.696 122.053 166.119 121.981C164.011 121.934 162.139 121.97 160.505 122.088L157.876 122.337L166.972 141.903L168.322 141.654L174.469 139.661L178.519 141.689L184.204 144.428L186.62 145.709L188.681 146.954C190.932 148.14 192.708 148.792 194.011 148.911C196.996 149.124 200.608 147.962 204.848 145.424C207.477 143.835 210.178 141.843 212.949 139.448C213.826 139.946 214.619 140.207 215.33 140.231C216.325 140.278 217.414 139.958 218.599 139.27C219.286 138.891 220.044 138.156 220.873 137.065L222.472 134.681L223.324 136.424L223.928 137.065L229.436 136.78Z" fill="#0D131A"/>
<path d="M229.365 134.93C229.649 134.93 229.921 134.824 230.182 134.61C230.727 134.183 230.964 133.472 230.892 132.476C230.845 131.764 230.585 131.029 230.111 130.27L228.299 127.958L226.025 125.788L224.603 124.507C224.343 124.104 224.888 122.325 226.238 119.171C226.854 117.748 227.162 116.8 227.162 116.325C227.185 115.211 226.416 114.333 224.852 113.693L221.583 113.515L219.203 113.906L217.71 115.614L216.147 117.713C215.673 118.377 214.832 118.756 213.624 118.851L210.249 117.215C209.443 116.598 208.745 116.231 208.152 116.112L206.163 116.29C205.428 116.48 204.718 117.404 204.031 119.065C203.391 120.63 203.143 121.756 203.285 122.444C203.379 122.966 203.77 123.914 204.457 125.29L205.807 127.958C206.139 128.622 206.092 129.499 205.665 130.59L201.153 134.183C197.813 136.507 195.302 137.444 193.62 136.994L190.316 135.855L185.341 133.934L178.022 130.839C177.903 130.199 177.584 129.464 177.063 128.634C175.997 126.974 174.386 125.681 172.23 124.756C170.785 124.14 168.417 123.82 165.124 123.796L160.647 123.938L168.038 139.875L173.261 137.136C178.14 139.673 182.025 141.535 184.915 142.721C185.957 143.171 187.746 144.049 190.28 145.353C191.938 146.231 193.158 146.693 193.94 146.741C196.64 146.954 200.039 145.816 204.137 143.326C206.648 141.784 209.207 139.887 211.812 137.634C211.907 137.563 211.788 137.231 211.457 136.638L210.924 135.748L212.807 137.065C213.139 137.444 213.612 137.729 214.228 137.918C215.436 138.322 216.763 138.12 218.208 137.314C219.44 136.602 220.47 135.582 221.299 134.254L222.152 132.476L224.675 135.179L229.365 134.93Z" fill="#F29600"/>
<path d="M206.234 123.085L209.112 124.828C210.723 125.61 211.836 126.013 212.452 126.037C212.831 126.037 213.151 125.93 213.411 125.717C213.861 125.243 213.92 124.033 213.589 122.089C213.281 120.286 212.914 119.029 212.487 118.318C211.919 117.44 211.149 116.8 210.178 116.397L207.442 116.29C206.613 116.598 206.009 117.168 205.63 117.998C205.298 118.709 205.203 119.48 205.346 120.31L205.417 120.808C205.559 121.875 205.831 122.634 206.234 123.085Z" fill="#0D131A"/>
<path d="M207.548 116.574L210.071 116.716C210.971 117.096 211.682 117.689 212.203 118.495C212.606 119.135 212.961 120.333 213.269 122.088C213.577 123.961 213.541 125.088 213.162 125.467C212.997 125.633 212.772 125.716 212.487 125.716C211.919 125.693 210.841 125.301 209.254 124.542C207.714 123.784 206.79 123.226 206.482 122.87C206.103 122.444 205.855 121.744 205.736 120.772L205.665 120.274C205.547 119.491 205.63 118.768 205.914 118.104C206.246 117.368 206.79 116.859 207.548 116.574ZM212.772 118.139C212.156 117.191 211.327 116.515 210.284 116.112L207.335 115.969C206.554 116.278 205.949 116.787 205.523 117.499C205.144 118.139 204.955 118.851 204.955 119.633L205.097 120.878C205.239 121.993 205.535 122.799 205.985 123.297C206.34 123.724 207.335 124.329 208.97 125.112C210.651 125.918 211.812 126.333 212.452 126.357C212.925 126.38 213.316 126.238 213.624 125.93C214.169 125.384 214.264 124.08 213.909 122.017C213.601 120.191 213.222 118.898 212.772 118.139Z" fill="#0D131A"/>
<path d="M208.046 121.234C208.472 121.756 210.06 123.013 212.807 125.005C213.02 124.792 213.032 123.879 212.843 122.266C212.63 120.63 212.345 119.479 211.99 118.815C211.587 118.128 211.019 117.606 210.285 117.25C209.527 116.871 208.828 116.8 208.188 117.037C207.501 117.274 207.028 117.748 206.767 118.46C206.838 119.124 206.992 119.681 207.229 120.132L208.046 121.234Z" fill="white"/>
<path d="M207.193 122.266C207.454 122.598 208.389 123.179 210 124.009C211.682 124.863 212.618 125.195 212.807 125.005C210.059 123.013 208.472 121.756 208.046 121.235L207.229 120.132C206.992 119.681 206.838 119.124 206.767 118.46C206.601 118.911 206.542 119.397 206.589 119.918L206.767 121.27L207.193 122.266Z" fill="#DBDCDC"/>
<path d="M229.898 132.084C229.424 131.681 228.749 131.396 227.872 131.23C226.949 131.064 226.143 131.254 225.456 131.8C224.983 132.179 224.651 132.653 224.461 133.223L222.614 136.14C222.353 136.424 221.879 136.685 221.193 136.922L220.091 137.242L220.588 138.274C221.11 139.341 222.626 139.804 225.137 139.661L228.015 139.27C229.009 138.962 229.803 138.369 230.395 137.491C230.798 136.898 231.047 136.223 231.141 135.464C231.236 134.729 231.153 134.088 230.893 133.543L230.786 133.365C230.549 132.819 230.253 132.393 229.898 132.084Z" fill="#0D131A"/>
<path d="M229.791 132.226C230.099 132.487 230.383 132.879 230.644 133.4L230.75 133.614C230.987 134.136 231.07 134.752 230.999 135.464C230.904 136.199 230.668 136.851 230.289 137.42C229.696 138.25 228.927 138.807 227.979 139.092L225.137 139.483C222.673 139.626 221.216 139.199 220.766 138.203L220.304 137.349L221.228 137.064C221.986 136.804 222.495 136.531 222.756 136.246C223.088 135.867 223.692 134.918 224.568 133.4L224.604 133.365L224.71 133.187C224.9 132.641 225.219 132.191 225.669 131.835C226.285 131.361 227.02 131.207 227.872 131.373C228.701 131.539 229.341 131.823 229.791 132.226ZM230.537 137.598C231.082 136.792 231.354 135.914 231.354 134.966C231.354 134.396 231.248 133.898 231.035 133.471L230.928 133.294C230.644 132.701 230.336 132.262 230.004 131.977C229.507 131.527 228.808 131.218 227.908 131.052C227.008 130.886 226.226 131.052 225.563 131.551C225.065 131.906 224.686 132.392 224.426 133.009L222.507 136.033C222.27 136.317 221.808 136.555 221.121 136.744L220.056 137.1L219.949 137.171L219.913 137.242L220.446 138.345C220.991 139.46 222.555 139.946 225.137 139.804L228.05 139.412C229.092 139.08 229.921 138.475 230.537 137.598Z" fill="#0D131A"/>
<path d="M229.969 133.969L229.4 133.08C229.045 132.748 228.512 132.523 227.801 132.404C227.067 132.262 226.487 132.452 226.06 132.973C225.823 133.21 225.669 133.471 225.598 133.756L224.817 135.072L223.609 136.851C223.23 137.278 222.614 137.622 221.761 137.882C226.025 138.499 228.761 137.195 229.969 133.969Z" fill="white"/>
<path d="M229.649 136.993C229.957 136.542 230.147 136.032 230.218 135.463C230.265 134.942 230.206 134.503 230.04 134.147L229.969 133.969C228.761 137.195 226.025 138.499 221.761 137.882C221.832 138.048 222.045 138.202 222.401 138.345L225.279 138.665L227.766 138.38C228.548 138.143 229.175 137.681 229.649 136.993Z" fill="#DBDCDC"/>
<path d="M221.726 116.218C220.991 117.048 220.683 118.009 220.802 119.1C220.873 120.072 221.169 120.76 221.69 121.163L223.218 122.586L224.746 124.293C225.03 124.744 225.196 125.491 225.243 126.534L225.492 127.459L226.522 127.424C227.138 127.234 227.73 126.866 228.299 126.321C229.436 125.206 230.004 123.7 230.004 121.803C230.004 120.001 229.235 118.056 227.695 115.969C227.505 115.708 227.115 115.459 226.522 115.222C225.978 115.032 225.468 114.926 224.994 114.902C223.668 114.831 222.578 115.27 221.726 116.218Z" fill="#0D131A"/>
<path d="M227.979 115.791C227.742 115.459 227.292 115.175 226.629 114.937L225.03 114.582C223.561 114.511 222.377 114.985 221.477 116.005C220.719 116.882 220.375 117.926 220.446 119.135C220.565 120.179 220.908 120.949 221.477 121.447L222.969 122.799C223.774 123.605 224.272 124.163 224.461 124.471C224.722 124.851 224.876 125.562 224.923 126.605L225.172 127.53L225.279 127.708L226.522 127.744H226.593C227.185 127.625 227.825 127.222 228.512 126.534C229.72 125.372 230.324 123.795 230.324 121.803C230.324 119.977 229.542 117.973 227.979 115.791ZM223.431 122.372L221.903 120.914C221.453 120.582 221.192 119.965 221.121 119.064L221.086 118.779C221.086 117.926 221.382 117.143 221.974 116.431C222.708 115.601 223.715 115.198 224.994 115.222L226.38 115.542L227.446 116.182C228.938 118.222 229.684 120.096 229.684 121.803C229.684 123.558 229.175 124.957 228.157 126.001C227.612 126.57 227.043 126.937 226.451 127.103L225.74 127.139L225.563 126.499C225.563 125.479 225.385 124.684 225.03 124.115C224.817 123.783 224.284 123.202 223.431 122.372Z" fill="#0D131A"/>
<path d="M223.147 119.918L225.314 121.874C226.262 123.084 226.487 124.519 225.989 126.179V126.357C226.439 126.214 226.901 125.918 227.375 125.467C228.299 124.542 228.761 123.274 228.761 121.661C228.761 120.712 228.512 119.669 228.015 118.531C227.636 117.677 227.209 116.942 226.735 116.325C226.428 115.946 225.764 115.756 224.746 115.756C223.609 115.78 222.768 116.112 222.223 116.752L221.868 117.214C222.105 118.4 222.531 119.301 223.147 119.918Z" fill="white"/>
<path d="M222.045 120.274C223.751 121.555 224.852 122.563 225.35 123.298C225.681 123.843 225.894 124.804 225.989 126.179C226.487 124.519 226.262 123.084 225.314 121.875L223.147 119.918C222.531 119.302 222.104 118.401 221.868 117.215C221.536 117.808 221.429 118.448 221.548 119.136C221.643 119.705 221.808 120.084 222.045 120.274Z" fill="#DBDCDC"/>
<path d="M222.152 128.385C222.152 126.772 221.548 125.313 220.34 124.009C219.108 122.705 217.71 122.029 216.147 121.981C217.924 124.306 218.634 126.262 218.279 127.851C218.042 128.918 217.083 129.819 215.401 130.555C214.003 131.171 212.629 131.503 211.279 131.551L212.843 133.329C213.459 133.851 214.181 134.112 215.01 134.112C216.739 134.112 218.338 133.567 219.807 132.476C221.37 131.29 222.152 129.926 222.152 128.385Z" fill="#D18200"/>
<path d="M216.929 123.084C215.792 121.281 215.129 120.475 214.939 120.665L216.396 123.19C217.367 125.064 217.734 126.558 217.497 127.673C217.284 128.527 216.431 129.321 214.939 130.056C213.542 130.744 212.251 131.088 211.066 131.088C210.237 131.088 209.349 130.886 208.401 130.483L207.229 129.949C208.295 131.017 209.598 131.55 211.137 131.55C212.464 131.55 213.861 131.23 215.33 130.59C217.059 129.855 218.042 128.942 218.279 127.851C218.563 126.594 218.113 125.005 216.929 123.084Z" fill="#0D131A"/>
<path d="M177.347 160.436L175.393 159.511L152.368 212.231L155.246 212.587C156.976 212.8 158.456 213.097 159.688 213.476C160.233 213.666 161.251 214.318 162.743 215.433L165.053 216.962C164.342 217.958 163.786 219.357 163.383 221.16C163.004 222.844 162.909 223.994 163.099 224.611C163.336 225.441 163.774 226.164 164.413 226.78C165.006 227.35 165.657 227.741 166.368 227.954C169.044 228.524 171.176 229.14 172.763 229.804C173.782 230.207 175.31 231.085 177.347 232.437L180.296 234.535L181.468 235.674C182.061 236.077 182.783 236.35 183.636 236.492C184.347 236.611 185.531 236.409 187.189 235.887L189.818 236.492L192.625 237.203C193.881 237.63 194.97 238.057 195.894 238.484L197.28 239.16C197.991 239.492 198.512 239.622 198.843 239.551C199.341 239.433 199.53 238.923 199.412 238.022C199.293 237.168 198.974 236.16 198.452 234.998L197.706 233.504L204.173 233.824C204.978 233.966 205.748 234.18 206.483 234.464L208.046 235.14L209.361 235.247C209.597 235.105 209.68 234.856 209.609 234.5C209.515 233.741 209.278 232.923 208.899 232.045C208.164 230.267 207.004 228.642 205.417 227.172L208.188 227.101C209.515 227.124 210.58 227.314 211.386 227.67C212.594 228.239 212.949 227.717 212.452 226.105C212.049 224.8 210.829 223.354 208.792 221.765C207.655 220.911 206.423 220.164 205.097 219.523C203.984 218.978 203.048 218.622 202.29 218.456L201.935 218.385L201.117 218.314L196.711 215.539C195.48 214.686 194.283 213.654 193.123 212.444L191.488 210.452L191.133 208.816L193.229 207.251C194.343 206.373 195.219 205.508 195.859 204.654C198.322 201.334 199.743 198.417 200.122 195.903C200.809 191.183 199.21 185.504 195.326 178.863C192.72 174.381 188.61 169.78 182.996 165.061C178.496 161.646 176.613 160.104 177.347 160.436Z" fill="#0D131A"/>
<path d="M182.25 166.234C180.853 165.072 179.479 164.088 178.129 163.282L176.494 162.393L155.531 210.452C157.355 210.666 158.954 210.986 160.328 211.413C161.062 211.65 161.997 212.255 163.134 213.227C164.414 214.318 165.397 215.029 166.084 215.361C166.486 215.575 167.114 215.966 167.967 216.535L169.104 217.318L168.109 217.46C167.422 217.555 166.96 217.674 166.723 217.816C166.439 218.006 166.143 218.622 165.835 219.666L165.195 222.618C165.669 223.377 166.735 224.101 168.393 224.788C169.577 225.263 170.833 225.654 172.159 225.962C173.391 226.247 174.718 226.662 176.139 227.207C177.821 227.824 179.112 228.44 180.012 229.057L182.677 230.729C183.529 231.203 184.287 231.476 184.951 231.547L186.727 234.215C188.812 233.527 191.192 232.496 193.869 231.12C196.735 229.626 198.926 228.239 200.442 226.958C202.172 225.512 203.166 224.148 203.427 222.867L203.285 221.373L195.255 216.357C193.857 215.385 192.578 214.247 191.417 212.942C190.517 211.923 189.949 211.128 189.712 210.559L189.57 209.563L188.184 209.99L184.418 210.274L186.372 209.847L187.9 209.278C188.279 209.16 188.764 208.923 189.357 208.567L190.174 208.033C190.979 207.511 192.14 206.231 193.656 204.191C195.551 201.701 196.7 198.915 197.102 195.832C197.789 190.922 196.569 185.61 193.443 179.895C190.434 174.416 186.704 169.863 182.25 166.234Z" fill="#F29600"/>
<path d="M168.393 224.789C166.735 224.101 165.669 223.378 165.195 222.619C165.077 223.615 165.053 224.219 165.124 224.433C165.408 225.168 165.953 225.761 166.758 226.212L168.748 226.959L173.012 228.275C173.509 228.37 174.753 229.022 176.743 230.231L180.402 232.508L181.859 233.753C182.475 234.275 183.209 234.607 184.062 234.749C184.536 234.82 185.424 234.642 186.727 234.216L184.95 231.548C184.287 231.476 183.529 231.204 182.676 230.729L180.012 229.057C179.112 228.441 177.821 227.824 176.139 227.208C174.717 226.662 173.391 226.247 172.159 225.963C170.833 225.654 169.577 225.263 168.393 224.789Z" fill="#D18200"/>
<path d="M187.544 211.377C188.018 211.069 188.219 210.867 188.148 210.772L187.438 210.986L185.945 211.484L183.991 211.662L182.89 211.804L183.956 212.089L185.91 212.018C186.455 211.923 186.999 211.709 187.544 211.377Z" fill="#0D131A"/>
<path d="M176.601 207.002C179.325 202.994 180.687 198.524 180.687 193.591C180.687 189.725 179.822 186.097 178.093 182.705C176.411 179.433 174.113 176.729 171.2 174.595L155.531 210.453C157.355 210.666 158.953 210.986 160.327 211.413C161.062 211.65 161.997 212.255 163.134 213.227C164.413 214.318 165.396 215.03 166.083 215.362L166.119 215.397C170.43 213.737 173.924 210.939 176.601 207.002Z" fill="#D18200"/>
<path d="M201.26 219.773C200.928 219.678 200.644 219.821 200.407 220.2C200.146 220.603 199.969 221.208 199.874 222.014C199.755 223.176 199.874 224.552 200.229 226.141H207.868C208.674 226.188 209.633 226.402 210.746 226.781L212.168 227.35C212.262 227.066 212.18 226.651 211.919 226.105C211.422 225.038 210.332 223.876 208.65 222.619C207.513 221.765 206.021 221.066 204.173 220.52L201.26 219.773Z" fill="white"/>
<path d="M204.67 224.646C202.041 224.456 200.62 224.088 200.407 223.543H200.371L200.62 225.642L207.904 225.677C208.662 225.701 209.514 225.867 210.462 226.175C208.97 225.345 207.039 224.835 204.67 224.646Z" fill="#DBDCDC"/>
<path d="M201.828 219.417L201.401 219.31L200.442 219.452C199.874 219.832 199.518 220.674 199.376 221.978V223.579L200.371 223.543V222.085C200.466 221.136 200.667 220.531 200.975 220.271C201.401 219.986 202.456 220.164 204.137 220.804C205.796 221.421 207.205 222.156 208.366 223.01C210.142 224.338 211.22 225.524 211.599 226.567L210.462 226.176L209.751 226.994L211.99 227.812H212.381C212.546 227.741 212.641 227.634 212.665 227.492C212.736 227.018 212.641 226.508 212.381 225.962C211.86 224.8 210.711 223.555 208.934 222.227C207.371 221.065 205.002 220.128 201.828 219.417Z" fill="#0D131A"/>
<path d="M207.868 226.638L209.751 226.994L210.462 226.175C209.514 225.867 208.662 225.701 207.904 225.677L200.62 225.642L200.371 223.543L199.376 223.579L199.731 226.247C199.803 226.507 199.968 226.638 200.229 226.638H207.868Z" fill="#0D131A"/>
<path d="M201.65 230.835C204.303 231.547 206.4 232.543 207.939 233.824L207.335 234.037L208.97 234.748C209.017 234.274 208.899 233.669 208.615 232.934C208.093 231.44 207.063 230.005 205.523 228.63C204.457 227.705 202.953 226.638 201.011 225.428L197.955 223.65C197.6 223.436 196.996 223.733 196.143 224.539C195.196 225.393 194.568 226.353 194.26 227.42L194.082 228.096L195.539 229.27C196.179 229.65 196.759 229.887 197.28 229.982L201.65 230.835Z" fill="white"/>
<path d="M203.818 232.863C204.505 232.982 205.677 233.373 207.335 234.037L207.939 233.824C206.4 232.543 204.303 231.547 201.65 230.836L197.28 229.982C196.759 229.887 196.178 229.65 195.539 229.271L194.082 228.097C193.774 229.496 193.715 230.824 193.904 232.081L203.818 232.863Z" fill="#DBDCDC"/>
<path d="M208.33 233.788L207.939 233.753C205.997 232.946 204.647 232.484 203.889 232.365L194.366 231.618C194.224 230.148 194.343 228.796 194.722 227.563C194.982 226.662 195.503 225.82 196.285 225.037C196.948 224.397 197.434 224.077 197.742 224.077L197.92 224.183C201.331 226.104 203.759 227.705 205.203 228.986C206.791 230.385 207.809 231.855 208.259 233.397L208.33 233.788ZM206.802 234.357C208.034 234.855 208.686 235.14 208.757 235.211L209.219 235.176L209.467 234.784C209.491 234.239 209.361 233.563 209.076 232.757C208.532 231.191 207.454 229.697 205.843 228.274C204.327 226.899 201.852 225.251 198.417 223.33L198.204 223.223C197.967 223.081 197.623 223.081 197.173 223.223C196.605 223.46 195.977 223.97 195.29 224.753C194.509 225.606 193.952 226.508 193.62 227.456C193.17 228.737 192.993 229.887 193.087 230.907L193.407 232.152C193.454 232.389 193.608 232.531 193.869 232.579L203.711 233.326C204.374 233.421 205.405 233.764 206.802 234.357Z" fill="#0D131A"/>
<path d="M191.026 228.345C190.742 228.108 189.972 228.298 188.717 228.915C187.39 229.555 186.466 230.255 185.945 231.013L185.803 231.262L186.407 230.942C186.407 231.796 186.834 232.424 187.686 232.828L191.915 234.606C194.496 235.768 196.238 236.788 197.138 237.666L196.818 237.95L198.097 238.519C198.286 238.211 198.346 237.772 198.275 237.203C198.18 236.065 197.54 234.891 196.356 233.681C193.585 230.764 191.808 228.986 191.026 228.345Z" fill="white"/>
<path d="M185.093 233.931L192.057 236.172C193.218 236.551 194.805 237.144 196.818 237.95L197.138 237.666C196.238 236.788 194.497 235.768 191.915 234.606L187.687 232.828C186.834 232.425 186.407 231.796 186.407 230.942L185.803 231.263C185.188 232.282 184.951 233.172 185.093 233.931Z" fill="#DBDCDC"/>
<path d="M186.372 231.299C186.798 230.659 187.58 230.042 188.717 229.449C189.712 228.927 190.399 228.69 190.778 228.738L196.037 234.038C197.126 235.153 197.718 236.22 197.813 237.24C197.861 237.643 197.659 237.761 197.209 237.595L192.235 235.71L188.184 234.465L185.732 233.54C185.496 232.971 185.709 232.224 186.372 231.299ZM191.346 227.955C191.157 227.813 190.849 227.753 190.423 227.777C189.712 227.872 188.859 228.204 187.864 228.773C186.798 229.39 186.029 230.042 185.555 230.73C184.915 231.678 184.56 232.556 184.489 233.362C184.418 233.908 184.489 234.311 184.702 234.572C184.773 234.69 185.034 234.785 185.484 234.856L187.9 235.425L191.915 236.635C193.265 237.085 194.663 237.607 196.108 238.2L197.884 238.947C198.145 239.066 198.358 239.006 198.524 238.769C198.737 238.366 198.82 237.844 198.772 237.204C198.701 235.947 198.014 234.655 196.712 233.327C193.727 230.243 191.939 228.453 191.346 227.955Z" fill="#0D131A"/>
<path d="M137.019 64.5302C136.521 64.6488 136.119 64.9097 135.811 65.3129C135.503 65.716 135.361 66.1785 135.384 66.7002L135.811 78.1904C136.024 86.2774 136 91.566 135.74 94.0561C135.408 97.0443 134.461 100.981 132.897 105.866C131.215 111.084 129.403 115.448 127.461 118.957C126.466 120.736 124.322 124.175 121.03 129.274L112.538 142.792C109.411 148.033 107.232 152.207 106 155.313C103.039 162.831 100.943 169.021 99.711 173.883C97.4607 182.658 96.7856 190.401 97.6857 197.112C98.6806 204.417 101.713 210.132 106.782 214.259C111.756 218.338 118.353 220.567 126.573 220.946C136.427 221.397 145.381 219.915 153.434 216.5C164.023 212.041 172.432 204.476 178.662 193.804C184.394 183.962 185.946 172.91 183.316 160.649C181.398 151.709 177.181 142.009 170.667 131.55C164.887 122.23 161.382 109.4 160.15 93.0601C159.771 87.7004 160.375 80.7873 161.962 72.3208L164.485 61.0796C164.532 60.7713 164.342 60.4512 163.916 60.1191L162.815 59.3365C162.246 58.7911 161.571 58.6132 160.789 58.8029L137.019 64.5302Z" fill="#0D131A"/>
<path d="M174.398 196.543C166.06 203.515 157.212 207.891 147.856 209.67C138.476 211.448 130.339 210.251 123.446 206.077C122.072 210.013 120.366 212.836 118.329 214.543C117.382 215.373 116.15 216.132 114.634 216.82C118.116 218.266 122.096 219.096 126.573 219.31C135.313 219.689 143.284 218.527 150.485 215.824C160.292 212.124 168.263 205.697 174.398 196.543Z" fill="#DDD583"/>
<path d="M180.047 156.381C177.916 150.31 175.203 145.46 171.911 141.831C167.339 136.804 161.962 134.515 155.779 134.966C148.365 135.535 141.78 141.25 136.024 152.112C130.884 161.812 127.982 172.045 127.319 182.812C126.703 192.772 125.412 200.527 123.446 206.077C130.339 210.251 138.476 211.448 147.856 209.67C157.213 207.891 166.06 203.516 174.398 196.543L176.388 193.377C182.665 182.634 183.885 170.302 180.047 156.381Z" fill="#FFF697"/>
<path d="M125.684 137.669C125.684 134.895 124.82 132.357 123.091 130.057C116.79 139.827 112.502 146.93 110.228 151.365H110.37C114.61 151.365 118.223 150.025 121.207 147.345C124.192 144.689 125.684 141.464 125.684 137.669Z" fill="#D18200"/>
<path d="M137.552 66.6648L137.587 68.3368L137.729 82.0681C137.729 86.7875 137.646 90.3804 137.48 92.8468L137.374 94.0563C137.019 97.4713 136.107 101.657 134.638 106.614C133.027 112.068 131.262 116.527 129.344 119.989L118.684 136.958C113.189 145.638 109.636 152.017 108.025 156.096C105.04 163.685 102.92 169.958 101.665 174.915C99.5804 183.191 98.9645 190.496 99.8173 196.828C100.433 201.405 101.902 205.342 104.223 208.638C106.426 211.792 109.352 214.271 112.999 216.073C114.871 215.361 116.375 214.52 117.512 213.547C119.786 211.603 121.539 208.247 122.771 203.48C123.908 198.95 124.737 192.464 125.258 184.021C125.566 178.851 126.442 173.373 127.887 167.586C129.427 161.42 131.334 156.12 133.608 151.685C136.095 146.823 138.985 142.768 142.277 139.519C146.494 135.369 150.876 133.128 155.424 132.796C163.359 132.203 170.252 136.424 176.103 145.46C174.232 141.262 171.981 137.041 169.352 132.796C163.335 123.167 159.723 110.254 158.515 94.0563C158.302 90.8784 158.515 86.574 159.155 81.1432C159.842 75.4277 160.753 70.732 161.89 67.0561L161.286 61.0798V60.9375L137.552 66.6648Z" fill="#F29600"/>
<path d="M137.552 66.6648L137.587 68.3368L137.729 82.0681C137.729 86.7875 137.646 90.3804 137.481 92.8468L137.374 94.0563L136.663 98.6097C140.975 99.7718 145.179 98.918 149.277 96.0484C152.688 93.6531 155.85 89.9772 158.764 85.0207C159.356 77.8823 160.398 71.8941 161.891 67.0561L161.287 61.0798V60.9375L137.552 66.6648Z" fill="#D18200"/>
<path d="M98.1832 166.554C94.5116 170.752 91.4678 175.282 89.0517 180.143C85.8302 186.57 84.2194 193.388 84.2194 200.598C84.2194 204.321 85.084 208.341 86.8132 212.657C87.6659 214.839 88.5305 216.677 89.407 218.171C89.5965 219.309 89.6912 220.46 89.6912 221.622C86.5408 224.041 84.4681 225.891 83.4732 227.171L81.8388 229.163L80.6307 230.586C79.5411 231.227 78.8305 231.914 78.4989 232.649C78.1909 233.385 78.0606 234.262 78.108 235.282L75.8695 239.373C75.0405 241.223 74.7089 242.989 74.8747 244.673C74.9694 245.574 75.1826 246.31 75.5142 246.879C75.9406 247.827 76.3907 248.325 76.8644 248.373L77.6461 247.804L78.108 247.199C79.2924 245.966 80.1215 245.231 80.5952 244.993L82.8692 244.14L85.6051 243.179L88.2344 243.321V244.958C88.2818 246.238 88.4595 247.306 88.7674 248.159C89.1227 249.179 89.5728 250.057 90.1176 250.792C90.6624 251.551 91.1006 251.883 91.4323 251.788C91.5981 251.764 91.9652 251.302 92.5337 250.401C92.9838 249.689 93.4812 249.073 94.0261 248.551L96.9396 246.63L99.8177 245.029L101.346 244.495L103.548 244.531C103.927 246.049 104.697 247.804 105.858 249.796C106.474 250.982 106.924 251.563 107.208 251.539C107.374 251.515 107.67 251.219 108.096 250.65L108.665 249.831C109.447 248.551 110.074 247.661 110.548 247.163L112.68 245.278L115.167 243.108L116.802 242.539L117.939 241.685C118.341 241.329 118.626 240.902 118.791 240.404C118.91 240.049 118.993 239.551 119.04 238.91C119.23 234.879 117.832 230.42 114.847 225.535L115.061 222.76C118.377 221.124 121.527 218.468 124.512 214.792C127.023 211.709 128.61 207.748 129.273 202.91L129.557 196.543C129.415 192.677 128.018 188.835 125.365 185.017C123.801 182.74 122.048 180.784 120.106 179.147L105.076 160.542L105.645 157.021L103.939 160.471L98.1832 166.554Z" fill="#0D131A"/>
<path d="M93.7415 104.657L93.5994 103.874C93.4336 102.309 92.8177 101.064 91.7518 100.139L91.5386 99.9609C90.8753 99.2969 90.0226 98.7989 88.9803 98.4669C87.5354 97.9925 86.2563 98.0874 85.143 98.7514C83.7454 99.5578 82.6439 100.921 81.8385 102.842C80.9621 104.953 80.9621 106.672 81.8385 108.001L82.8334 109.886C83.2361 110.716 83.4611 111.273 83.5085 111.558C83.4375 111.842 83.1295 112.329 82.5847 113.016L81.3056 114.51L78.0722 113.906C76.7457 113.811 75.7864 114.214 75.1942 115.115C74.8862 115.59 74.6257 117.095 74.4125 119.633C74.1993 122.194 74.2348 123.76 74.5191 124.329C74.7086 124.708 75.0284 125.064 75.4784 125.396L77.1484 126.499L78.6052 127.068C79.2448 127.281 79.6238 127.471 79.7422 127.637C80.5239 128.491 81.6727 130.186 83.1887 132.724C83.5677 133.364 84.231 133.862 85.1785 134.218L87.3814 134.716C89.1817 141.973 90.7924 147.143 92.2137 150.226C93.327 152.669 94.6298 154.376 96.1221 155.349C97.4486 156.202 99.0831 156.653 101.025 156.7C102.755 156.748 104.117 156.499 105.112 155.953C105.419 155.787 106.853 154.353 109.411 151.649L113.923 146.989L116.375 145.21L118.933 143.538C119.904 142.874 121.065 142.234 122.415 141.617L124.156 140.906L125.507 140.799L127.034 141.084L127.852 141.333L126.288 140.23C127.709 140.04 128.432 139.827 128.456 139.59C128.479 139.447 128.302 139.353 127.923 139.305H127.319L137.907 122.941C138.712 123.321 139.174 123.321 139.293 122.941C139.364 122.704 139.352 122.503 139.257 122.337L138.795 121.839C138.535 121.625 137.481 121.009 135.633 119.989C133.951 119.088 132.021 118.412 129.841 117.961C127.473 117.487 125.661 117.475 124.405 117.925C122.131 118.756 120.532 119.929 119.608 121.447C118.732 122.941 118.282 125.171 118.258 128.135L116.446 129.131C115.664 129.582 115.06 130.032 114.634 130.483L114.03 131.159L110.939 134.645C109.47 136.281 108.369 137.36 107.634 137.882C106.639 138.594 105.455 138.973 104.081 139.02L101.31 138.807L100.706 134.787C100.492 132.582 100.469 131.099 100.635 130.341L102.695 128.597C103.761 128.218 104.472 127.874 104.827 127.566C105.538 126.854 105.858 125.704 105.787 124.115L105.751 122.408L106.355 121.874C108.013 120.499 109.127 119.384 109.695 118.53C110.572 117.25 110.82 115.767 110.441 114.084C110.086 112.542 109.47 111.582 108.594 111.202C107.907 110.918 107.575 110.799 107.599 110.846L104.117 109.103C103.524 108.89 102.956 108.937 102.411 109.246L101.31 110.242C100.646 110.906 100.256 111.25 100.137 111.273L97.6855 111.593L95.447 107.965C94.4522 106.234 93.8837 105.131 93.7415 104.657Z" fill="#0D131A"/>
<path d="M91.7872 105.049L91.503 103.057C91.3609 102.25 91.1358 101.717 90.8279 101.456L88.9803 100.069C87.867 99.6417 86.5523 99.8432 85.0363 100.673L83.7572 103.057C83.0229 104.812 82.9281 106.104 83.4729 106.934C83.8282 107.456 84.2072 108.322 84.6099 109.531C85.0363 110.764 85.2139 111.571 85.1429 111.95C85.0008 112.828 84.373 113.776 83.2597 114.796L81.6253 116.041L79.6711 115.472C78.2735 115.235 77.326 115.484 76.8286 116.219C76.3074 116.978 76.0232 118.318 75.9758 120.239C75.9284 121.922 76.0232 122.99 76.2601 123.44L78.2853 124.899C79.6355 125.705 80.5001 126.31 80.8791 126.713L83.1531 129.417C84.148 130.65 84.7284 131.432 84.8942 131.764C85.2732 132.405 86.0785 132.891 87.3103 133.223L89.0513 133.507L89.5843 136.851C90.1291 139.626 90.899 142.306 91.8938 144.891C93.0545 147.879 93.9783 149.895 94.6653 150.938C95.2575 151.816 96.1339 152.634 97.2946 153.393C98.3132 154.057 99.5923 154.448 101.132 154.567C102.553 154.686 103.595 154.555 104.259 154.176C104.638 153.986 105.479 153.097 106.781 151.508C108.155 149.824 109.209 148.709 109.944 148.164L113.568 145.211C115.297 143.764 116.707 142.674 117.796 141.938C119.241 140.942 121.941 140.124 125.897 139.484L127.567 139.27H128.207L138.262 123.156L133.323 120.95C129.723 119.598 127.176 119.183 125.684 119.705C123.931 120.345 122.652 121.045 121.847 121.804C121.112 122.468 120.568 123.381 120.212 124.543C119.786 125.99 119.644 127.555 119.786 129.239L118.294 130.092C117.18 130.78 116.328 131.444 115.735 132.085L112.609 135.464C111.045 137.053 109.79 138.191 108.842 138.879C106.781 140.349 104.448 140.978 101.843 140.764C102.032 141.429 102.541 142.021 103.37 142.543L105.147 143.788L106.604 144.642C106.983 144.95 107.184 145.389 107.208 145.958C107.232 146.598 106.971 147.583 106.426 148.911C105.881 150.215 105.514 150.832 105.325 150.761L105.716 149.516C106.142 148.425 106.32 147.31 106.248 146.172C106.248 145.934 106.095 145.697 105.787 145.46C105.597 145.342 105.135 145.069 104.401 144.642L102.837 143.753C101.961 143.183 101.168 142.33 100.457 141.191L100.173 140.551L99.6752 138.701L98.7869 134.61C98.5737 133.33 98.5382 132.096 98.6803 130.911L99.0001 129.523C100.54 128.029 101.558 127.175 102.056 126.962L103.228 126.357C103.631 125.93 103.832 125.183 103.832 124.116L103.797 122.266L103.939 121.484L105.929 119.99C107.279 119.065 108.167 118.306 108.594 117.713C109.636 116.266 109.861 114.962 109.269 113.8L108.096 112.484L103.477 110.954L102.482 111.843C101.819 112.555 101.25 112.994 100.777 113.16L98.3961 113.551L96.6195 113.373C96.3116 113.207 95.4588 111.926 94.0612 109.531C92.64 107.136 91.882 105.642 91.7872 105.049Z" fill="#F29600"/>
<path d="M99.0358 117.392C99.1305 118.341 99.6398 118.958 100.564 119.242C101.416 119.503 102.103 119.408 102.624 118.958C103.619 118.104 104.484 117.523 105.218 117.215L106.355 117.037L107.208 116.93C108.037 116.788 108.617 116.112 108.949 114.902C109.162 114.072 109.186 113.242 109.02 112.412C108.783 111.416 108.286 110.574 107.528 109.886C106.628 109.08 105.538 108.736 104.259 108.855C103.098 108.973 102.317 109.317 101.914 109.886L101.701 110.1C100.208 111.594 99.3674 112.922 99.1779 114.084C98.9647 115.412 98.9174 116.515 99.0358 117.392Z" fill="#0D131A"/>
<path d="M99.3199 116.361L99.4976 114.155C99.6871 113.112 100.492 111.843 101.914 110.349L102.162 110.1C102.541 109.626 103.252 109.329 104.294 109.211C105.431 109.068 106.438 109.377 107.314 110.136C108.309 111.037 108.807 112.163 108.807 113.515L108.629 114.796C108.321 115.887 107.836 116.491 107.172 116.61L106.32 116.717L105.076 116.895C104.342 117.227 103.56 117.748 102.731 118.46C102.233 118.839 101.594 118.97 100.812 118.851C99.9595 118.709 99.4857 118.27 99.391 117.535L99.3199 116.361ZM98.858 114.049C98.6211 115.472 98.704 116.764 99.1067 117.926C99.5568 119.112 99.9831 119.812 100.386 120.025C100.789 120.238 101.333 120.037 102.02 119.42C102.707 118.804 103.821 118.163 105.36 117.499L107.279 117.25C108.226 117.108 108.89 116.349 109.269 114.974C109.506 114.096 109.529 113.219 109.34 112.341C109.103 111.298 108.57 110.408 107.741 109.673C106.793 108.796 105.621 108.416 104.223 108.535L102.66 108.962L101.665 109.673L101.452 109.887C99.9358 111.404 99.0712 112.792 98.858 114.049Z" fill="#0D131A"/>
<path d="M104.223 109.779C103.465 109.898 102.968 110.099 102.731 110.384L101.523 111.736C100.812 112.613 100.398 113.384 100.279 114.048C100.019 115.661 100.031 116.965 100.315 117.961L100.848 118.993L101.097 118.744C101.476 117.677 102.447 116.574 104.01 115.435L105.005 115.186C105.597 115.092 106.095 114.914 106.497 114.653L108.025 113.052C107.93 112.009 107.516 111.178 106.782 110.562C106.071 109.922 105.218 109.661 104.223 109.779Z" fill="white"/>
<path d="M106.959 115.721C107.243 115.673 107.504 115.389 107.741 114.867C107.978 114.298 108.072 113.693 108.025 113.053L106.497 114.654C106.094 114.914 105.597 115.092 105.005 115.187L104.01 115.436C102.447 116.575 101.475 117.677 101.096 118.744C102.494 117.416 103.738 116.515 104.827 116.041L105.858 115.827L106.959 115.721Z" fill="#DBDCDC"/>
<path d="M86.1376 98.7876C84.9296 99.333 84.1479 100.258 83.7925 101.562C83.5557 102.392 83.5201 103.294 83.686 104.266C83.8044 105.12 84.0057 105.724 84.29 106.08C87.5352 109.211 89.6671 110.894 90.6856 111.132C91.1594 111.203 91.5029 111.108 91.716 110.847C92.2372 110.207 92.6043 108.855 92.8175 106.792C93.0544 104.61 92.9241 103.009 92.4267 101.989C90.9817 98.6453 88.8854 97.5781 86.1376 98.7876Z" fill="#0D131A"/>
<path d="M86.3868 99.321C87.7844 98.7044 88.9688 98.7637 89.94 99.4988C90.6506 100.021 91.302 100.934 91.8942 102.238C92.3442 103.21 92.4982 104.764 92.3561 106.898C92.2376 108.938 91.9771 110.206 91.5744 110.704L91.0414 110.776C90.4966 110.657 89.3478 109.851 87.5949 108.357L84.7524 105.724L84.3615 104.728L84.1839 103.092L84.3615 101.704C84.6458 100.59 85.3209 99.7953 86.3868 99.321ZM92.7469 101.74C92.1547 99.985 91.2428 98.7992 90.011 98.1826C88.8029 97.566 87.4409 97.5897 85.9249 98.2538C84.4563 98.8941 83.5443 100.115 83.189 101.918C82.8574 103.625 83.1535 105.06 84.0773 106.222C84.9774 107.503 86.2684 108.783 87.9502 110.064C89.7268 111.44 90.9467 111.997 91.6099 111.736C92.3442 111.451 92.8654 110.195 93.1733 107.965C93.5049 105.617 93.3628 103.542 92.7469 101.74Z" fill="#0D131A"/>
<path d="M91.5388 102.061C90.9703 100.804 90.3426 99.938 89.6556 99.4637L86.5644 99.3569C85.9012 99.6178 85.3801 100.092 85.0011 100.78C85.0958 102.132 85.4511 103.294 86.067 104.266C87.6304 106.614 89.3596 108.725 91.2546 110.598C91.6336 110.646 91.8941 109.495 92.0363 107.148C92.1784 104.752 92.0126 103.057 91.5388 102.061Z" fill="white"/>
<path d="M87.9147 108.001C89.6439 109.613 90.7454 110.479 91.2191 110.598H91.2546C89.3596 108.724 87.6305 106.613 86.0671 104.265C85.4512 103.293 85.0959 102.131 85.0011 100.779C84.6221 101.514 84.4918 102.416 84.6103 103.483C84.705 104.289 84.859 104.858 85.0722 105.19L87.9147 108.001Z" fill="#DBDCDC"/>
<path d="M85.3207 119.954L83.6152 116.716C82.9756 115.981 82.1702 115.602 81.199 115.578C80.2278 115.578 79.3514 115.981 78.5697 116.788C77.717 117.641 77.3972 118.744 77.6104 120.096C77.8235 121.163 78.5579 122.005 79.8133 122.622L82.5492 123.582C84.1837 124.08 85.297 124.294 85.8892 124.222L86.6353 124.151C86.8248 123.606 86.3866 122.207 85.3207 119.954Z" fill="#0D131A"/>
<path d="M85.2497 120.63C86.1735 122.669 86.5999 123.784 86.5288 123.974L85.4273 123.903L82.9401 123.476C82.1111 123.262 81.1044 122.859 79.92 122.266C78.7593 121.673 78.096 120.926 77.9302 120.025L77.8947 119.314C77.8947 118.389 78.1908 117.63 78.783 117.037C79.541 116.254 80.3345 115.887 81.1636 115.934C82.0637 115.934 82.7862 116.254 83.331 116.895L85.2497 120.63ZM87.2039 124.614C87.4645 124.377 87.1802 123.203 86.3512 121.092C85.4984 118.91 84.6693 117.369 83.864 116.468C83.1296 115.685 82.2414 115.282 81.1991 115.258C80.1332 115.258 79.1738 115.697 78.3211 116.575C77.3736 117.523 77.0301 118.709 77.2907 120.132C77.4091 120.82 77.6933 121.46 78.1434 122.053L79.5291 123.227C80.145 123.559 81.4952 123.926 83.5797 124.33L87.2039 124.614Z" fill="#0D131A"/>
<path d="M78.3919 118.389C79.0315 119.361 79.9434 120.298 81.1278 121.199C82.5964 122.266 84.2901 123.12 86.2088 123.76C86.422 123.736 85.9601 122.645 84.8231 120.487C83.7334 118.424 83.0346 117.215 82.7267 116.859C82.324 116.432 81.8503 116.183 81.3055 116.112C80.5238 115.993 79.7895 116.29 79.1025 117.001C78.6998 117.404 78.463 117.867 78.3919 118.389Z" fill="white"/>
<path d="M79.7781 121.874L82.9048 122.977C84.6814 123.546 85.7829 123.807 86.2092 123.76C84.2905 123.119 82.5969 122.266 81.1282 121.198C79.9439 120.297 79.0319 119.361 78.3923 118.388C78.2976 119.1 78.4397 119.847 78.8187 120.629C79.1266 121.27 79.4464 121.685 79.7781 121.874Z" fill="#DBDCDC"/>
<path d="M91.6805 120.736C92.3437 121.282 92.9833 121.934 93.5992 122.693C94.8546 124.234 95.3994 125.562 95.2336 126.677C95.1388 127.436 94.8783 128.183 94.4519 128.918C95.7073 128.61 96.7496 127.886 97.5787 126.748C98.4077 125.586 98.8223 124.27 98.8223 122.799C98.8223 121.068 98.2774 119.586 97.1878 118.353C96.1219 117.12 94.8191 116.503 93.2794 116.503C92.3319 116.503 91.4436 116.764 90.6145 117.286C89.8092 117.784 89.1459 118.459 88.6248 119.313C90.0697 119.788 91.0883 120.262 91.6805 120.736Z" fill="#D18200"/>
<path d="M91.6808 120.736C91.2781 120.428 90.5793 120.072 89.5844 119.669C88.6133 119.266 88.104 119.112 88.0566 119.207L89.3002 119.918L91.1834 120.985C91.8229 121.483 92.5217 122.325 93.2797 123.511C94.1561 124.934 94.5351 126.084 94.4167 126.962C94.2035 128.503 93.3152 129.962 91.7519 131.337L89.5489 133.009C89.6673 133.318 90.5438 132.808 92.1782 131.48C93.9548 130.033 94.9734 128.432 95.2339 126.677C95.3997 125.563 94.8549 124.234 93.5995 122.693C92.9836 121.934 92.344 121.282 91.6808 120.736Z" fill="#0D131A"/>
<path d="M107.457 157.519L106.853 158.978C106.355 160.092 105.846 160.993 105.325 161.681L100.741 166.306C97.7803 169.65 95.0207 173.895 92.4624 179.041C89.6199 184.733 87.8433 189.986 87.1327 194.8C86.6116 198.476 86.6945 202.211 87.3814 206.006C87.8315 208.614 88.5421 211.27 89.5133 213.974L90.9346 217.887C91.1004 218.717 91.1951 219.63 91.2188 220.626C91.2662 221.646 91.207 222.227 91.0412 222.369L88.6961 224.255C87.0143 225.678 85.8654 226.804 85.2495 227.634L81.8385 231.939L81.0213 232.365C80.4291 232.697 80.0857 232.994 79.9909 233.255C79.6593 234.061 79.7067 235.105 80.133 236.385C80.6542 237.879 81.5543 238.97 82.8334 239.658L85.7825 241.223C85.9246 239.8 86.1852 239.195 86.5642 239.409C87.8196 240.168 89.0277 240.334 90.1884 239.907V242.539L95.1983 243.037L97.721 243.144C98.7159 240.867 99.5331 240.002 100.173 240.547C100.789 241.093 101.594 241.259 102.589 241.045C103.465 240.856 104.14 240.476 104.614 239.907L104.721 243.109C108.108 242.99 110.856 242.634 112.964 242.041L113.959 239.231C114.669 238.852 115.285 238.247 115.806 237.417C116.328 236.563 116.671 235.626 116.837 234.607C116.339 231.856 115.202 229.093 113.426 226.318C113.284 226.057 113.236 225.014 113.284 223.187L111.863 223.472L108.629 223.614L106.959 223.365L108.594 223.081L111.578 222.583L113.319 222.085V222.049C113.864 221.931 114.646 221.527 115.664 220.84C117.725 219.44 119.94 217.282 122.309 214.365C124.749 211.353 126.324 207.903 127.034 204.013C127.413 201.95 127.544 199.235 127.425 195.867C127.283 191.907 126.04 187.839 123.694 183.665L120.212 178.578L107.457 157.519Z" fill="#F29600"/>
<path d="M86.5645 239.409C86.1855 239.196 85.925 239.8 85.7828 241.223C86.9435 241.792 88.4122 242.231 90.1887 242.539V239.907C89.028 240.334 87.82 240.168 86.5645 239.409Z" fill="#D18200"/>
<path d="M100.173 240.548C99.5334 240.002 98.7162 240.868 97.7213 243.144C100.137 243.216 102.471 243.204 104.721 243.109L104.614 239.907C104.141 240.476 103.466 240.856 102.589 241.046C101.594 241.259 100.789 241.093 100.173 240.548Z" fill="#D18200"/>
<path d="M116.837 234.606C116.671 235.626 116.328 236.563 115.806 237.417C115.285 238.247 114.669 238.852 113.959 239.231L112.964 242.041C115.688 241.33 117.086 240.274 117.157 238.875C117.228 237.523 117.121 236.101 116.837 234.606Z" fill="#D18200"/>
<path d="M85.7473 238.911L85.8894 238.982C85.3209 237.559 84.5984 236.456 83.722 235.673C82.7745 234.843 82.0875 234.322 81.6612 234.108C81.1874 233.847 80.8203 233.883 80.5597 234.215L78.9963 236.669L77.1842 240.013C76.4499 241.673 76.1538 243.227 76.2959 244.673C76.367 245.409 76.5091 245.966 76.7223 246.345C76.8644 245.349 77.5751 244.282 78.8542 243.144C79.8964 242.219 80.7729 241.626 81.4835 241.365C82.36 241.081 83.1772 240.76 83.9352 240.405C85.0722 239.836 85.6762 239.337 85.7473 238.911Z" fill="white"/>
<path d="M86.2446 241.116C86.5525 240.998 86.4341 240.286 85.8893 238.982L85.7471 238.911C85.6761 239.338 85.072 239.836 83.935 240.405C83.177 240.76 82.3598 241.081 81.4834 241.365C80.7727 241.626 79.8963 242.219 78.8541 243.144C77.5749 244.282 76.8643 245.349 76.7222 246.345C78.0961 244.923 79.1028 244.045 79.7423 243.713L83.1533 242.326L86.2446 241.116Z" fill="#DBDCDC"/>
<path d="M93.8483 234.963L91.5388 238.164C90.1649 240.299 89.478 241.995 89.478 243.251C89.478 245.504 89.7267 247.295 90.2241 248.623L90.9703 249.904L91.2901 249.441C91.219 248.042 91.9652 246.631 93.5285 245.208C94.6182 244.188 95.6841 243.465 96.7264 243.038C98.3608 242.327 99.2846 241.425 99.4978 240.334C98.9293 238.722 98.2897 237.524 97.5791 236.742C96.8211 235.935 96.0276 235.366 95.1985 235.034L93.8483 234.963Z" fill="white"/>
<path d="M96.7263 243.038C95.684 243.464 94.6181 244.188 93.5285 245.208C91.9651 246.63 91.2189 248.042 91.29 249.441L92.8178 247.627C93.2916 247.176 94.5352 246.334 96.5486 245.101C98.4673 243.915 99.5925 243.275 99.9241 243.18C100.066 243.156 100.09 242.86 99.9951 242.291C99.9241 241.721 99.7583 241.069 99.4977 240.334C99.2845 241.425 98.3607 242.326 96.7263 243.038Z" fill="#DBDCDC"/>
<path d="M112.147 236.314C111.626 235.674 111.081 235.164 110.512 234.785C109.849 234.382 109.399 234.322 109.162 234.607L106.888 237.346C105.609 238.959 104.899 240.014 104.756 240.512C104.377 241.793 104.662 243.642 105.609 246.061C106.083 247.271 106.604 248.35 107.173 249.299L107.386 248.943V248.765C107.457 247.579 107.883 246.441 108.665 245.35L110.655 243.038L112.325 241.33L113.746 239.729C113.177 238.046 112.644 236.907 112.147 236.314Z" fill="white"/>
<path d="M110.655 243.037L108.665 245.35C107.883 246.441 107.457 247.579 107.386 248.765V248.942C108.286 247.591 108.937 246.701 109.34 246.274L114.03 241.721C114.22 241.579 114.125 240.915 113.746 239.729L112.325 241.33L110.655 243.037Z" fill="#DBDCDC"/>
<path d="M85.4628 238.52C85.984 239.635 86.209 240.417 86.1379 240.868L85.9958 241.081L85.1431 241.402L79.8134 243.536C79.2212 243.868 78.2618 244.71 76.9353 246.062C76.7221 245.73 76.58 245.172 76.5089 244.39C76.3668 243.038 76.6511 241.591 77.3617 240.05L79.0672 236.848L80.595 234.5C80.7135 234.334 80.8556 234.251 81.0214 234.251C81.4241 234.204 82.2887 234.749 83.6152 235.888C84.2785 236.481 84.8943 237.358 85.4628 238.52ZM85.605 242.647L86.4932 242.291C86.9907 242.125 87.2986 241.734 87.4171 241.117C87.5355 240.382 87.2749 239.338 86.6354 237.987C85.9958 236.635 85.2733 235.603 84.468 234.892L82.5493 233.398C81.9334 233.042 81.3767 232.888 80.8793 232.935C80.3582 233.006 79.9081 233.267 79.5291 233.718L77.9657 236.172L76.1892 239.516C75.3601 241.319 75.0403 243.038 75.2298 244.674C75.3246 245.504 75.5141 246.18 75.7983 246.702L76.2247 247.485L76.7221 247.805C76.9353 247.852 77.113 247.781 77.2551 247.591L77.8591 246.987C79.1856 245.659 80.0502 244.9 80.4529 244.71C81.0214 244.378 82.7388 243.69 85.605 242.647Z" fill="#0D131A"/>
<path d="M99.7821 243.002L99.64 243.18C99.2847 243.299 98.2069 243.915 96.4066 245.03C94.5116 246.168 93.3391 246.951 92.889 247.378L91.148 249.548C90.8874 249.334 90.6506 248.919 90.4374 248.303C89.9636 247.046 89.7267 245.35 89.7267 243.216C89.7267 241.461 91.0651 238.899 93.7418 235.532L93.8839 235.318L94.2392 235.176C94.5945 235.152 95.0328 235.283 95.5539 235.567C96.2171 235.899 96.8449 236.386 97.437 237.026C98.0766 237.714 98.657 238.781 99.1781 240.228C99.6992 241.603 99.9005 242.528 99.7821 243.002ZM100.066 244.425C100.54 244.283 100.86 243.927 101.026 243.358C101.239 242.623 101.049 241.437 100.457 239.801C99.8413 238.188 99.1544 236.967 98.3964 236.137C97.7331 235.401 97.0107 234.832 96.229 234.429C95.471 234.026 94.784 233.836 94.1682 233.86C93.5997 233.907 93.1496 234.133 92.818 234.536L92.7114 234.714C89.8452 238.318 88.4121 241.152 88.4121 243.216C88.4121 245.54 88.6845 247.413 89.2293 248.836C89.5372 249.643 89.8926 250.224 90.2952 250.579L90.8638 251.042L91.3967 251.22L91.8586 250.9L92.2495 250.259C92.7232 249.5 93.2325 248.86 93.7773 248.338C94.1563 247.982 95.2341 247.259 97.0107 246.168C98.7399 245.101 99.7584 244.52 100.066 244.425Z" fill="#0D131A"/>
<path d="M108.843 235.354L109.162 234.962C109.281 234.844 109.411 234.784 109.553 234.784C109.885 234.784 110.288 234.974 110.761 235.354C111.235 235.709 111.65 236.124 112.005 236.599C112.384 237.049 112.822 237.927 113.32 239.231C113.841 240.607 114.007 241.449 113.817 241.757L111.721 243.713L109.34 246.061C108.843 246.607 108.156 247.567 107.279 248.943C106.521 247.662 105.905 246.322 105.432 244.923C104.816 243.049 104.662 241.603 104.97 240.583C105.159 239.919 106.45 238.176 108.843 235.354ZM113.035 235.781C112.727 235.354 112.301 234.915 111.756 234.464C110.951 233.8 110.217 233.468 109.553 233.468C109.008 233.468 108.547 233.682 108.168 234.109L107.848 234.5C105.337 237.441 103.963 239.338 103.726 240.192C103.3 241.615 103.525 243.536 104.401 245.955C104.899 247.259 105.479 248.48 106.142 249.619L106.675 250.543L107.244 250.899L107.777 250.579L108.381 249.654L110.299 246.951L114.67 242.717C115.357 242.124 115.321 240.832 114.563 238.84C113.995 237.393 113.485 236.373 113.035 235.781Z" fill="#0D131A"/>
<path d="M109.126 225.18L111.116 224.753C111.803 224.516 112.123 224.338 112.075 224.22L111.187 224.326L109.375 224.575L106.462 224.504C105.182 224.433 104.543 224.433 104.543 224.504L106.355 224.931L109.126 225.18Z" fill="#0D131A"/>
<path d="M141.886 1.38782C140.181 1.26925 138.76 2.47874 137.623 5.01631C137.315 5.68034 136.948 7.13885 136.521 9.39183L135.633 14.3721C135.467 15.3444 134.65 18.9492 133.181 25.1864C132.66 27.4631 130.99 30.8307 128.171 35.2892L126.146 38.8466L125.542 40.8031C125.447 41.562 125.838 43.3051 126.715 46.0324C126.265 47.5265 126.099 49.6609 126.217 52.4356L123.908 59.0167L122.664 62.2183L121.207 65.0997C121.018 65.408 120.674 65.574 120.177 65.5977C119.75 65.6452 119.336 66.0483 118.933 66.8072C118.152 68.3013 118.945 71.0879 121.314 75.167L125.08 80.8587C124.772 82.8745 125.72 84.2026 127.923 84.8429L132.933 85.4477C133.477 85.5188 134.271 85.839 135.313 86.4082C136.261 86.9062 137.35 87.1552 138.582 87.1552C140.051 87.1552 141.756 86.6097 143.699 85.5188C145.38 84.6176 146.411 83.8587 146.79 83.2421L149.028 80.4674L152.119 76.7322L156.277 72.1788L160.078 68.1946C160.576 67.6254 161.18 67.2341 161.891 67.0207L162.779 66.8784C164.39 65.4554 165.763 63.6056 166.9 61.3289C167.801 59.5028 168.251 58.2103 168.251 57.4514C168.251 56.906 168.12 55.8032 167.86 54.1431C167.576 52.3644 167.279 50.9297 166.972 49.8387C166.261 47.3249 165.906 45.2379 165.906 43.5778C165.906 42.1312 166.533 39.6173 167.789 36.0363C168.334 34.4236 170.075 31.1983 173.012 26.3603L176.103 22.554L179.727 18.3207C180.485 17.3958 180.829 16.2338 180.758 14.8346C180.687 13.6251 180.402 12.8424 179.905 12.4867C179.408 12.131 178.567 11.9413 177.382 11.9175C176.269 11.9175 175.392 12.048 174.753 12.3088C174.208 12.5223 173.13 13.4116 171.52 14.9768L166.794 19.7081C162.885 23.6212 159.522 26.55 156.703 28.4947C155.519 29.3248 153.849 29.5026 151.693 29.0283C149.964 28.6726 148.247 27.9967 146.541 27.0006C145.333 26.2892 144.563 24.9374 144.232 22.9453C144.089 22.0441 144.018 20.3366 144.018 17.8227L144.409 11.1349C144.646 7.93332 144.753 6.05979 144.729 5.51433C144.682 4.47085 144.468 3.60523 144.089 2.91748C143.616 1.96885 142.881 1.45897 141.886 1.38782Z" fill="#F29600"/>
<path d="M134.034 72.0357L132.364 72.676L130.943 72.8539L129.699 72.8183L129.024 72.6404L128.633 72.7116C128.562 72.9013 128.752 73.0792 129.202 73.2452L130.907 73.5298C131.997 73.5298 133.11 73.2452 134.247 72.676C134.531 72.5337 135.017 72.427 135.704 72.3559L137.054 72.3203C137.338 72.3677 138.132 73.0436 139.435 74.348C139.909 74.8223 140.264 74.8934 140.501 74.5614C140.667 74.348 140.441 73.9922 139.826 73.4942L138.333 72.3914C137.504 71.846 136.794 71.5732 136.201 71.5732C135.586 71.5732 134.863 71.7274 134.034 72.0357Z" fill="#0D131A"/>
<path d="M133.963 77.7279L135.526 77.301L136.77 77.6568C137.291 77.7279 137.646 77.6331 137.836 77.3722C137.931 77.2299 137.753 76.9927 137.303 76.6607C136.853 76.3524 136.486 76.1864 136.201 76.1627C135.941 76.139 135.491 76.2813 134.851 76.5896L133.679 77.2655C133.513 77.4078 133.466 77.5382 133.537 77.6568L133.963 77.7279Z" fill="#0D131A"/>
<path d="M121.314 71.3245C121.195 71.4668 121.266 71.7039 121.527 72.036L122.166 72.7474L123.374 74.5972C123.564 74.9293 123.777 75.0716 124.014 75.0241C124.275 74.953 124.334 74.787 124.192 74.5261C124.026 74.1941 123.599 73.5538 122.912 72.6051C122.747 72.3206 122.451 72.0241 122.024 71.7158C121.598 71.3838 121.361 71.2534 121.314 71.3245Z" fill="#0D131A"/>
<path d="M140.181 49.8033L140.288 49.412C140.288 49.2459 140.228 49.1392 140.11 49.0918L139.506 49.3764L139.044 50.657L138.582 51.2973L138.333 51.8665L138.618 52.5424C138.831 52.7321 139.008 52.8033 139.151 52.7559C139.316 52.6847 139.399 52.246 139.399 51.4396L139.719 50.6215L140.181 49.8033Z" fill="#0D131A"/>
<path d="M139.151 53.1471C138.937 53.2419 139.008 53.9771 139.364 55.3526L140.998 60.0127L141.922 61.2578C142.443 61.7795 142.775 61.993 142.917 61.8981C143.154 61.7321 143.023 61.2697 142.526 60.5108L142.064 59.906L141.602 59.1945L140.714 57.0601L139.861 54.819C139.506 53.6095 139.269 53.0522 139.151 53.1471Z" fill="#0D131A"/>
<path d="M130.872 49.6963L130.694 50.2655L130.659 51.2615L130.872 52.969C130.872 54.1074 131.061 54.641 131.44 54.5698C131.677 54.5224 131.796 54.3445 131.796 54.0362L131.725 53.2536L131.334 51.6528C131.168 50.3722 131.014 49.72 130.872 49.6963Z" fill="#0D131A"/>
<path d="M147.11 76.7324L147.003 78.6533C147.027 79.0565 146.849 79.3292 146.47 79.4715C146.091 79.6138 145.736 79.4597 145.404 79.0091L144.978 79.6494C145.523 80.3371 146.115 80.681 146.754 80.681C147.181 80.681 147.501 80.1711 147.714 79.1514C147.927 78.1553 147.998 76.934 147.927 75.4873L147.11 76.7324Z" fill="#0D131A"/>
<path d="M146.612 79.6139C147.039 79.4241 147.204 78.4637 147.11 76.7324L145.404 79.0091L146.115 79.5783L146.612 79.6139Z" fill="white"/>
<path d="M126.75 48.0596L126.608 48.9845C126.466 50.0991 126.454 51.2849 126.573 52.5418C126.596 53.0398 126.845 53.7157 127.319 54.5695C127.911 55.613 128.61 56.3244 129.415 56.7039C129.368 55.281 129.131 53.9055 128.705 52.5774C128.207 51.0596 127.556 49.5537 126.75 48.0596Z" fill="white"/>
<path d="M71.7477 51.4388C71.5819 51.3677 71.3332 51.4744 71.0015 51.759L70.362 52.4349C67.8274 55.8025 65.4113 61.3638 63.1136 69.1188C60.7211 77.1346 59.063 85.4944 58.1392 94.198C58.0444 94.9569 58.0563 95.6328 58.1747 96.2257C58.2695 96.7711 58.4235 97.0557 58.6366 97.0794C59.063 97.1269 59.3591 96.202 59.5249 94.3047C60.3066 86.4312 61.87 78.4864 64.2151 70.4706C66.3943 63.0002 68.7394 57.1543 71.2503 52.9329C71.7951 52.0317 71.9609 51.5337 71.7477 51.4388Z" fill="#0D131A"/>
<path d="M61.5856 57.8424C61.4198 57.7713 61.0645 58.1033 60.5197 58.8385L59.6314 60.1903C54.0885 75.5105 52.004 90.1075 53.3779 103.981L53.52 105.76C53.6385 106.756 53.7806 107.254 53.9464 107.254C54.0885 107.254 54.2425 106.815 54.4083 105.938L54.6215 104.301C54.053 86.1825 56.2086 71.5145 61.0882 60.297C61.7515 58.8029 61.9173 57.9847 61.5856 57.8424Z" fill="#0D131A"/>
<path d="M210.249 60.4389L209.787 59.7275C209.574 59.4191 209.396 59.2887 209.254 59.3361C209.088 59.3836 209.005 59.6207 209.005 60.0476L209.147 60.9725C210.521 64.767 211.564 69.9607 212.274 76.5537C213.056 83.5972 213.21 90.1071 212.736 96.0834V97.3996C212.783 98.0637 212.89 98.3957 213.056 98.3957C213.222 98.3957 213.388 98.0637 213.553 97.3996L213.767 96.119C214.501 89.953 214.477 83.0754 213.695 75.4865C212.937 67.9923 211.789 62.9765 210.249 60.4389Z" fill="#0D131A"/>
<path d="M215.152 68.728C214.939 68.0165 214.714 67.6964 214.477 67.7675C214.311 67.7912 214.205 67.981 214.157 68.3367V69.1193C215.792 75.4988 217.023 82.0324 217.853 88.7202C218.729 95.8349 219.061 102.523 218.847 108.784C218.847 110.159 218.966 110.859 219.203 110.882C219.369 110.882 219.487 110.586 219.558 109.993L219.629 108.784C220.458 102.641 220.399 95.906 219.451 88.5779C218.646 82.1747 217.213 75.5581 215.152 68.728Z" fill="#0D131A"/>
<path d="M155.922 49.3398C155.614 49.1975 155.27 49.2449 154.891 49.4821L147.607 54.8893L147.11 55.3161C146.684 55.577 146.376 55.9683 146.186 56.4901L145.689 57.5217L144.943 59.2648L145.085 59.7628L146.648 59.8339L151.089 58.9802L151.48 58.8735L155.247 57.8774C156.218 57.5217 156.763 57.1067 156.881 56.6323C156.999 56.0869 157.011 55.079 156.917 53.6086L156.561 50.3359C156.467 49.8141 156.253 49.4821 155.922 49.3398Z" fill="white"/>
<path d="M155.922 49.3398C155.614 49.1975 155.27 49.2449 154.891 49.4821L147.607 54.8893L147.11 55.3161C146.684 55.577 146.376 55.9683 146.186 56.4901L145.689 57.5217L144.943 59.2648L145.085 59.7628L146.648 59.8339L151.089 58.9802L151.48 58.8735L155.247 57.8774C156.218 57.5217 156.763 57.1067 156.881 56.6323C156.999 56.0869 157.011 55.079 156.917 53.6086L156.561 50.3359C156.467 49.8141 156.253 49.4821 155.922 49.3398Z" fill="white"/>
<path d="M152.084 51.4751L152.013 51.5462L147.11 55.317C146.683 55.5779 146.375 55.9692 146.186 56.4909L145.689 57.5226L144.942 59.2657L145.084 59.7637L146.648 59.8348L150.77 59.0522C151.788 57.4396 152.297 55.6253 152.297 53.6095C152.297 52.8743 152.226 52.1628 152.084 51.4751Z" fill="#008086"/>
<path d="M128.918 56.8467L129.806 57.3092L129.77 56.6689C129.747 55.1985 129.51 53.7993 129.06 52.4712L128.029 49.8032C127.698 50.6807 127.532 51.5937 127.532 52.5424C127.532 54.1787 127.994 55.6135 128.918 56.8467Z" fill="#008086"/>
<path d="M128.989 55.4947C129.202 55.4947 129.415 55.3524 129.628 55.0678L129.06 52.4709C128.799 51.6409 128.467 50.7871 128.065 49.9097C127.733 50.5737 127.567 51.38 127.567 52.3287C127.567 53.2061 127.709 53.9532 127.994 54.5698C128.254 55.1864 128.586 55.4947 128.989 55.4947Z" fill="#00666C"/>
<path d="M128.491 54.713C128.657 55.3772 129 55.6618 129.522 55.567C129.474 55.0688 129.285 54.3215 128.953 53.3252C128.503 53.7048 128.349 54.1673 128.491 54.713Z" fill="#0D131A"/>
<path d="M152.084 51.4751L152.013 51.5462L147.11 55.317C146.683 55.5779 146.375 55.9692 146.186 56.4909L145.404 58.1273L148.602 58.3408C149.881 58.1036 150.947 57.57 151.8 56.74C152.132 55.7439 152.297 54.7004 152.297 53.6095C152.297 52.8743 152.226 52.1628 152.084 51.4751Z" fill="#00666C"/>
<path d="M150.485 58.8026L151.338 58.7671C152.238 57.2256 152.688 55.5062 152.688 53.6089C152.688 52.9449 152.605 52.1504 152.439 51.2255L152.404 51.1899C152.38 51.522 152.167 51.688 151.764 51.688L151.942 53.6089C151.942 55.4825 151.456 57.2137 150.485 58.8026Z" fill="#0D131A"/>
<path d="M148.496 58.1267C148.898 58.1267 149.23 57.9844 149.49 57.6998C149.727 57.4152 149.846 57.0832 149.846 56.7038C149.846 56.3243 149.727 55.9923 149.49 55.7077C149.23 55.4468 148.934 55.3164 148.602 55.3164C148.294 55.3164 148.022 55.4587 147.785 55.7433C147.548 56.0279 147.43 56.3599 147.43 56.7393L147.678 57.6643L148.496 58.1267Z" fill="#0D131A"/>
<path d="M149.881 56.2428C150.236 56.2428 150.52 56.1123 150.734 55.8514C150.923 55.6141 151.018 55.3413 151.018 55.033C151.018 54.6771 150.911 54.3806 150.698 54.1434C150.461 53.8824 150.189 53.752 149.881 53.752C149.596 53.752 149.336 53.8943 149.099 54.179C148.886 54.4399 148.779 54.7483 148.779 55.1041L149.099 55.887C149.336 56.1242 149.596 56.2428 149.881 56.2428Z" fill="white"/>
<path d="M128.705 53.8945L129.131 53.5742L129.273 52.9337C129.273 52.6253 129.214 52.3762 129.095 52.1865C129.001 51.973 128.87 51.8662 128.705 51.8662L128.314 52.222L128.171 52.9693L128.314 53.6098L128.705 53.8945Z" fill="white"/>
<path d="M155.104 49.8031C155.696 49.4474 156.064 49.6489 156.206 50.4078L156.561 53.645C156.656 55.068 156.644 56.0284 156.526 56.5265C156.407 57.0008 155.566 57.4514 154.003 57.8783L150.983 58.5897L146.577 59.4791L145.546 59.5858C145.357 59.5621 145.274 59.4672 145.298 59.3012L146.506 56.6332C146.648 56.2775 146.92 55.9336 147.323 55.6016C148.934 54.2972 150.118 53.3604 150.876 52.7913L155.104 49.8031ZM155.85 48.558C154.263 49.4592 152.605 50.5501 150.876 51.8308L147.323 54.7834L146.47 55.5304C146.091 55.8624 145.854 56.1589 145.76 56.4197L143.912 60.2972L143.663 60.9376C143.616 61.1747 143.699 61.3289 143.912 61.4L144.196 61.1866L144.374 60.7241C144.421 60.6055 144.599 60.487 144.907 60.3684L145.795 60.1905C146.529 60.1905 147.986 59.9534 150.165 59.4791L155.708 58.1273C156.229 57.9138 156.656 57.5344 156.987 56.9889C157.366 56.396 157.556 55.6964 157.556 54.8901C157.556 54.2261 157.485 53.2893 157.343 52.0798L157.165 50.1944L157.094 49.4474L157.165 48.807C157.828 48.0956 158.124 47.6806 158.053 47.562C157.959 47.4434 157.224 47.7754 155.85 48.558Z" fill="#0D131A"/>
<path d="M127.39 52.4349C127.39 54.593 128.065 56.3242 129.415 57.6286L129.948 57.4507C129.332 56.9053 128.847 56.2057 128.491 55.3519C128.112 54.4744 127.923 53.5376 127.923 52.5416C127.923 51.6641 128.065 50.8459 128.349 50.087L127.958 49.4111C127.579 50.4072 127.39 51.4151 127.39 52.4349Z" fill="#0D131A"/>
<path d="M126.608 48.9846L126.75 48.0597C127.556 49.5538 128.207 51.0597 128.705 52.5775C129.131 53.9056 129.368 55.2811 129.415 56.704C128.61 56.3246 127.911 55.6131 127.319 54.5696C126.845 53.7158 126.596 53.04 126.573 52.5419C126.454 51.285 126.466 50.0992 126.608 48.9846ZM137.658 6.22542C138.559 3.33212 139.849 1.88547 141.531 1.88547C142.645 1.88547 143.438 2.52579 143.912 3.80643C144.267 4.80248 144.386 5.92897 144.267 7.1859L143.805 12.9488L143.521 20.099C143.568 22.5654 143.912 24.3797 144.551 25.5418C145.025 26.3718 145.902 27.1781 147.181 27.9607C148.199 28.5773 149.419 29.0161 150.841 29.277L154.109 29.4904L152.724 30.0951L151.054 30.9845L149.739 32.0161L148.034 33.4746C147.489 34.0912 147.216 34.4825 147.216 34.6485C147.24 34.8383 147.631 34.6604 148.389 34.1149L149.846 33.1544L150.983 32.3007C151.599 31.6841 152.238 31.2928 152.901 31.1268C153.351 31.0556 153.944 30.8185 154.678 30.4153C155.554 29.9647 156.348 29.4192 157.058 28.7789C160.185 26.1939 162.992 23.7157 165.479 21.3441L173.723 13.4112C174.386 12.7946 175.381 12.427 176.707 12.3085C178.034 12.1662 178.993 12.3559 179.585 12.8776C180.13 13.3519 180.367 14.1464 180.296 15.261C180.225 16.2571 179.988 17.0279 179.585 17.5733L176.245 21.522L172.515 26.2532C167.801 33.7948 165.444 39.4509 165.444 43.2217C165.444 44.9529 165.598 46.5775 165.906 48.0953L166.723 51.1546L167.434 54.2495C167.671 55.5301 167.789 56.455 167.789 57.0242C167.789 57.7119 167.623 58.5301 167.292 59.4787C166.936 60.5696 166.427 61.5894 165.764 62.538C164.248 64.7673 163.3 66.048 162.921 66.38L162.246 66.4867C161.843 66.4867 161.535 66.5578 161.322 66.7001L158.8 68.6922C157.26 70.0677 155.957 71.4077 154.891 72.712L150.023 78.297C148.294 80.3129 147.24 81.6765 146.861 82.388C146.506 82.9809 145.546 83.7872 143.983 84.807C142.017 86.0876 140.252 86.7279 138.689 86.7279C137.883 86.7279 137.114 86.5738 136.379 86.2655L135.029 85.5896C133.868 85.0678 132.672 84.7951 131.44 84.7714C129.001 84.6528 127.449 84.3564 126.786 83.8821C126.359 83.5738 126.004 82.9927 125.72 82.139C126.596 82.9927 127.437 83.4908 128.243 83.633C129.332 83.8702 130.742 83.5738 132.471 82.7437L134.247 82.139L136.344 81.8544L138.831 82.3524C140.063 82.5896 141.081 82.5777 141.887 82.3168C142.763 82.0322 143.45 81.6291 143.947 81.1073L145.156 79.3642C146.079 77.9413 147.37 76.3168 149.028 74.4907C152.037 71.2417 154.003 69.2495 154.927 68.5144C155.306 68.2061 156.087 67.8503 157.272 67.4472L159.475 66.5934C159.854 66.3562 160.138 65.9294 160.327 65.3128C160.446 64.9096 160.576 64.2218 160.718 63.2495C160.813 62.5618 160.801 61.9452 160.683 61.3997C160.588 60.9491 160.47 60.7238 160.327 60.7238C160.114 60.7712 159.996 61.1033 159.972 61.7199C159.712 63.8543 159.451 65.1468 159.19 65.5974C159.025 65.8819 158.432 66.1784 157.414 66.4867C156.206 66.8661 155.365 67.2337 154.891 67.5895L151.16 70.7555C149.36 72.4393 148.01 73.8385 147.11 74.9531C145.831 76.5658 144.634 78.2852 143.521 80.1113L142.206 81.0006C141.519 81.2852 140.75 81.4275 139.897 81.4275L138.085 81.1785L136.202 80.9295L134.105 81.1785L132.08 81.7121C130.28 82.4947 129.214 82.886 128.882 82.886C128.195 82.886 127.295 82.305 126.182 81.1429C124.832 79.7437 123.47 77.799 122.096 75.3089C121.314 73.8859 120.663 72.4986 120.141 71.1468C119.549 69.629 119.253 68.4906 119.253 67.7318C119.253 67.1151 119.502 66.6527 119.999 66.3444L121.598 65.1705C122.119 64.5539 122.723 63.4274 123.41 61.791C124.026 60.3681 124.476 59.123 124.761 58.0558C125.163 56.5854 125.661 55.0439 126.253 53.4313C126.727 54.8305 127.271 55.8977 127.887 56.6329L128.918 57.5578C129.32 57.8424 129.522 58.1388 129.522 58.4471L129.699 58.8028L130.019 58.7317C130.232 58.3048 130.339 57.7831 130.339 57.1665L130.019 54.8542C129.782 53.5498 129.557 52.6605 129.344 52.1862L126.892 45.8541C126.277 44.0043 125.969 42.4154 125.969 41.0873C125.969 40.1861 126.146 39.3561 126.502 38.5972C126.786 38.028 127.26 37.3284 127.923 36.4983C128.562 35.7157 129.309 34.5774 130.161 33.0833C131.132 31.3995 131.926 29.7868 132.542 28.2453C133.868 24.854 135.005 20.3599 135.953 14.763C136.806 9.97248 137.374 7.12661 137.658 6.22542ZM136.806 4.55347L134.887 13.5535L132.968 22.3401C132.281 24.8303 131.192 27.522 129.699 30.4153L127.106 35.1821C126.04 37.1505 125.424 38.5379 125.258 39.3442C125.068 40.2454 124.997 41.0399 125.045 41.7276L125.471 43.613L126.146 46.032L125.898 47.7395C125.732 49.1862 125.696 50.6921 125.791 52.2573L123.091 59.9056L121.811 62.8582C121.29 63.8305 120.864 64.459 120.532 64.7436L119.076 65.7752C118.412 66.297 118.081 66.9136 118.081 67.625C118.081 69.0717 118.72 71.1349 119.999 73.8148C121.255 76.4947 122.688 78.7832 124.299 80.6805C124.393 81.9137 124.938 83.135 125.933 84.3445C126.454 84.9374 127.473 85.3643 128.989 85.6252L132.933 86.0876C133.62 86.1825 134.603 86.5382 135.882 87.1548C136.971 87.7003 137.99 87.973 138.938 87.973C140.122 87.973 141.555 87.5698 143.237 86.7635C144.634 86.0757 145.677 85.4117 146.364 84.7714L148.709 82.0678L152.191 77.7634L159.759 69.3326C160.422 68.6448 161.168 68.2179 161.997 68.0519L163.241 67.8029L165.16 65.5974L167.078 63.1072L168.571 60.3681C169.163 59.1586 169.459 58.2811 169.459 57.7356C169.459 56.9767 169.021 54.8186 168.144 51.2613C167.363 47.9174 166.972 45.2257 166.972 43.1861C166.972 41.8106 167.54 39.6525 168.677 36.7118C169.672 34.1031 170.774 31.7315 171.982 29.5971C172.882 28.0082 174.504 25.9212 176.849 23.3362L181.007 18.7828C181.93 17.6207 182.333 16.2571 182.215 14.6919C182.12 13.2689 181.658 12.2255 180.829 11.5614C180.071 10.9211 178.922 10.5772 177.382 10.5298C175.582 10.4586 174.114 10.9685 172.977 12.0594L166.581 18.4271L160.612 24.3678C158.243 26.4785 156.573 27.7473 155.602 28.1742C154.986 28.4588 153.955 28.5773 152.51 28.5299C151.018 28.4588 149.846 28.2335 148.993 27.854C147.761 27.3323 146.849 26.7631 146.257 26.1465C145.333 25.1504 144.871 23.8224 144.871 22.1623L144.836 17.3243L144.978 13.0911L145.546 5.54952C145.594 4.4586 145.286 3.36769 144.623 2.27677C143.888 1.06728 142.953 0.379526 141.816 0.213517C140.679 0.0712238 139.613 0.462531 138.618 1.38744C137.694 2.26491 137.09 3.32026 136.806 4.55347Z" fill="#0D131A"/>
<defs>
<filter id="filter0_d_1_38131" x="154.512" y="26.8979" width="133.159" height="151.98" filterUnits="userSpaceOnUse" color-interpolation-filters="sRGB">
<feFlood flood-opacity="0" result="BackgroundImageFix"/>
<feColorMatrix in="SourceAlpha" type="matrix" values="0 0 0 0 0 0 0 0 0 0 0 0 0 0 0 0 0 0 127 0" result="hardAlpha"/>
<feOffset dx="13.4722" dy="18.8611"/>
<feGaussianBlur stdDeviation="9.43056"/>
<feComposite in2="hardAlpha" operator="out"/>
<feColorMatrix type="matrix" values="0 0 0 0 0 0 0 0 0 0 0 0 0 0 0 0 0 0 0.26 0"/>
<feBlend mode="normal" in2="BackgroundImageFix" result="effect1_dropShadow_1_38131"/>
<feBlend mode="normal" in="SourceGraphic" in2="effect1_dropShadow_1_38131" result="shape"/>
</filter>
</defs>
</svg>
